SplineFontDB: 3.0
FontName: Verdandi-Modern-Italic
FullName: Verdandi Modern Italic
FamilyName: Verdandi Modern
Weight: Regular
Copyright: Copyright \\\\050URW\\\\051++,Copyright 1999 by \\\\050URW\\\\051++ Design & Development; Cyrillic glyphs added by Valek Filippov \\\\050C\\\\051 2001-2002
Version: 1.100
ItalicAngle: -15
UnderlinePosition: -60
UnderlineWidth: 42
Ascent: 860
Descent: 140
sfntRevision: 0x0001199a
LayerCount: 2
Layer: 0 0 "Back"  1
Layer: 1 0 "Fore"  0
XUID: [1021 64 7236 24164]
FSType: 4
OS2Version: 4
OS2_WeightWidthSlopeOnly: 0
OS2_UseTypoMetrics: 1
CreationTime: 1286379179
ModificationTime: 1405408984
PfmFamily: 17
TTFWeight: 400
TTFWidth: 5
LineGap: 0
VLineGap: 0
Panose: 0 0 5 0 0 0 0 0 0 0
OS2TypoAscent: 860
OS2TypoAOffset: 0
OS2TypoDescent: -140
OS2TypoDOffset: 0
OS2TypoLinegap: 0
OS2WinAscent: 1080
OS2WinAOffset: 0
OS2WinDescent: 420
OS2WinDOffset: 0
HheadAscent: 860
HheadAOffset: 0
HheadDescent: -140
HheadDOffset: 0
OS2Vendor: 'UKWN'
OS2CodePages: 20000097.00000000
OS2UnicodeRanges: 00000287.00000000.00000000.00000000
Lookup: 4 0 1 "CCMP"  {"CCMP"  } ['ccmp' ('DFLT' <'dflt' > 'cyrl' <'dflt' > 'grek' <'dflt' > 'latn' <'dflt' > ) ]
Lookup: 4 0 1 "LIGA"  {"LIGA-1"  } ['liga' ('DFLT' <'dflt' > 'cyrl' <'dflt' > 'grek' <'dflt' > 'latn' <'dflt' > ) ]
Lookup: 260 0 0 "'mark' Mark Positioning lookup 1"  {"Major marks"  } ['mark' ('DFLT' <'dflt' > 'cyrl' <'dflt' > 'grek' <'dflt' > 'latn' <'dflt' > ) ]
Lookup: 258 0 0 "'kern' Horizontal Kerning in Latin lookup 0"  {"'kern' Horizontal Kerning in Latin lookup 0 subtable"  } ['kern' ('DFLT' <'dflt' > 'latn' <'dflt' > ) ]
MarkAttachClasses: 1
DEI: 91125
LangName: 1033 "" "" "Italic" "" "" "Version 1.001;PS 1.06;hotconv 1.0.50;makeotf.lib2.0.16970 DEVELOPMENT" "" "Please refer to the Copyright section for the font trademark attribution notices." 
GaspTable: 1 65535 11 1
Encoding: UnicodeBmp
UnicodeInterp: none
NameList: Adobe Glyph List
DisplaySize: -36
AntiAlias: 1
FitToEm: 1
WinInfo: 0 32 11

StartChar: .notdef
Encoding: 65536 -1 0
Width: 596
Flags: MW
LayerCount: 2
Fore
SplineSet
96 0 m 1
 96 700 l 1
 596 700 l 1
 596 0 l 1
 96 0 l 1
346 395 m 1
 516 650 l 1
 176 650 l 1
 346 395 l 1
376 350 m 1
 546 95 l 1
 546 605 l 1
 376 350 l 1
176 50 m 1
 516 50 l 1
 346 305 l 1
 176 50 l 1
146 605 m 1
 146 95 l 1
 316 350 l 1
 146 605 l 1
EndSplineSet
EndChar

StartChar: exclam
Encoding: 33 33 2
Width: 333
Flags: HMW
LayerCount: 2
Fore
SplineSet
140 182 m 1
 104 192 l 1
 153 376 174 494 183 626 c 0
 188 696 216 737 257 737 c 0
 292 737 316 713 316 679 c 0
 316 649 315 647 266 543 c 1
 218 437 185 344 140 182 c 1
EndSplineSet
Refer: 367 803 S 1 0 0 1 13 0 2
EndChar

StartChar: quotedbl
Encoding: 34 34 3
Width: 400
Flags: MW
LayerCount: 2
Fore
SplineSet
100 520 m 1
 156 695 l 2
 164 721 176 732 198 732 c 0
 222 732 243 712 243 689 c 0
 243 680 239 670 230 657 c 2
 120 510 l 1
 100 520 l 1
252 520 m 1
 308 695 l 2
 316 721 328 732 350 732 c 0
 374 732 395 712 395 689 c 0
 395 680 391 669 382 657 c 2
 272 510 l 1
 252 520 l 1
EndSplineSet
EndChar

StartChar: numbersign
Encoding: 35 35 4
Width: 556
Flags: MW
LayerCount: 2
Fore
SplineSet
134 220 m 1
 33 220 l 1
 33 276 l 1
 142 276 l 1
 163 424 l 1
 60 424 l 1
 60 480 l 1
 171 480 l 1
 201 686 l 1
 266 686 l 1
 236 480 l 1
 359 480 l 1
 389 686 l 1
 454 686 l 1
 424 480 l 1
 524 480 l 1
 524 424 l 1
 416 424 l 1
 395 276 l 1
 497 276 l 1
 497 220 l 1
 387 220 l 1
 355 0 l 1
 290 0 l 1
 322 220 l 1
 199 220 l 1
 167 0 l 1
 102 0 l 1
 134 220 l 1
228 424 m 1
 207 276 l 1
 330 276 l 1
 351 424 l 1
 228 424 l 1
EndSplineSet
EndChar

StartChar: dollar
Encoding: 36 36 5
Width: 556
Flags: MW
LayerCount: 2
Fore
SplineSet
381 647 m 1
 311 388 l 1
 353 371 356 370 377 357 c 0
 442 315 473 264 473 199 c 0
 473 121 426 53 345 14 c 0
 304 -5 269 -13 211 -14 c 1
 204 -14 l 1
 171 -135 l 1
 128 -135 l 1
 162 -11 l 1
 67 5 3 67 3 143 c 0
 3 197 35 234 80 234 c 0
 116 234 142 210 142 175 c 0
 142 147 125 127 93 118 c 0
 77 114 73 110 73 100 c 0
 73 72 119 40 172 30 c 1
 246 304 l 1
 240 307 l 1
 234 309 l 1
 150 344 103 407 103 485 c 0
 103 601 209 693 343 693 c 2
 350 693 l 1
 377 792 l 1
 420 792 l 1
 392 689 l 1
 480 673 536 615 536 541 c 0
 536 493 510 464 469 464 c 0
 436 464 411 487 411 518 c 0
 411 543 421 558 445 570 c 0
 458 577 462 582 462 591 c 0
 462 613 427 637 381 647 c 1
273 404 m 1
 339 651 l 1
 242 650 183 601 183 522 c 0
 183 471 216 426 268 406 c 2
 273 404 l 1
285 288 m 1
 215 26 l 1
 242 27 261 30 282 36 c 0
 344 55 385 106 385 163 c 0
 385 192 372 227 353 248 c 0
 340 263 327 271 298 283 c 0
 294 285 289 287 285 288 c 1
EndSplineSet
EndChar

StartChar: percent
Encoding: 37 37 6
Width: 833
Flags: MW
LayerCount: 2
Fore
SplineSet
651 722 m 1
 237 0 l 1
 187 0 l 1
 549 635 l 1
 510 613 486 605 452 605 c 0
 431 605 414 608 387 617 c 1
 390 600 391 592 391 581 c 0
 391 520 363 449 320 397 c 0
 276 345 230 321 174 321 c 0
 100 321 46 373 46 445 c 0
 46 512 92 604 152 656 c 0
 191 689 236 708 279 708 c 0
 319 708 344 695 370 661 c 1
 400 644 418 639 443 639 c 0
 507 639 565 668 605 722 c 1
 651 722 l 1
287 673 m 1
 244 658 231 646 192 578 c 0
 146 497 130 456 130 419 c 0
 130 383 154 357 189 357 c 0
 270 357 357 475 357 587 c 0
 357 602 355 613 351 630 c 1
 322 641 307 650 287 673 c 1
675 401 m 0
 743 401 792 351 792 282 c 0
 792 223 762 146 716 89 c 0
 679 42 627 15 575 15 c 0
 500 15 445 66 445 136 c 0
 445 192 472 261 514 314 c 1
 560 370 616 401 675 401 c 0
692 364 m 0
 660 364 633 341 601 290 c 1
 549 203 527 151 527 111 c 0
 527 78 553 51 586 51 c 0
 668 51 757 170 757 280 c 0
 757 327 728 364 692 364 c 0
EndSplineSet
EndChar

StartChar: ampersand
Encoding: 38 38 7
Width: 852
Flags: MW
LayerCount: 2
Fore
SplineSet
773 397 m 1
 768 354 l 1
 702 347 678 328 607 224 c 1
 571 174 546 144 507 108 c 1
 540 70 565 56 598 56 c 0
 643 56 671 77 719 146 c 1
 753 125 l 1
 692 29 629 -15 552 -15 c 0
 499 -15 462 1 422 43 c 1
 350 3 288 -15 222 -15 c 0
 103 -15 24 59 24 170 c 0
 24 235 56 296 117 346 c 0
 149 371 190 393 263 424 c 1
 257 469 255 490 255 517 c 0
 255 650 329 737 442 737 c 0
 532 737 594 684 594 606 c 0
 594 549 565 504 506 468 c 0
 475 449 442 436 372 416 c 1
 400 298 439 199 478 146 c 1
 546 209 588 270 588 305 c 0
 588 335 559 354 514 354 c 2
 507 354 l 1
 513 397 l 1
 773 397 l 1
364 459 m 1
 370 461 370 461 377 464 c 0
 464 490 523 549 523 609 c 0
 523 656 489 691 444 691 c 0
 389 691 354 642 354 565 c 0
 354 534 356 512 364 459 c 1
271 379 m 1
 231 359 213 347 195 329 c 0
 161 295 139 243 139 196 c 0
 139 158 153 117 176 86 c 1
 199 57 233 41 274 41 c 0
 313 41 349 53 392 80 c 1
 335 171 299 260 271 379 c 1
EndSplineSet
EndChar

StartChar: quotesingle
Encoding: 39 39 8
Width: 278
Flags: MW
LayerCount: 2
Fore
SplineSet
114 520 m 1
 172 695 l 2
 180 721 193 732 215 732 c 0
 240 732 262 712 262 691 c 0
 262 681 257 669 248 657 c 2
 134 510 l 1
 114 520 l 1
EndSplineSet
EndChar

StartChar: parenleft
Encoding: 40 40 9
Width: 333
Flags: MW
LayerCount: 2
Fore
SplineSet
389 736 m 1
 399 713 l 1
 315 669 271 629 232 563 c 0
 163 444 119 274 119 122 c 0
 119 34 133 -22 177 -108 c 1
 156 -123 l 1
 78 -26 40 85 40 213 c 0
 40 440 187 661 389 736 c 1
EndSplineSet
EndChar

StartChar: parenright
Encoding: 41 41 10
Width: 333
Flags: MW
LayerCount: 2
Fore
SplineSet
-83 -123 m 1
 -93 -100 l 1
 -9 -55 35 -16 73 50 c 0
 143 170 186 339 186 492 c 0
 186 579 172 635 129 721 c 1
 150 736 l 1
 227 640 265 529 265 400 c 0
 265 174 118 -47 -83 -123 c 1
EndSplineSet
EndChar

StartChar: asterisk
Encoding: 42 42 11
Width: 500
Flags: MW
LayerCount: 2
Fore
SplineSet
222 501 m 1
 199 525 l 1
 175 547 163 555 118 571 c 1
 91 582 79 596 79 618 c 0
 79 641 96 659 120 659 c 0
 142 659 157 647 167 620 c 0
 184 573 188 566 214 540 c 2
 237 516 l 1
 246 549 l 2
 250 563 252 578 252 591 c 0
 252 601 250 621 247 641 c 0
 246 649 245 656 245 661 c 0
 245 684 266 705 289 705 c 0
 311 705 329 685 329 661 c 0
 329 648 325 639 312 624 c 0
 281 588 277 581 267 543 c 2
 258 511 l 1
 291 519 l 1
 322 528 335 536 371 565 c 0
 387 578 395 582 408 582 c 0
 432 582 452 564 452 541 c 0
 452 518 430 497 407 497 c 0
 402 497 396 498 388 499 c 0
 360 505 351 506 341 506 c 0
 330 506 314 503 296 499 c 1
 264 490 l 1
 288 466 l 2
 310 444 324 436 367 420 c 0
 395 409 407 395 407 373 c 0
 407 349 390 332 366 332 c 0
 344 332 329 344 319 371 c 0
 303 416 299 423 272 451 c 2
 249 475 l 1
 240 442 l 2
 236 428 234 414 234 401 c 0
 234 390 236 373 239 350 c 0
 240 342 241 336 241 331 c 0
 241 307 221 286 197 286 c 0
 175 286 157 306 157 330 c 0
 157 343 161 352 174 367 c 0
 205 405 209 412 219 448 c 2
 228 480 l 1
 195 472 l 1
 165 463 152 455 115 426 c 0
 99 413 91 409 78 409 c 0
 54 409 34 427 34 450 c 0
 34 473 55 494 79 494 c 0
 84 494 90 493 98 492 c 0
 121 488 137 486 147 486 c 0
 160 486 174 488 190 492 c 2
 222 501 l 1
EndSplineSet
EndChar

StartChar: plus
Encoding: 43 43 12
Width: 606
Flags: MW
LayerCount: 2
Fore
SplineSet
249 213 m 1
 37 213 l 1
 37 293 l 1
 249 293 l 1
 249 505 l 1
 329 505 l 1
 329 293 l 1
 540 293 l 1
 540 213 l 1
 329 213 l 1
 329 2 l 1
 249 2 l 1
 249 213 l 1
EndSplineSet
EndChar

StartChar: comma
Encoding: 44 44 13
Width: 278
Flags: MW
LayerCount: 2
Fore
SplineSet
-26 -167 m 1
 -39 -136 l 1
 35 -102 79 -56 88 -5 c 1
 81 -6 75 -6 71 -6 c 0
 37 -6 15 15 15 47 c 0
 15 82 45 109 82 109 c 0
 122 109 151 75 151 29 c 0
 151 -48 82 -125 -26 -167 c 1
EndSplineSet
EndChar

StartChar: hyphen
Encoding: 45 45 14
Width: 333
Flags: MW
LayerCount: 2
Fore
SplineSet
54 278 m 1
 259 278 l 1
 237 195 l 1
 32 195 l 1
 54 278 l 1
EndSplineSet
EndChar

StartChar: period
Encoding: 46 46 15
Width: 278
Flags: MW
LayerCount: 2
Fore
SplineSet
79 109 m 0
 113 109 141 81 141 47 c 0
 141 12 113 -15 78 -15 c 0
 45 -15 17 13 17 47 c 0
 17 81 45 109 79 109 c 0
EndSplineSet
EndChar

StartChar: slash
Encoding: 47 47 16
Width: 606
Flags: MW
LayerCount: 2
Fore
SplineSet
408 722 m 1
 466 722 l 1
 198 -108 l 1
 140 -108 l 1
 408 722 l 1
EndSplineSet
EndChar

StartChar: zero
Encoding: 48 48 17
Width: 556
Flags: MW
LayerCount: 2
Fore
SplineSet
351 704 m 0
 456 704 527 603 527 454 c 0
 527 207 374 -15 203 -15 c 0
 101 -15 29 87 29 232 c 0
 29 372 85 526 168 615 c 0
 223 674 285 704 351 704 c 0
349 664 m 0
 305 664 265 634 234 578 c 0
 170 462 124 287 124 158 c 0
 124 73 155 25 208 25 c 0
 268 25 316 80 364 204 c 0
 404 306 430 435 430 531 c 0
 430 618 402 664 349 664 c 0
EndSplineSet
EndChar

StartChar: one
Encoding: 49 49 18
Width: 556
Flags: MW
LayerCount: 2
Fore
SplineSet
459 708 m 1
 302 123 l 1
 293 82 293 82 293 74 c 0
 293 52 307 47 372 47 c 2
 426 47 l 1
 420 0 l 1
 50 0 l 1
 55 47 l 1
 98 47 l 2
 148 47 171 51 182 61 c 0
 190 69 191 70 205 123 c 2
 312 523 l 2
 322 559 322 559 322 568 c 0
 322 586 315 588 254 588 c 2
 185 588 l 1
 197 632 l 1
 269 632 376 667 430 708 c 1
 459 708 l 1
EndSplineSet
EndChar

StartChar: two
Encoding: 50 50 19
Width: 556
Flags: MW
LayerCount: 2
Fore
SplineSet
435 207 m 1
 471 193 l 1
 394 0 l 1
 -35 0 l 1
 -26 56 14 99 280 329 c 0
 370 407 403 462 403 537 c 0
 403 607 356 654 286 654 c 0
 219 654 144 606 144 563 c 0
 144 551 149 546 172 534 c 0
 205 516 218 499 218 473 c 0
 218 437 190 409 153 409 c 0
 106 409 76 445 76 501 c 0
 76 610 187 704 315 704 c 0
 430 704 508 633 508 529 c 0
 508 450 475 391 395 329 c 0
 369 309 363 304 226 210 c 1
 145 152 103 117 78 85 c 1
 310 85 l 2
 359 85 372 96 409 161 c 2
 435 207 l 1
EndSplineSet
EndChar

StartChar: three
Encoding: 51 51 20
Width: 556
Flags: MW
LayerCount: 2
Fore
SplineSet
340 364 m 1
 384 350 404 338 426 312 c 0
 447 287 458 256 458 220 c 0
 458 86 343 -15 192 -15 c 0
 72 -15 -2 46 -2 143 c 0
 -2 195 26 229 69 229 c 0
 104 229 133 201 133 167 c 0
 133 140 121 122 92 109 c 0
 76 102 72 98 72 87 c 0
 72 55 121 27 176 27 c 0
 241 27 287 54 317 108 c 0
 338 146 350 192 350 239 c 0
 350 301 318 343 271 343 c 0
 261 343 247 342 233 339 c 0
 225 338 218 337 213 337 c 0
 195 337 184 347 184 363 c 0
 184 381 197 391 218 391 c 0
 222 391 223 391 253 389 c 0
 265 388 273 387 276 387 c 0
 342 387 406 472 406 560 c 0
 406 622 366 659 299 659 c 0
 252 659 202 634 202 610 c 0
 202 603 206 597 216 587 c 0
 231 571 237 559 237 542 c 0
 237 509 213 485 180 485 c 0
 143 485 117 513 117 554 c 0
 117 635 209 704 318 704 c 0
 429 704 506 639 506 545 c 0
 506 467 457 405 374 375 c 0
 364 372 351 368 340 364 c 1
EndSplineSet
EndChar

StartChar: four
Encoding: 52 52 21
Width: 556
Flags: MW
LayerCount: 2
Fore
SplineSet
512 708 m 1
 386 238 l 1
 500 238 l 1
 486 184 l 1
 372 184 l 1
 355 123 l 2
 348 98 345 82 345 74 c 0
 345 52 359 47 425 47 c 2
 443 47 l 1
 438 0 l 1
 127 0 l 1
 133 47 l 1
 151 47 l 2
 200 47 224 51 235 61 c 0
 243 68 243 70 258 123 c 1
 274 184 l 1
 -8 184 l 1
 -8 226 l 1
 458 708 l 1
 512 708 l 1
289 238 m 1
 374 556 l 1
 65 238 l 1
 289 238 l 1
EndSplineSet
EndChar

StartChar: five
Encoding: 53 53 22
Width: 556
Flags: MW
LayerCount: 2
Fore
SplineSet
112 383 m 1
 203 704 l 1
 275 685 349 675 408 675 c 0
 448 675 482 683 522 700 c 0
 528 703 531 704 532 704 c 0
 536 704 540 698 540 692 c 0
 540 679 530 662 512 642 c 0
 480 607 421 586 355 586 c 0
 320 586 278 591 224 602 c 1
 168 413 l 1
 218 437 250 446 294 446 c 0
 403 446 480 374 480 274 c 0
 480 115 348 -15 187 -15 c 0
 81 -15 4 49 4 137 c 0
 4 185 37 222 81 222 c 0
 116 222 141 198 141 166 c 0
 141 145 132 127 115 115 c 0
 109 110 109 110 83 98 c 0
 78 95 77 93 77 87 c 0
 77 54 126 26 184 26 c 0
 287 26 371 132 371 262 c 0
 371 345 329 391 255 391 c 0
 216 391 183 379 152 355 c 1
 149 318 134 299 108 299 c 0
 88 299 72 314 72 333 c 0
 72 352 81 363 112 383 c 1
EndSplineSet
EndChar

StartChar: six
Encoding: 54 54 23
Width: 556
Flags: MW
LayerCount: 2
Fore
SplineSet
158 335 m 1
 199 398 253 429 323 429 c 0
 423 429 492 358 492 256 c 0
 492 190 465 118 421 68 c 0
 373 15 306 -15 231 -15 c 0
 109 -15 36 74 36 221 c 0
 36 332 79 459 148 558 c 0
 216 654 300 704 394 704 c 0
 483 704 547 654 547 586 c 0
 547 541 519 511 478 511 c 0
 444 511 420 533 420 565 c 0
 420 580 424 592 433 609 c 0
 440 622 442 626 442 633 c 0
 442 652 422 664 392 664 c 0
 332 664 277 623 233 545 c 0
 193 474 177 430 158 335 c 1
290 371 m 0
 198 371 129 277 129 153 c 0
 129 73 167 26 231 26 c 0
 319 26 387 123 387 250 c 0
 387 327 352 371 290 371 c 0
EndSplineSet
EndChar

StartChar: seven
Encoding: 55 55 24
Width: 556
Flags: MW
LayerCount: 2
Fore
SplineSet
561 704 m 1
 561 674 l 1
 467 528 l 1
 328 303 298 238 248 50 c 0
 235 3 216 -15 180 -15 c 0
 144 -15 122 7 122 43 c 0
 122 78 140 122 184 193 c 0
 233 273 233 273 361 453 c 1
 470 609 l 1
 301 609 l 2
 196 609 178 600 130 521 c 2
 106 481 l 1
 69 493 l 1
 166 704 l 1
 191 703 l 1
 292 697 l 2
 328 695 360 694 387 694 c 0
 442 694 509 698 561 704 c 1
EndSplineSet
EndChar

StartChar: eight
Encoding: 56 56 25
Width: 556
Flags: MW
LayerCount: 2
Fore
SplineSet
376 370 m 1
 413 346 431 331 446 311 c 0
 468 281 480 246 480 209 c 0
 480 79 369 -15 216 -15 c 0
 88 -15 8 46 8 142 c 0
 8 233 71 306 189 351 c 1
 135 390 114 429 114 490 c 0
 114 610 214 704 343 704 c 0
 450 704 527 639 527 548 c 0
 527 497 504 451 461 418 c 0
 443 404 422 392 376 370 c 1
333 393 m 1
 338 396 345 399 349 400 c 0
 410 428 452 491 452 554 c 0
 452 616 403 661 335 661 c 0
 257 661 194 606 194 538 c 0
 194 481 232 442 333 393 c 1
227 324 m 1
 216 319 210 317 208 316 c 0
 134 284 89 222 89 154 c 0
 89 77 142 29 227 29 c 0
 321 29 393 88 393 164 c 0
 393 208 366 249 316 279 c 0
 291 294 274 302 227 324 c 1
EndSplineSet
EndChar

StartChar: nine
Encoding: 57 57 26
Width: 556
Flags: MW
LayerCount: 2
Fore
SplineSet
393 342 m 1
 347 284 296 257 230 257 c 0
 134 257 60 329 60 424 c 0
 60 489 86 559 131 614 c 0
 177 671 247 704 320 704 c 0
 444 704 519 610 519 454 c 0
 519 332 462 186 375 90 c 0
 313 21 240 -15 160 -15 c 0
 71 -15 7 34 7 102 c 0
 7 145 35 176 75 176 c 0
 109 176 135 151 135 118 c 0
 135 105 130 92 120 79 c 0
 112 67 110 63 110 57 c 0
 110 39 129 27 160 27 c 0
 228 27 281 69 329 159 c 0
 359 215 376 264 393 342 c 1
319 662 m 0
 273 662 237 639 208 591 c 0
 180 546 166 493 166 434 c 0
 166 359 201 316 264 316 c 0
 356 316 424 407 424 531 c 0
 424 611 383 662 319 662 c 0
EndSplineSet
EndChar

StartChar: semicolon
Encoding: 59 59 28
Width: 278
Flags: MW
LayerCount: 2
Fore
SplineSet
-1 -167 m 1
 -14 -135 l 1
 61 -101 104 -57 113 -5 c 1
 106 -6 100 -6 96 -6 c 0
 62 -6 40 15 40 47 c 0
 40 82 70 109 107 109 c 0
 147 109 176 75 176 29 c 0
 176 -48 108 -124 -1 -167 c 1
EndSplineSet
Refer: 367 803 S 1 0 0 1 120 354 2
EndChar

StartChar: less
Encoding: 60 60 29
Width: 606
Flags: MW
LayerCount: 2
Fore
SplineSet
543 438 m 1
 145 253 l 1
 543 68 l 1
 543 -17 l 1
 34 215 l 1
 34 291 l 1
 543 523 l 1
 543 438 l 1
EndSplineSet
EndChar

StartChar: greater
Encoding: 62 62 31
Width: 606
Flags: MW
LayerCount: 2
Fore
SplineSet
53 438 m 1
 53 523 l 1
 562 291 l 1
 562 215 l 1
 53 -17 l 1
 53 68 l 1
 451 253 l 1
 53 438 l 1
EndSplineSet
EndChar

StartChar: question
Encoding: 63 63 32
Width: 444
Flags: MW
LayerCount: 2
Fore
SplineSet
290 310 m 1
 326 304 l 1
 314 241 268 199 211 199 c 0
 155 199 117 239 117 299 c 0
 117 370 159 427 276 517 c 0
 333 561 354 591 354 629 c 0
 354 667 321 696 279 696 c 0
 232 696 191 670 168 626 c 0
 156 602 152 577 152 526 c 1
 114 526 l 1
 113 537 113 544 113 550 c 0
 113 659 183 737 281 737 c 0
 361 737 417 680 417 598 c 0
 417 540 392 494 334 445 c 0
 307 421 307 421 234 374 c 0
 186 343 167 317 167 286 c 0
 167 256 184 237 212 237 c 0
 236 237 259 249 272 267 c 0
 279 277 282 285 290 310 c 1
EndSplineSet
Refer: 367 803 S 1 0 0 1 85 0 2
EndChar

StartChar: at
Encoding: 64 64 33
Width: 747
Flags: MW
LayerCount: 2
Fore
SplineSet
641 188 m 1
 702 188 l 1
 683 144 653 105 610 66 c 1
 550 14 475 -14 393 -14 c 0
 187 -14 28 147 28 356 c 0
 28 464 67 563 137 632 c 0
 203 697 299 736 393 736 c 0
 578 736 728 601 728 435 c 0
 728 343 683 253 610 198 c 0
 567 165 521 147 481 147 c 0
 440 147 412 173 412 212 c 0
 412 219 412 224 413 232 c 1
 374 174 345 153 305 153 c 0
 272 153 236 171 213 198 c 0
 191 224 180 260 180 302 c 0
 180 363 203 424 244 471 c 1
 283 514 337 543 381 543 c 0
 419 543 447 519 459 478 c 1
 475 534 l 1
 563 534 l 1
 490 245 l 2
 487 233 486 223 486 215 c 0
 486 201 497 191 513 191 c 0
 541 191 582 219 616 260 c 1
 652 306 676 373 676 429 c 0
 676 496 643 567 587 616 c 0
 535 662 473 685 399 685 c 0
 216 685 84 549 84 361 c 0
 84 173 217 37 401 37 c 0
 502 37 585 89 641 188 c 1
395 502 m 0
 372 502 349 487 332 460 c 0
 295 403 270 327 270 271 c 0
 270 222 288 193 318 193 c 0
 349 193 380 225 404 280 c 0
 425 327 440 391 440 430 c 0
 440 474 423 502 395 502 c 0
EndSplineSet
EndChar

StartChar: A
Encoding: 65 65 34
Width: 704
Flags: MW
LayerCount: 2
Fore
SplineSet
442 737 m 1
 567 108 l 2
 577 56 588 47 643 47 c 2
 668 47 l 1
 663 0 l 1
 362 0 l 1
 367 47 l 1
 383 47 l 2
 440 47 455 54 455 83 c 0
 455 90 453 103 451 115 c 2
 428 238 l 1
 173 238 l 1
 118 142 l 2
 106 122 100 102 100 87 c 0
 100 57 117 47 169 47 c 2
 193 47 l 1
 187 0 l 1
 -82 0 l 1
 -77 47 l 1
 -23 47 18 80 71 168 c 1
 401 737 l 1
 442 737 l 1
420 285 m 1
 363 572 l 1
 200 285 l 1
 420 285 l 1
EndSplineSet
EndChar

StartChar: B
Encoding: 66 66 35
Width: 722
Flags: MW
LayerCount: 2
Fore
SplineSet
123 722 m 1
 424 722 l 2
 502 722 546 714 587 691 c 0
 638 663 668 613 668 555 c 0
 668 495 638 442 585 410 c 0
 552 390 522 380 473 371 c 1
 579 339 630 285 630 206 c 0
 630 128 583 60 506 27 c 0
 466 9 405 0 332 0 c 2
 -31 0 l 1
 -26 47 l 1
 -11 47 l 2
 27 47 52 52 62 61 c 0
 70 69 71 69 85 123 c 2
 213 599 l 2
 218 619 222 640 222 648 c 0
 222 670 208 675 143 675 c 2
 117 675 l 1
 123 722 l 1
269 394 m 1
 352 394 l 2
 411 394 454 405 486 430 c 0
 525 460 549 514 549 570 c 0
 549 643 513 675 431 675 c 2
 402 675 l 2
 351 675 343 668 327 607 c 2
 269 394 l 1
257 347 m 1
 193 109 l 2
 189 94 187 82 187 74 c 0
 187 53 203 47 257 47 c 2
 307 47 l 2
 367 47 416 61 446 87 c 0
 484 120 508 173 508 225 c 0
 508 274 482 313 436 332 c 0
 414 341 368 347 320 347 c 2
 257 347 l 1
EndSplineSet
EndChar

StartChar: C
Encoding: 67 67 36
Width: 722
Flags: MW
LayerCount: 2
Fore
SplineSet
617 657 m 1
 677 715 l 1
 713 715 l 1
 657 435 l 1
 616 435 l 1
 613 512 606 556 590 593 c 1
 563 660 516 694 450 694 c 0
 381 694 314 654 268 583 c 0
 205 486 165 354 165 240 c 0
 165 183 181 130 211 93 c 1
 241 54 289 34 351 34 c 0
 426 34 486 63 536 125 c 0
 554 146 568 170 593 223 c 1
 634 205 l 1
 608 144 585 107 554 75 c 0
 497 16 422 -15 334 -15 c 0
 156 -15 40 102 40 280 c 0
 40 391 78 495 152 585 c 1
 232 685 332 737 442 737 c 0
 518 737 569 714 617 657 c 1
EndSplineSet
EndChar

StartChar: D
Encoding: 68 68 37
Width: 778
Flags: MW
LayerCount: 2
Fore
SplineSet
-38 0 m 1
 -33 47 l 1
 -28 47 l 2
 21 47 44 51 55 61 c 0
 63 69 64 69 78 123 c 2
 206 599 l 2
 211 619 215 640 215 648 c 0
 215 670 201 675 136 675 c 2
 110 675 l 1
 116 722 l 1
 406 722 l 2
 518 722 581 708 631 670 c 0
 698 620 735 537 735 435 c 0
 735 301 667 162 560 77 c 0
 490 22 405 0 264 0 c 2
 -38 0 l 1
227 47 m 2
 259 47 l 2
 356 47 420 65 465 104 c 0
 546 176 614 352 614 489 c 0
 614 547 595 602 566 631 c 0
 537 659 486 675 426 675 c 2
 396 675 l 2
 343 675 336 669 320 610 c 2
 187 110 l 2
 183 98 181 84 181 76 c 0
 181 56 196 47 227 47 c 2
EndSplineSet
EndChar

StartChar: E
Encoding: 69 69 38
Width: 722
Flags: MW
LayerCount: 2
Fore
SplineSet
701 722 m 1
 662 481 l 1
 617 481 l 1
 617 516 l 2
 617 585 608 617 580 642 c 0
 555 664 521 675 478 675 c 2
 420 675 l 2
 345 675 337 670 320 606 c 2
 265 401 l 1
 288 401 l 2
 385 401 437 438 466 526 c 1
 511 520 l 1
 422 186 l 1
 377 194 l 1
 384 226 386 241 386 263 c 0
 386 324 349 354 275 354 c 2
 253 354 l 1
 194 134 l 2
 184 96 183 91 183 79 c 0
 183 55 201 47 253 47 c 2
 307 47 l 2
 388 47 446 65 494 106 c 0
 533 138 552 165 596 245 c 1
 601 253 l 1
 642 245 l 1
 564 0 l 1
 -37 0 l 1
 -32 47 l 1
 -27 47 l 2
 22 47 45 51 56 61 c 0
 64 69 65 70 79 123 c 2
 207 599 l 2
 212 619 216 640 216 648 c 0
 216 670 202 675 137 675 c 2
 111 675 l 1
 117 722 l 1
 701 722 l 1
EndSplineSet
EndChar

StartChar: F
Encoding: 70 70 39
Width: 667
Flags: MW
LayerCount: 2
Fore
SplineSet
698 722 m 1
 659 481 l 1
 614 481 l 1
 614 516 l 2
 614 585 605 617 577 642 c 0
 552 664 518 675 475 675 c 2
 423 675 l 2
 348 675 340 670 323 606 c 2
 268 401 l 1
 291 401 l 2
 388 401 440 438 469 526 c 1
 514 520 l 1
 425 186 l 1
 380 194 l 1
 387 226 389 241 389 263 c 0
 389 324 352 354 278 354 c 2
 256 354 l 1
 194 123 l 2
 184 82 184 82 184 74 c 0
 184 52 198 47 263 47 c 2
 289 47 l 1
 284 0 l 1
 -34 0 l 1
 -29 47 l 1
 -24 47 l 2
 25 47 48 51 59 61 c 0
 67 69 68 70 82 123 c 2
 210 599 l 2
 215 619 219 640 219 648 c 0
 219 670 205 675 140 675 c 2
 114 675 l 1
 120 722 l 1
 698 722 l 1
EndSplineSet
EndChar

StartChar: G
Encoding: 71 71 40
Width: 778
Flags: MW
LayerCount: 2
Fore
SplineSet
739 715 m 1
 684 434 l 1
 642 441 l 1
 641 510 635 550 618 588 c 0
 589 655 532 694 463 694 c 0
 373 694 297 637 238 525 c 0
 191 435 161 318 161 222 c 0
 161 101 228 28 339 28 c 0
 435 28 501 80 527 178 c 1
 536 209 l 2
 541 229 545 250 545 258 c 0
 545 280 531 285 466 285 c 2
 433 285 l 1
 438 332 l 1
 763 332 l 1
 757 285 l 1
 753 285 l 2
 704 285 681 281 670 271 c 0
 661 264 661 263 647 209 c 2
 587 -14 l 1
 543 -14 l 1
 531 67 l 1
 469 8 409 -15 314 -15 c 0
 142 -15 39 92 39 273 c 0
 39 399 92 522 188 618 c 0
 267 697 357 737 455 737 c 0
 536 737 591 712 643 653 c 1
 705 715 l 1
 739 715 l 1
EndSplineSet
EndChar

StartChar: H
Encoding: 72 72 41
Width: 833
Flags: MW
LayerCount: 2
Fore
SplineSet
573 354 m 1
 252 354 l 1
 190 123 l 2
 180 82 180 82 180 74 c 0
 180 52 194 47 259 47 c 2
 285 47 l 1
 280 0 l 1
 -38 0 l 1
 -33 47 l 1
 -28 47 l 2
 21 47 44 51 55 61 c 0
 63 69 64 70 78 123 c 2
 206 599 l 2
 211 619 215 640 215 648 c 0
 215 670 201 675 136 675 c 2
 110 675 l 1
 116 722 l 1
 433 722 l 1
 428 675 l 1
 424 675 l 2
 375 675 351 671 341 661 c 1
 332 654 332 654 318 599 c 2
 264 401 l 1
 586 401 l 1
 639 599 l 2
 646 623 649 640 649 648 c 0
 649 670 635 675 570 675 c 2
 544 675 l 1
 549 722 l 1
 867 722 l 1
 862 675 l 1
 858 675 l 2
 808 675 785 671 774 661 c 0
 766 654 766 654 751 599 c 2
 623 123 l 2
 618 104 614 81 614 74 c 0
 614 52 628 47 693 47 c 2
 719 47 l 1
 713 0 l 1
 396 0 l 1
 401 47 l 1
 405 47 l 2
 454 47 478 51 489 61 c 0
 497 69 497 70 512 123 c 2
 573 354 l 1
EndSplineSet
EndChar

StartChar: I
Encoding: 73 73 42
Width: 407
Flags: MW
LayerCount: 2
Fore
SplineSet
283 47 m 1
 277 0 l 1
 -33 0 l 1
 -28 47 l 1
 31 48 44 50 56 61 c 0
 65 70 66 73 79 123 c 2
 207 599 l 2
 214 626 217 640 217 648 c 0
 217 670 203 675 137 675 c 2
 115 675 l 1
 121 722 l 1
 431 722 l 1
 426 675 l 1
 368 674 354 672 342 661 c 0
 333 652 333 651 319 599 c 2
 191 123 l 2
 182 89 181 84 181 75 c 0
 181 52 195 47 261 47 c 2
 283 47 l 1
EndSplineSet
EndChar

StartChar: J
Encoding: 74 74 43
Width: 611
Flags: MW
LayerCount: 2
Fore
SplineSet
326 675 m 1
 332 722 l 1
 646 722 l 1
 641 675 l 1
 637 675 l 2
 595 675 570 671 560 661 c 0
 552 653 552 653 537 599 c 2
 428 192 l 2
 390 50 312 -15 178 -15 c 0
 58 -15 -13 43 -13 143 c 0
 -13 224 40 288 108 288 c 0
 155 288 187 259 187 217 c 0
 187 176 160 147 121 147 c 0
 103 147 95 149 75 161 c 0
 71 163 66 164 61 164 c 0
 46 164 35 150 35 132 c 0
 35 73 88 28 157 28 c 0
 241 28 286 80 323 219 c 2
 425 599 l 2
 431 623 435 640 435 648 c 0
 435 670 421 675 356 675 c 2
 326 675 l 1
EndSplineSet
EndChar

StartChar: K
Encoding: 75 75 44
Width: 741
Flags: MW
LayerCount: 2
Fore
SplineSet
247 342 m 1
 535 582 l 2
 573 613 589 633 589 650 c 0
 589 669 575 675 530 675 c 2
 508 675 l 1
 514 722 l 1
 814 722 l 1
 809 675 l 1
 729 669 687 649 608 577 c 1
 420 420 l 1
 572 105 l 2
 600 47 600 47 666 47 c 2
 697 47 l 1
 691 0 l 1
 364 0 l 1
 369 47 l 1
 402 47 l 2
 455 47 470 51 470 65 c 0
 470 71 470 71 454 104 c 2
 337 350 l 1
 224 257 l 1
 188 123 l 2
 178 82 178 82 178 74 c 0
 178 52 192 47 257 47 c 2
 283 47 l 1
 278 0 l 1
 -40 0 l 1
 -35 47 l 1
 -30 47 l 2
 19 47 42 51 53 61 c 0
 61 68 62 69 76 123 c 2
 204 599 l 2
 209 619 213 640 213 648 c 0
 213 670 199 675 134 675 c 2
 108 675 l 1
 114 722 l 1
 431 722 l 1
 426 675 l 1
 422 675 l 2
 373 675 349 671 339 661 c 1
 330 654 330 654 315 599 c 2
 247 342 l 1
EndSplineSet
EndChar

StartChar: L
Encoding: 76 76 45
Width: 667
Flags: MW
LayerCount: 2
Fore
SplineSet
589 253 m 1
 630 245 l 1
 552 0 l 1
 -37 0 l 1
 -32 47 l 1
 -27 47 l 2
 22 47 45 51 56 61 c 0
 64 69 65 70 79 123 c 2
 207 599 l 2
 212 619 216 640 216 648 c 0
 216 670 202 675 137 675 c 2
 111 675 l 1
 117 722 l 1
 453 722 l 1
 447 675 l 1
 425 675 l 2
 376 675 352 671 342 661 c 0
 333 653 333 653 319 599 c 2
 194 134 l 2
 184 97 183 92 183 79 c 0
 183 55 201 47 253 47 c 2
 295 47 l 2
 437 47 501 92 589 253 c 1
EndSplineSet
EndChar

StartChar: M
Encoding: 77 77 46
Width: 944
Flags: MW
LayerCount: 2
Fore
SplineSet
363 722 m 1
 416 182 l 1
 757 722 l 1
 973 722 l 1
 968 675 l 1
 964 675 l 2
 914 675 891 671 880 661 c 0
 872 654 872 654 857 599 c 2
 730 123 l 2
 724 103 720 81 720 74 c 0
 720 52 734 47 799 47 c 2
 825 47 l 1
 819 0 l 1
 502 0 l 1
 507 47 l 1
 511 47 l 2
 560 47 584 51 595 61 c 0
 603 69 603 69 618 123 c 2
 750 616 l 1
 364 0 l 1
 328 0 l 1
 266 602 l 1
 163 217 l 1
 141 128 140 124 140 102 c 0
 140 65 169 47 229 47 c 1
 224 0 l 1
 -26 0 l 1
 -21 47 l 1
 51 49 71 75 109 217 c 2
 211 599 l 2
 217 622 221 640 221 648 c 0
 221 670 207 675 142 675 c 2
 116 675 l 1
 121 722 l 1
 363 722 l 1
EndSplineSet
EndChar

StartChar: N
Encoding: 78 78 47
Width: 815
Flags: MW
LayerCount: 2
Fore
SplineSet
315 722 m 1
 568 170 l 1
 658 505 l 1
 680 594 681 598 681 620 c 0
 681 657 652 675 591 675 c 1
 597 722 l 1
 859 722 l 1
 854 675 l 1
 770 672 750 649 712 505 c 2
 573 -14 l 1
 534 -14 l 1
 256 587 l 1
 157 217 l 2
 134 128 133 124 133 102 c 0
 133 65 162 47 223 47 c 2
 234 47 l 1
 228 0 l 1
 -48 0 l 1
 -43 47 l 1
 44 49 63 71 102 217 c 2
 216 643 l 1
 208 670 199 675 151 675 c 2
 99 675 l 1
 104 722 l 1
 315 722 l 1
EndSplineSet
EndChar

StartChar: O
Encoding: 79 79 48
Width: 778
Flags: MW
LayerCount: 2
Fore
SplineSet
457 737 m 0
 533 737 604 708 655 658 c 0
 709 605 735 537 735 450 c 0
 735 322 682 196 590 104 c 0
 510 25 417 -15 312 -15 c 0
 146 -15 40 98 40 275 c 0
 40 397 86 514 169 602 c 0
 253 692 349 737 457 737 c 0
460 694 m 0
 391 694 334 662 281 594 c 0
 216 510 158 328 158 207 c 0
 158 97 218 28 314 28 c 0
 392 28 465 71 510 144 c 0
 572 244 618 393 618 496 c 0
 618 543 603 603 584 634 c 0
 563 670 512 694 460 694 c 0
EndSplineSet
EndChar

StartChar: P
Encoding: 80 80 49
Width: 667
Flags: MW
LayerCount: 2
Fore
SplineSet
247 318 m 1
 195 123 l 2
 185 82 185 82 185 74 c 0
 185 52 199 47 264 47 c 2
 290 47 l 1
 285 0 l 1
 -33 0 l 1
 -28 47 l 1
 -23 47 l 2
 26 47 49 51 60 61 c 0
 68 69 69 69 83 123 c 2
 211 599 l 2
 216 619 220 640 220 648 c 0
 220 670 206 675 141 675 c 2
 115 675 l 1
 121 722 l 1
 416 722 l 2
 499 722 552 711 589 686 c 0
 637 653 663 603 663 541 c 0
 663 462 624 397 554 359 c 0
 486 323 451 318 265 318 c 2
 247 318 l 1
260 365 m 1
 279 365 l 2
 377 365 377 365 391 367 c 0
 446 372 482 390 508 422 c 0
 535 456 551 503 551 552 c 0
 551 641 511 675 406 675 c 2
 394 675 l 2
 353 675 340 665 330 627 c 2
 260 365 l 1
EndSplineSet
EndChar

StartChar: Q
Encoding: 81 81 50
Width: 778
Flags: MW
LayerCount: 2
Fore
SplineSet
498 27 m 1
 498 5 l 1
 499 -61 504 -82 524 -102 c 0
 530 -107 539 -111 548 -111 c 0
 574 -111 601 -84 623 -38 c 1
 658 -60 l 1
 639 -95 623 -119 605 -139 c 0
 578 -169 537 -188 500 -188 c 0
 433 -188 385 -131 385 -51 c 0
 385 -42 386 -25 389 -8 c 1
 364 -13 347 -15 323 -15 c 0
 147 -15 40 96 40 278 c 0
 40 520 234 737 452 737 c 0
 529 737 599 711 651 663 c 0
 708 611 735 542 735 447 c 0
 735 350 704 254 644 167 c 0
 609 116 569 78 498 27 c 1
485 116 m 1
 565 226 615 375 615 505 c 0
 615 564 603 612 580 640 c 0
 555 672 506 693 455 693 c 0
 382 693 311 646 260 564 c 0
 198 464 157 319 157 200 c 0
 157 141 167 107 195 72 c 1
 188 95 186 106 186 123 c 0
 186 207 247 267 333 267 c 0
 420 267 475 213 485 116 c 1
396 45 m 1
 404 89 405 94 405 117 c 0
 405 178 371 218 318 218 c 0
 264 218 223 175 223 118 c 0
 223 62 259 29 321 29 c 0
 346 29 366 33 396 45 c 1
EndSplineSet
EndChar

StartChar: R
Encoding: 82 82 51
Width: 741
Flags: MW
LayerCount: 2
Fore
SplineSet
248 350 m 1
 187 123 l 2
 177 82 177 82 177 74 c 0
 177 52 191 47 256 47 c 2
 282 47 l 1
 277 0 l 1
 -41 0 l 1
 -36 47 l 1
 -31 47 l 2
 18 47 41 51 52 61 c 0
 60 69 61 70 75 123 c 2
 203 599 l 2
 208 619 212 640 212 648 c 0
 212 670 198 675 133 675 c 2
 107 675 l 1
 113 722 l 1
 433 722 l 2
 517 722 566 714 605 694 c 0
 660 666 691 617 691 558 c 0
 691 493 651 432 589 400 c 0
 553 382 514 373 436 364 c 1
 509 337 539 289 539 202 c 0
 539 191 539 179 538 166 c 2
 537 115 l 2
 537 73 546 54 567 54 c 0
 595 54 612 76 637 147 c 1
 673 132 l 1
 634 26 594 -15 530 -15 c 0
 467 -15 424 34 424 106 c 0
 424 125 424 130 430 206 c 0
 432 227 433 248 433 260 c 0
 433 325 401 350 317 350 c 2
 248 350 l 1
260 397 m 1
 338 397 l 2
 422 397 452 402 489 424 c 0
 543 456 571 504 571 565 c 0
 571 635 523 675 439 675 c 2
 390 675 l 2
 343 675 333 666 319 615 c 2
 260 397 l 1
EndSplineSet
EndChar

StartChar: S
Encoding: 83 83 52
Width: 667
Flags: MW
LayerCount: 2
Fore
SplineSet
632 715 m 1
 578 454 l 1
 536 461 l 1
 537 470 537 478 537 481 c 0
 537 613 471 694 365 694 c 0
 276 694 209 637 209 563 c 0
 209 512 244 475 323 444 c 2
 408 410 l 2
 527 363 569 312 569 214 c 0
 569 82 456 -15 300 -15 c 0
 219 -15 150 11 94 63 c 1
 35 0 l 1
 0 0 l 1
 55 285 l 1
 95 278 l 1
 94 267 94 254 94 250 c 0
 94 183 110 134 147 92 c 0
 186 48 234 28 299 28 c 0
 402 28 473 86 473 171 c 0
 473 208 458 237 429 258 c 0
 417 266 405 272 351 294 c 2
 265 330 l 2
 213 352 185 369 165 391 c 0
 135 424 118 468 118 513 c 0
 118 639 223 737 358 737 c 0
 431 737 488 714 540 663 c 1
 594 715 l 1
 632 715 l 1
EndSplineSet
EndChar

StartChar: T
Encoding: 84 84 53
Width: 685
Flags: MW
LayerCount: 2
Fore
SplineSet
726 722 m 1
 684 447 l 1
 642 452 l 1
 644 493 644 504 644 522 c 0
 644 580 630 628 607 650 c 0
 589 666 560 675 522 675 c 2
 508 675 l 2
 477 675 472 670 458 619 c 2
 325 123 l 2
 320 104 316 81 316 74 c 0
 316 52 330 47 395 47 c 2
 432 47 l 1
 426 0 l 1
 80 0 l 1
 85 47 l 1
 107 47 l 2
 156 47 180 51 191 61 c 0
 199 69 200 70 214 123 c 2
 350 633 l 2
 353 644 355 653 355 658 c 0
 355 670 345 675 322 675 c 2
 308 675 l 2
 254 675 207 650 167 598 c 0
 140 564 130 547 81 458 c 1
 40 464 l 1
 128 722 l 1
 726 722 l 1
EndSplineSet
EndChar

StartChar: U
Encoding: 85 85 54
Width: 815
Flags: MW
LayerCount: 2
Fore
SplineSet
100 675 m 1
 105 722 l 1
 423 722 l 1
 417 675 l 1
 413 675 l 2
 364 675 340 671 330 661 c 0
 321 653 321 653 307 599 c 2
 217 266 l 2
 210 238 203 189 203 163 c 0
 203 78 262 28 364 28 c 0
 441 28 499 56 538 112 c 0
 562 146 574 179 603 290 c 2
 661 505 l 1
 683 594 684 598 684 620 c 0
 684 657 657 675 596 675 c 2
 591 675 l 1
 597 722 l 1
 860 722 l 1
 855 675 l 1
 767 671 758 660 715 505 c 1
 659 294 l 2
 632 192 632 192 618 157 c 0
 587 76 548 33 483 8 c 0
 444 -7 394 -15 343 -15 c 0
 180 -15 93 52 93 176 c 0
 93 210 97 236 113 294 c 2
 195 599 l 2
 200 619 204 640 204 648 c 0
 204 670 190 675 125 675 c 2
 100 675 l 1
EndSplineSet
EndChar

StartChar: V
Encoding: 86 86 55
Width: 704
Flags: MW
LayerCount: 2
Fore
SplineSet
334 155 m 1
 557 556 l 2
 580 596 588 617 588 634 c 0
 588 663 566 675 513 675 c 2
 495 675 l 1
 500 722 l 1
 772 722 l 1
 767 675 l 1
 696 668 671 645 593 513 c 1
 296 -15 l 1
 259 -15 l 1
 142 577 l 2
 126 657 112 675 64 675 c 2
 36 675 l 1
 43 722 l 1
 338 722 l 1
 333 675 l 1
 299 675 l 2
 250 675 239 669 239 643 c 0
 239 634 242 614 247 591 c 2
 334 155 l 1
EndSplineSet
EndChar

StartChar: W
Encoding: 87 87 56
Width: 926
Flags: MW
LayerCount: 2
Fore
SplineSet
630 196 m 1
 793 572 l 2
 809 610 816 631 816 644 c 0
 816 665 795 675 752 675 c 2
 735 675 l 1
 740 722 l 1
 973 722 l 1
 968 675 l 1
 900 660 880 638 833 532 c 2
 595 -15 l 1
 557 -15 l 1
 487 490 l 1
 260 -15 l 1
 225 -15 l 1
 146 587 l 2
 141 624 134 652 127 659 c 0
 118 670 101 675 79 675 c 2
 53 675 l 1
 58 722 l 1
 325 722 l 1
 319 675 l 1
 301 675 l 2
 259 675 244 667 244 645 c 0
 244 639 244 634 249 599 c 2
 303 196 l 1
 471 579 l 1
 464 629 l 2
 458 672 452 675 389 675 c 2
 376 675 l 1
 381 722 l 1
 659 722 l 1
 654 675 l 1
 635 675 l 2
 586 675 574 669 574 648 c 0
 574 639 575 631 576 621 c 2
 630 196 l 1
EndSplineSet
EndChar

StartChar: X
Encoding: 88 88 57
Width: 704
Flags: MW
LayerCount: 2
Fore
SplineSet
406 392 m 1
 522 120 l 2
 552 51 558 47 624 47 c 2
 650 47 l 1
 645 0 l 1
 324 0 l 1
 330 47 l 1
 361 47 l 2
 409 47 422 52 422 70 c 0
 422 76 420 86 416 95 c 2
 326 309 l 1
 175 150 l 2
 150 124 136 100 136 82 c 0
 136 59 160 47 204 47 c 2
 219 47 l 1
 213 0 l 1
 -73 0 l 1
 -68 47 l 1
 1 56 31 74 106 153 c 2
 303 360 l 1
 199 605 l 2
 172 668 161 675 96 675 c 2
 72 675 l 1
 77 722 l 1
 392 722 l 1
 387 675 l 1
 369 675 l 2
 323 675 302 666 302 647 c 0
 302 640 303 637 312 615 c 2
 384 443 l 1
 506 568 l 2
 541 605 554 626 554 646 c 0
 554 666 537 675 502 675 c 2
 482 675 l 1
 487 722 l 1
 770 722 l 1
 765 675 l 1
 695 673 665 656 588 578 c 2
 406 392 l 1
EndSplineSet
EndChar

StartChar: Y
Encoding: 89 89 58
Width: 685
Flags: MW
LayerCount: 2
Fore
SplineSet
362 364 m 1
 532 582 l 2
 548 601 558 623 558 636 c 0
 558 660 534 675 494 675 c 2
 471 675 l 1
 476 722 l 1
 758 722 l 1
 753 675 l 1
 681 671 652 652 582 564 c 2
 382 308 l 1
 332 123 l 1
 322 82 322 82 322 74 c 0
 322 52 336 47 402 47 c 2
 438 47 l 1
 433 0 l 1
 86 0 l 1
 92 47 l 1
 114 47 l 2
 163 47 187 51 197 61 c 0
 206 69 206 70 220 123 c 2
 270 308 l 1
 150 606 l 2
 127 662 108 675 49 675 c 2
 32 675 l 1
 37 722 l 1
 345 722 l 1
 340 675 l 1
 312 675 l 2
 268 675 251 668 251 651 c 0
 251 643 255 630 262 613 c 2
 362 364 l 1
EndSplineSet
EndChar

StartChar: Z
Encoding: 90 90 59
Width: 667
Flags: MW
LayerCount: 2
Fore
SplineSet
667 722 m 1
 661 683 l 1
 127 47 l 1
 262 47 l 2
 360 47 421 68 473 120 c 0
 507 154 526 183 569 268 c 1
 611 256 l 1
 529 0 l 1
 -25 0 l 1
 -19 38 l 1
 514 675 l 1
 418 675 l 2
 335 675 279 662 241 633 c 0
 204 606 194 592 135 492 c 0
 131 484 127 477 124 472 c 1
 83 483 l 1
 164 722 l 1
 667 722 l 1
EndSplineSet
EndChar

StartChar: bracketleft
Encoding: 91 91 60
Width: 333
Flags: MW
LayerCount: 2
Fore
SplineSet
61 -76 m 1
 207 -76 l 1
 198 -108 l 1
 -33 -108 l 1
 190 722 l 1
 410 722 l 1
 401 689 l 1
 266 689 l 1
 61 -76 l 1
EndSplineSet
EndChar

StartChar: backslash
Encoding: 92 92 61
Width: 606
Flags: MW
LayerCount: 2
Fore
SplineSet
143 708 m 1
 522 0 l 1
 468 0 l 1
 89 708 l 1
 143 708 l 1
EndSplineSet
EndChar

StartChar: bracketright
Encoding: 93 93 62
Width: 333
Flags: MW
LayerCount: 2
Fore
SplineSet
265 690 m 1
 119 690 l 1
 128 722 l 1
 359 722 l 1
 136 -108 l 1
 -83 -108 l 1
 -74 -75 l 1
 60 -75 l 1
 265 690 l 1
EndSplineSet
EndChar

StartChar: asciicircum
Encoding: 94 94 63
Width: 606
Flags: MW
LayerCount: 2
Fore
SplineSet
554 318 m 1
 467 318 l 1
 304 629 l 1
 139 318 l 1
 52 318 l 1
 261 722 l 1
 346 722 l 1
 554 318 l 1
EndSplineSet
EndChar

StartChar: underscore
Encoding: 95 95 64
Width: 500
Flags: MW
LayerCount: 2
Fore
SplineSet
0 -81 m 1
 500 -81 l 1
 500 -123 l 1
 0 -123 l 1
 0 -81 l 1
EndSplineSet
EndChar

StartChar: grave
Encoding: 96 96 65
Width: 333
Flags: MW
LayerCount: 2
Fore
SplineSet
263 519 m 1
 222 519 l 1
 88 626 l 2
 79 633 73 643 73 652 c 0
 73 672 92 691 112 691 c 0
 126 691 132 687 150 663 c 2
 263 519 l 1
EndSplineSet
EndChar

StartChar: a
Encoding: 97 97 66
Width: 574
Flags: MW
LayerCount: 2
Fore
SplineSet
396 455 m 1
 483 455 l 1
 383 119 l 2
 376 94 372 75 372 65 c 0
 372 51 382 40 393 40 c 0
 419 40 454 82 492 158 c 1
 523 141 l 1
 511 114 494 86 474 58 c 0
 439 9 401 -15 357 -15 c 0
 321 -15 296 11 296 50 c 0
 296 60 297 67 301 82 c 1
 251 10 211 -15 149 -15 c 0
 60 -15 1 50 1 148 c 0
 1 228 31 312 82 378 c 0
 129 438 186 470 247 470 c 0
 312 470 362 427 369 365 c 1
 396 455 l 1
264 415 m 0
 234 415 206 403 184 380 c 0
 131 326 92 222 92 134 c 0
 92 73 122 36 172 36 c 0
 222 36 258 64 289 126 c 0
 320 189 340 269 340 326 c 0
 340 381 311 415 264 415 c 0
EndSplineSet
EndChar

StartChar: b
Encoding: 98 98 67
Width: 556
Flags: MW
LayerCount: 2
Fore
SplineSet
290 737 m 1
 184 379 l 1
 240 445 283 470 341 470 c 0
 430 470 488 403 488 300 c 0
 488 209 452 125 387 62 c 0
 332 9 273 -15 195 -15 c 0
 96 -15 32 41 32 128 c 0
 32 148 37 176 46 207 c 2
 166 611 l 2
 172 633 175 646 175 654 c 0
 175 677 159 686 118 686 c 2
 94 686 l 1
 98 722 l 1
 290 737 l 1
308 409 m 0
 258 409 214 378 176 318 c 1
 141 260 117 181 117 120 c 0
 117 59 149 23 203 23 c 0
 255 23 297 52 335 115 c 0
 369 172 389 241 389 305 c 0
 389 370 359 409 308 409 c 0
EndSplineSet
EndChar

StartChar: c
Encoding: 99 99 68
Width: 444
Flags: MW
LayerCount: 2
Fore
SplineSet
341 132 m 1
 370 110 l 1
 317 27 252 -15 177 -15 c 0
 73 -15 5 56 5 166 c 0
 5 326 131 470 271 470 c 0
 343 470 401 422 401 362 c 0
 401 319 374 287 338 287 c 0
 307 287 285 307 285 336 c 0
 285 360 295 372 322 384 c 0
 333 388 338 393 338 399 c 0
 338 416 306 432 274 432 c 0
 230 432 194 408 159 358 c 0
 120 302 97 223 97 152 c 0
 97 77 131 33 190 33 c 0
 238 33 291 67 341 132 c 1
EndSplineSet
EndChar

StartChar: d
Encoding: 100 100 69
Width: 611
Flags: MW
LayerCount: 2
Fore
SplineSet
534 158 m 1
 564 140 l 1
 508 34 452 -15 389 -15 c 0
 345 -15 321 10 321 56 c 0
 321 60 321 70 322 78 c 1
 278 14 228 -15 160 -15 c 0
 67 -15 3 52 3 150 c 0
 3 316 137 470 281 470 c 0
 316 470 350 456 371 434 c 0
 382 422 388 412 396 388 c 1
 462 611 l 2
 468 631 471 645 471 655 c 0
 471 677 455 686 414 686 c 2
 383 686 l 1
 387 722 l 1
 586 737 l 1
 408 137 l 2
 398 102 393 79 393 65 c 0
 393 48 402 38 418 38 c 0
 451 38 476 64 534 158 c 1
284 425 m 0
 235 425 191 392 153 326 c 0
 121 270 100 197 100 140 c 0
 100 75 136 32 189 32 c 0
 237 32 279 65 312 129 c 0
 344 190 369 281 369 334 c 0
 369 387 333 425 284 425 c 0
EndSplineSet
EndChar

StartChar: e
Encoding: 101 101 70
Width: 444
Flags: MW
LayerCount: 2
Fore
SplineSet
339 116 m 1
 363 89 l 1
 309 19 244 -15 167 -15 c 0
 59 -15 -6 50 -6 158 c 0
 -6 321 126 470 272 470 c 0
 342 470 391 428 391 367 c 0
 391 309 348 258 271 224 c 0
 226 204 206 198 89 170 c 1
 88 157 87 143 87 136 c 0
 87 72 124 32 184 32 c 0
 236 32 280 55 339 116 c 1
94 209 m 1
 150 221 167 226 196 239 c 0
 268 271 307 318 307 373 c 0
 307 407 285 430 252 430 c 0
 178 430 117 344 94 209 c 1
EndSplineSet
EndChar

StartChar: f
Encoding: 102 102 71
Width: 333
Flags: MW
LayerCount: 2
Fore
SplineSet
219 455 m 1
 348 455 l 1
 334 408 l 1
 208 408 l 1
 146 161 l 2
 123 69 65 -122 42 -184 c 1
 -68 -202 l 1
 -6 -64 45 87 80 234 c 2
 121 408 l 1
 32 408 l 1
 45 455 l 1
 132 455 l 1
 157 547 173 589 202 636 c 0
 241 701 296 736 359 736 c 0
 423 736 470 698 470 646 c 0
 470 616 447 593 416 593 c 0
 387 593 364 613 364 638 c 0
 364 647 366 655 373 666 c 0
 379 676 380 680 380 684 c 0
 380 694 369 701 356 701 c 0
 319 701 292 674 268 615 c 0
 248 568 243 550 219 455 c 1
EndSplineSet
EndChar

StartChar: g
Encoding: 103 103 72
Width: 556
Flags: HMW
LayerCount: 2
Fore
SplineSet
376 55 m 2
 333.017 -90.0049 327.244 -100.4 298 -138 c 0
 263 -183 217 -217 94 -217 c 0
 -35 -217 -105 -140 -105 -91 c 0
 -105 -56 -82 -31 -49 -31 c 0
 -21 -31 -1 -50 -1 -78 c 0
 -1 -88 -2 -92 -9 -105 c 0
 -12 -110 -14 -115 -14 -119 c 0
 -14 -128 4 -173 104 -173 c 0
 194 -173 244 -126 272 -17 c 0
 282 24 284.773 40.7471 289 55 c 1
 244 7 202 -14 151 -14 c 0
 112 -14 67 3 42 29 c 1
 16 54 0 99 0 145 c 0
 0 314 130 470 271 470 c 0
 323 470 366 446 399 401 c 1
 460 470 l 1
 499 470 l 1
 376 55 l 2
276 431 m 0
 228 431 178 390 141 319 c 0
 114 268 95 192 95 138 c 0
 95 76 127 34 173 34 c 0
 226 34 277 77 312 153 c 0
 336 205 356 287 356 336 c 0
 356 392 323 431 276 431 c 0
EndSplineSet
EndChar

StartChar: h
Encoding: 104 104 73
Width: 611
Flags: MW
LayerCount: 2
Fore
SplineSet
305 737 m 1
 186 335 l 1
 254 429 312 470 374 470 c 0
 431 470 475 428 475 372 c 0
 475 344 467 305 451 260 c 2
 404 122 l 2
 388 77 385 66 385 55 c 0
 385 44 393 36 403 36 c 0
 434 36 475 75 526 154 c 1
 555 133 l 1
 501 38 435 -15 373 -15 c 0
 333 -15 303 17 303 60 c 0
 303 81 308 103 321 143 c 2
 374 299 l 2
 384 330 389 352 389 369 c 0
 389 393 371 410 345 410 c 0
 298 410 248 374 202 307 c 0
 166 255 154 226 128 139 c 2
 87 0 l 1
 0 0 l 1
 181 611 l 2
 187 632 190 646 190 655 c 0
 190 677 174 686 133 686 c 2
 102 686 l 1
 106 722 l 1
 305 737 l 1
EndSplineSet
EndChar

StartChar: i
Encoding: 105 105 74
Width: 333
Flags: HMW
LayerCount: 2
Fore
SplineSet
213 714 m 0
 243 714 267 690 267 660 c 0
 267 630 243 606 212 606 c 0
 183 606 159 631 159 660 c 0
 159 690 183 714 213 714 c 0
EndSplineSet
Refer: 241 305 N 1 0 0 1 0 0 2
EndChar

StartChar: j
Encoding: 106 106 75
Width: 315
Flags: HMW
LayerCount: 2
Fore
SplineSet
263 714 m 0
 293 714 317 690 317 660 c 0
 317 630 293 606 262 606 c 0
 233 606 209 631 209 660 c 0
 209 690 233 714 263 714 c 0
EndSplineSet
Refer: 345 567 N 1 0 0 1 0 0 2
EndChar

StartChar: k
Encoding: 107 107 76
Width: 556
Flags: MW
LayerCount: 2
Fore
SplineSet
300 737 m 1
 176 319 l 1
 244 424 304 470 373 470 c 0
 428 470 471 430 471 379 c 0
 471 312 406 254 288 212 c 1
 320 186 331 160 336 90 c 0
 339 50 343 41 357 41 c 0
 381 41 404 66 461 154 c 1
 492 134 l 1
 430 30 380 -15 325 -15 c 0
 275 -15 251 18 251 85 c 0
 251 89 251 108 252 134 c 1
 252 171 l 2
 252 189 247 198 236 198 c 0
 234 198 234 198 216 196 c 0
 209 195 204 195 202 195 c 0
 190 195 180 205 180 217 c 0
 180 234 191 244 211 244 c 0
 219 244 231 242 238 239 c 0
 244 237 249 236 251 236 c 0
 258 236 271 241 293 252 c 0
 361 286 390 318 390 359 c 0
 390 388 370 410 344 410 c 0
 306 410 254 374 210 318 c 0
 178 277 140 197 120 130 c 2
 82 0 l 1
 -5 0 l 1
 176 611 l 2
 182 633 185 645 185 655 c 0
 185 677 169 686 128 686 c 2
 97 686 l 1
 101 722 l 1
 300 737 l 1
EndSplineSet
EndChar

StartChar: l
Encoding: 108 108 77
Width: 333
Flags: MW
LayerCount: 2
Fore
SplineSet
294 737 m 1
 109 112 l 2
 96 69 96 68 96 57 c 0
 96 45 103 36 114 36 c 0
 142 36 187 80 237 157 c 1
 268 140 l 1
 208 38 144 -15 81 -15 c 0
 41 -15 16 12 16 55 c 0
 16 86 19 102 43 182 c 2
 170 611 l 2
 176 631 179 645 179 655 c 0
 179 677 163 686 122 686 c 2
 91 686 l 1
 95 722 l 1
 294 737 l 1
EndSplineSet
EndChar

StartChar: m
Encoding: 109 109 78
Width: 889
Flags: MW
LayerCount: 2
Fore
SplineSet
230 470 m 1
 201 335 l 1
 271 435 317 470 380 470 c 0
 435 470 477 430 477 377 c 0
 477 365 475 348 471 329 c 1
 529 423 593 470 664 470 c 0
 718 470 757 432 757 379 c 0
 757 358 752 326 745 304 c 2
 682 110 l 2
 673 81 670 70 670 61 c 0
 670 48 680 36 691 36 c 0
 717 36 753 73 806 152 c 1
 837 131 l 1
 795 70 781 53 761 33 c 0
 727 1 695 -15 662 -15 c 0
 616 -15 584 13 584 55 c 0
 584 83 585 89 612 167 c 1
 658 309 l 2
 667 337 672 359 672 373 c 0
 672 396 658 410 633 410 c 0
 595 410 544 376 508 327 c 0
 476 284 451 228 426 145 c 2
 383 0 l 1
 296 0 l 1
 376 271 l 2
 388 309 396 351 396 371 c 0
 396 396 380 410 354 410 c 0
 279 410 188 294 143 141 c 2
 102 0 l 1
 15 0 l 1
 117 344 l 2
 122 362 125 378 125 387 c 0
 125 410 109 419 69 419 c 2
 45 419 l 1
 48 455 l 1
 230 470 l 1
EndSplineSet
EndChar

StartChar: n
Encoding: 110 110 79
Width: 611
Flags: MW
LayerCount: 2
Fore
SplineSet
229 470 m 1
 200 335 l 1
 267 427 326 470 385 470 c 0
 438 470 481 426 481 373 c 0
 481 344 473 305 457 260 c 2
 410 122 l 2
 394 78 391 66 391 55 c 0
 391 44 399 36 409 36 c 0
 440 36 483 77 533 156 c 1
 562 135 l 1
 506 38 442 -15 379 -15 c 0
 339 -15 309 17 309 59 c 0
 309 81 314 104 327 143 c 2
 380 299 l 2
 390 330 395 352 395 369 c 0
 395 392 378 410 355 410 c 0
 312 410 259 371 216 307 c 0
 180 254 168 226 142 139 c 2
 101 0 l 1
 14 0 l 1
 116 344 l 2
 122 366 125 379 125 388 c 0
 125 410 109 419 68 419 c 2
 44 419 l 1
 48 455 l 1
 229 470 l 1
EndSplineSet
EndChar

StartChar: o
Encoding: 111 111 80
Width: 500
Flags: MW
LayerCount: 2
Fore
SplineSet
273 470 m 0
 370 470 450 385 450 281 c 0
 450 207 418 127 365 67 c 0
 317 13 255 -15 183 -15 c 0
 74 -15 5 58 5 172 c 0
 5 255 34 327 89 384 c 0
 143 440 208 470 273 470 c 0
268 432 m 0
 230 432 198 414 170 378 c 0
 129 323 95 211 95 128 c 0
 95 60 126 23 184 23 c 0
 237 23 274 53 308 122 c 0
 335 177 355 257 355 309 c 0
 355 386 323 432 268 432 c 0
EndSplineSet
EndChar

StartChar: p
Encoding: 112 112 81
Width: 574
Flags: MW
LayerCount: 2
Fore
SplineSet
234 470 m 1
 219 385 l 1
 264 440 317 470 368 470 c 0
 407 470 447 450 473 418 c 0
 496 389 506 356 506 307 c 0
 506 225 477 142 426 78 c 1
 378 16 316 -15 246 -15 c 0
 180 -15 154 4 127 73 c 1
 78 -90 l 2
 71 -115 67 -132 67 -140 c 0
 67 -160 83 -166 131 -166 c 2
 143 -166 l 1
 139 -202 l 1
 -101 -202 l 1
 -97 -166 l 1
 -29 -163 -28 -162 -8 -90 c 1
 120 344 l 2
 126 363 129 378 129 388 c 0
 129 410 113 419 72 419 c 2
 48 419 l 1
 52 455 l 1
 234 470 l 1
337 417 m 0
 297 417 255 389 222 339 c 0
 184 281 153 185 153 127 c 0
 153 74 188 35 237 35 c 0
 290 35 330 69 365 144 c 0
 395 206 412 274 412 329 c 0
 412 382 382 417 337 417 c 0
EndSplineSet
EndChar

StartChar: q
Encoding: 113 113 82
Width: 556
Flags: MW
LayerCount: 2
Fore
SplineSet
499 470 m 5
 333 -90 l 6
 327 -111 322 -132 322 -140 c 4
 322 -160 338 -166 386 -166 c 6
 394 -166 l 5
 390 -202 l 5
 144 -202 l 5
 148 -166 l 5
 225 -164 226 -163 246 -90 c 5
 289 55 l 5
 244 7 202 -14 151 -14 c 4
 112 -14 67 3 42 29 c 5
 16 54 0 99 0 145 c 4
 0 314 130 470 271 470 c 4
 323 470 366 446 399 401 c 5
 460 470 l 5
 499 470 l 5
276 431 m 4
 228 431 178 390 141 319 c 4
 114 268 95 192 95 138 c 4
 95 76 127 34 173 34 c 4
 226 34 277 77 312 153 c 4
 336 205 356 287 356 336 c 4
 356 392 323 431 276 431 c 4
EndSplineSet
EndChar

StartChar: r
Encoding: 114 114 83
Width: 444
Flags: MW
LayerCount: 2
Fore
SplineSet
224 470 m 1
 201 354 l 1
 254 436 298 470 354 470 c 0
 400 470 433 439 433 396 c 0
 433 359 408 332 374 332 c 0
 355 332 339 340 331 354 c 0
 327 360 327 363 327 386 c 0
 327 401 321 409 309 409 c 0
 263 409 180 283 143 158 c 2
 96 0 l 1
 9 0 l 1
 111 344 l 2
 116 362 121 384 121 391 c 0
 121 410 103 419 63 419 c 2
 39 419 l 1
 43 455 l 1
 224 470 l 1
EndSplineSet
EndChar

StartChar: s
Encoding: 115 115 84
Width: 444
Flags: MW
LayerCount: 2
Fore
SplineSet
244 470 m 0
 330 470 392 427 392 366 c 0
 392 330 369 305 335 305 c 0
 305 305 283 324 283 351 c 0
 283 366 285 371 299 391 c 0
 302 396 304 401 304 405 c 0
 304 421 277 432 239 432 c 0
 181 432 137 398 137 352 c 0
 137 313 154 297 219 274 c 0
 274 254 284 249 306 235 c 0
 338 213 356 178 356 139 c 0
 356 48 277 -15 162 -15 c 0
 62 -15 -1 28 -1 98 c 0
 -1 137 24 165 57 165 c 0
 86 165 108 143 108 115 c 0
 108 97 105 92 87 72 c 0
 83 69 80 62 80 57 c 0
 80 37 116 23 167 23 c 0
 236 23 281 58 281 111 c 0
 281 145 267 160 210 183 c 0
 169 199 148 209 132 217 c 0
 88 240 63 277 63 319 c 0
 63 406 139 470 244 470 c 0
EndSplineSet
EndChar

StartChar: t
Encoding: 116 116 85
Width: 352
Flags: MW
LayerCount: 2
Fore
SplineSet
269 621 m 1
 220 455 l 1
 329 455 l 1
 315 408 l 1
 206 408 l 1
 111 89 l 2
 109 81 108 74 108 66 c 0
 108 49 117 38 131 38 c 0
 164 38 193 66 255 160 c 1
 285 140 l 1
 259 98 249 82 235 63 c 0
 200 16 144 -15 97 -15 c 0
 57 -15 25 19 25 61 c 0
 25 83 30 106 44 156 c 2
 119 408 l 1
 25 408 l 1
 39 455 l 1
 133 455 l 1
 182 621 l 1
 269 621 l 1
EndSplineSet
EndChar

StartChar: u
Encoding: 117 117 86
Width: 611
Flags: MW
LayerCount: 2
Fore
SplineSet
509 455 m 1
 410 123 l 2
 402 94 398 75 398 64 c 0
 398 51 407 40 417 40 c 0
 437 40 477 81 526 153 c 1
 556 135 l 1
 485 25 436 -15 375 -15 c 0
 338 -15 311 13 311 51 c 0
 311 70 313 84 323 119 c 1
 264 27 207 -14 137 -14 c 0
 81 -14 42 23 42 78 c 0
 42 109 42 109 73 209 c 1
 113 344 l 2
 118 362 121 378 121 387 c 0
 121 410 106 419 65 419 c 2
 41 419 l 1
 44 455 l 1
 237 470 l 1
 139 142 l 2
 131 115 128 97 128 85 c 0
 128 61 147 42 171 42 c 0
 242 42 334 156 375 295 c 2
 422 455 l 1
 509 455 l 1
EndSplineSet
EndChar

StartChar: v
Encoding: 118 118 87
Width: 519
Flags: MW
LayerCount: 2
Fore
SplineSet
222 470 m 1
 154 239 l 2
 136 179 130 147 130 115 c 0
 130 71 159 37 196 37 c 0
 248 37 304 87 343 168 c 0
 369 221 387 283 387 317 c 0
 387 339 383 347 359 374 c 0
 344 391 338 404 338 420 c 0
 338 447 358 470 383 470 c 0
 418 470 445 435 445 391 c 0
 445 313 408 195 358 114 c 0
 304 28 242 -16 172 -16 c 0
 100 -16 45 41 45 115 c 0
 45 146 52 188 64 229 c 2
 98 344 l 2
 104 362 108 383 108 390 c 0
 108 410 90 419 51 419 c 2
 34 419 l 1
 37 455 l 1
 222 470 l 1
EndSplineSet
EndChar

StartChar: w
Encoding: 119 119 88
Width: 778
Flags: MW
LayerCount: 2
Fore
SplineSet
225 470 m 1
 138 177 l 2
 118 110 118 108 118 86 c 0
 118 59 141 38 170 38 c 0
 204 38 238 62 274 113 c 0
 314 168 343 227 361 288 c 2
 411 455 l 1
 498 455 l 1
 433 239 l 2
 417 183 410 145 410 109 c 0
 410 65 431 38 465 38 c 0
 512 38 559 82 604 166 c 0
 630 216 649 280 649 318 c 0
 649 339 645 347 621 374 c 0
 605 392 600 403 600 420 c 0
 600 448 620 470 646 470 c 0
 681 470 708 435 708 391 c 0
 708 309 667 186 613 102 c 0
 560 21 507 -15 439 -15 c 0
 373 -15 331 27 331 93 c 0
 331 104 332 118 333 134 c 1
 297 80 282 62 257 37 c 0
 224 3 182 -15 139 -15 c 0
 74 -15 32 23 32 82 c 0
 32 102 37 128 49 167 c 2
 101 344 l 2
 106 360 109 378 109 387 c 0
 109 410 94 419 53 419 c 2
 36 419 l 1
 40 455 l 1
 225 470 l 1
EndSplineSet
EndChar

StartChar: x
Encoding: 120 120 89
Width: 500
Flags: MW
LayerCount: 2
Fore
SplineSet
201 155 m 1
 171 101 l 2
 128 25 81 -15 33 -15 c 0
 -7 -15 -33 10 -33 47 c 0
 -33 81 -12 105 18 105 c 0
 43 105 56 93 61 66 c 0
 63 53 69 46 76 46 c 0
 92 46 117 74 145 125 c 2
 190 205 l 1
 178 263 l 2
 158 362 158 362 149 378 c 0
 145 386 135 393 128 393 c 0
 111 393 97 378 46 305 c 1
 17 326 l 1
 62 391 76 411 92 429 c 0
 117 457 139 470 161 470 c 0
 202 470 224 437 241 351 c 2
 252 296 l 1
 281 348 l 2
 315 411 316 411 336 433 c 0
 357 456 387 470 414 470 c 0
 447 470 471 444 471 409 c 0
 471 376 452 355 421 355 c 0
 403 355 396 360 387 380 c 0
 383 389 378 393 370 393 c 0
 352 393 331 371 307 326 c 2
 263 245 l 1
 282 150 l 1
 300 68 310 46 333 46 c 0
 351 46 368 61 397 100 c 0
 412 121 415 126 425 142 c 1
 456 125 l 1
 430 79 427 74 409 53 c 0
 363 -3 345 -15 308 -15 c 0
 259 -15 233 13 216 88 c 2
 201 155 l 1
EndSplineSet
EndChar

StartChar: y
Encoding: 121 121 90
Width: 500
Flags: MW
LayerCount: 2
Fore
SplineSet
220 315 m 2
 264 104 l 1
 329 207 368 301 368 351 c 0
 368 366 368 369 362 403 c 0
 361 409 360 415 360 420 c 0
 360 447 382 470 409 470 c 0
 436 470 454 449 454 418 c 0
 454 385 442 354 385 244 c 0
 310 98 231 -34 184 -94 c 0
 125 -168 71 -202 13 -202 c 0
 -39 -202 -79 -169 -79 -128 c 0
 -79 -98 -56 -74 -27 -74 c 0
 -8 -74 9 -86 16 -105 c 0
 19 -113 19 -113 19 -144 c 0
 19 -154 26 -160 38 -160 c 0
 65 -160 104 -132 144 -83 c 0
 161 -61 168 -51 201 1 c 1
 179 127 161 211 130 325 c 0
 119 368 106 389 92 389 c 0
 75 389 64 373 27 293 c 1
 -4 307 l 1
 37 415 82 470 126 470 c 0
 169 470 197 424 220 315 c 2
EndSplineSet
EndChar

StartChar: z
Encoding: 122 122 91
Width: 463
Flags: MW
LayerCount: 2
Fore
SplineSet
353 151 m 1
 388 139 l 1
 357 45 294 -15 226 -15 c 0
 191 -15 155 -5 107 17 c 0
 42 48 42 48 30 48 c 0
 22 48 21 47 21 31 c 0
 21 2 10 -15 -9 -15 c 0
 -24 -15 -33 -6 -33 9 c 0
 -33 39 -7 86 39 137 c 0
 96 199 119 217 266 308 c 0
 304 332 315 342 340 368 c 1
 315 362 303 360 289 360 c 0
 259 360 252 361 197 380 c 0
 171 388 147 394 137 394 c 0
 112 394 86 369 55 314 c 1
 22 331 l 1
 70 425 123 470 187 470 c 0
 209 470 226 464 271 442 c 0
 301 427 326 419 343 419 c 0
 357 419 363 424 369 445 c 0
 374 462 382 470 393 470 c 0
 407 470 417 460 417 447 c 0
 417 421 385 366 338 313 c 0
 289 257 248 225 171 181 c 0
 92 135 73 121 50 92 c 1
 74 99 86 101 99 101 c 0
 127 101 139 98 200 77 c 0
 228 67 253 61 267 61 c 0
 300 61 326 89 353 151 c 1
EndSplineSet
EndChar

StartChar: braceleft
Encoding: 123 123 92
Width: 333
Flags: MW
LayerCount: 2
Fore
SplineSet
56 293 m 1
 63 321 l 1
 128 340 150 367 170 454 c 1
 202 572 l 2
 220 638 239 674 270 695 c 0
 293 711 335 722 371 722 c 2
 381 722 l 1
 373 693 l 1
 318 687 292 655 267 560 c 2
 232 432 l 2
 210 354 184 323 124 307 c 1
 160 293 176 273 176 242 c 0
 176 228 173 210 163 175 c 2
 134 64 l 2
 124 28 119 0 119 -20 c 0
 119 -55 137 -77 169 -79 c 1
 161 -108 l 1
 140 -108 l 2
 85 -108 52 -76 52 -21 c 0
 52 4 56 28 69 74 c 2
 92 162 l 2
 104 206 105 212 105 231 c 0
 105 261 89 282 56 293 c 1
EndSplineSet
EndChar

StartChar: bar
Encoding: 124 124 93
Width: 606
Flags: MW
LayerCount: 2
Fore
SplineSet
337 722 m 1
 337 0 l 1
 269 0 l 1
 269 722 l 1
 337 722 l 1
EndSplineSet
EndChar

StartChar: braceright
Encoding: 125 125 94
Width: 333
Flags: MW
LayerCount: 2
Fore
SplineSet
227 321 m 1
 219 293 l 1
 155 275 132 247 111 160 c 1
 80 42 l 2
 62 -24 42 -60 11 -81 c 0
 -11 -97 -53 -108 -90 -108 c 2
 -98 -108 l 1
 -90 -79 l 1
 -36 -73 -10 -41 15 54 c 2
 50 182 l 2
 71 260 98 291 157 307 c 1
 122 321 106 341 106 372 c 0
 106 387 109 405 118 439 c 2
 148 550 l 2
 158 586 163 615 163 635 c 0
 163 669 144 691 113 693 c 1
 121 722 l 1
 142 722 l 2
 195 722 231 689 231 639 c 0
 231 617 225 585 213 540 c 2
 190 452 l 2
 178 408 177 402 177 383 c 0
 177 353 195 330 227 321 c 1
EndSplineSet
EndChar

StartChar: asciitilde
Encoding: 126 126 95
Width: 606
Flags: MW
LayerCount: 2
Fore
SplineSet
94 182 m 1
 41 220 l 1
 78 285 133 327 181 327 c 0
 206 327 228 320 280 295 c 2
 326 273 l 2
 379 247 386 245 406 245 c 0
 434 245 465 269 492 310 c 1
 545 272 l 1
 508 207 453 165 405 165 c 0
 380 165 356 173 306 196 c 1
 260 219 l 1
 202 246 200 247 180 247 c 0
 152 247 121 223 94 182 c 1
EndSplineSet
EndChar

StartChar: exclamdown
Encoding: 161 161 97
Width: 333
Flags: MW
LayerCount: 2
Fore
SplineSet
169 352 m 1
 205 342 l 1
 156 158 135 40 126 -92 c 0
 121 -162 93 -203 53 -203 c 0
 17 -203 -7 -179 -7 -145 c 0
 -7 -116 -6 -113 43 -9 c 1
 91 96 124 190 169 352 c 1
219 549 m 0
 252 549 280 521 280 487 c 0
 280 453 252 425 218 425 c 0
 184 425 156 453 156 487 c 0
 156 522 184 549 219 549 c 0
EndSplineSet
EndChar

StartChar: cent
Encoding: 162 162 98
Width: 556
Flags: MW
LayerCount: 2
Fore
SplineSet
222 -14 m 1
 168 -135 l 1
 125 -135 l 1
 182 -8 l 1
 107 14 61 81 61 167 c 0
 61 328 188 469 332 469 c 0
 351 469 366 466 388 457 c 1
 443 581 l 1
 486 581 l 1
 422 436 l 1
 446 415 457 392 457 363 c 0
 457 320 429 289 391 289 c 0
 378 289 370 291 361 298 c 1
 244 35 l 1
 308 42 340 63 397 135 c 1
 428 113 l 1
 372 31 303 -14 231 -14 c 2
 222 -14 l 1
205 46 m 1
 344 357 l 2
 352 376 360 383 378 387 c 0
 391 390 393 391 393 400 c 0
 393 417 362 432 328 432 c 0
 278 432 237 398 201 326 c 0
 171 266 156 210 156 156 c 0
 156 103 173 66 205 46 c 1
EndSplineSet
EndChar

StartChar: sterling
Encoding: 163 163 99
Width: 556
Flags: MW
LayerCount: 2
Fore
SplineSet
410 368 m 1
 405 325 l 1
 273 325 l 1
 273 320 l 2
 273 252 255 175 222 105 c 1
 270 80 309 69 350 69 c 0
 409 69 450 93 487 150 c 1
 522 136 l 1
 480 32 421 -15 334 -15 c 0
 283 -15 250 -2 186 45 c 1
 145 0 119 -15 76 -15 c 0
 27 -15 -8 19 -8 65 c 0
 -8 112 30 150 79 150 c 0
 104 150 133 143 169 129 c 1
 180 164 184 185 184 222 c 0
 184 252 182 275 176 325 c 1
 50 325 l 1
 55 368 l 1
 172 368 l 1
 170 403 170 410 170 424 c 0
 170 501 187 563 220 610 c 0
 262 669 329 704 400 704 c 0
 484 704 545 654 545 585 c 0
 545 533 516 497 474 497 c 0
 441 497 418 519 418 550 c 0
 418 571 427 588 448 603 c 0
 468 618 470 620 470 630 c 0
 470 652 446 666 410 666 c 0
 351 666 304 623 286 553 c 0
 278 523 273 469 273 414 c 0
 273 404 273 388 274 368 c 1
 410 368 l 1
149 75 m 1
 119 100 100 109 76 109 c 0
 51 109 31 90 31 65 c 0
 31 39 50 22 78 22 c 0
 109 22 132 39 149 75 c 1
EndSplineSet
EndChar

StartChar: currency
Encoding: 164 164 100
Width: 556
Flags: MW
LayerCount: 2
Fore
SplineSet
425 545 m 1
 479 598 l 1
 530 547 l 1
 477 494 l 1
 511 450 529 397 529 342 c 0
 529 289 512 239 479 195 c 1
 530 145 l 1
 479 93 l 1
 428 144 l 1
 384 111 333 94 281 94 c 0
 228 94 174 112 130 146 c 1
 77 93 l 1
 25 145 l 1
 78 198 l 1
 44 243 26 295 26 349 c 0
 26 401 44 455 76 496 c 1
 25 547 l 1
 77 598 l 1
 127 547 l 1
 171 580 221 597 274 597 c 0
 328 597 380 579 425 545 c 1
278 515 m 0
 185 515 109 439 109 346 c 0
 109 253 185 176 276 176 c 0
 371 176 447 251 447 346 c 0
 447 439 371 515 278 515 c 0
EndSplineSet
EndChar

StartChar: yen
Encoding: 165 165 101
Width: 556
Flags: MW
LayerCount: 2
Fore
SplineSet
353 368 m 1
 473 368 l 1
 468 325 l 1
 322 325 l 1
 321 323 l 1
 300 245 l 1
 446 245 l 1
 441 202 l 1
 289 202 l 1
 267 123 l 1
 258 82 258 82 258 74 c 0
 258 52 273 47 337 47 c 2
 364 47 l 1
 359 0 l 1
 42 0 l 1
 47 47 l 1
 60 47 l 2
 108 47 133 51 143 61 c 0
 152 69 152 70 166 123 c 2
 188 202 l 1
 40 202 l 1
 45 245 l 1
 199 245 l 1
 220 323 l 1
 219 325 l 1
 73 325 l 1
 78 368 l 1
 204 368 l 1
 124 588 l 1
 108 635 82 657 44 657 c 2
 40 657 l 1
 45 704 l 1
 301 704 l 1
 296 657 l 1
 282 657 l 2
 237 657 220 650 220 633 c 0
 220 624 220 623 231 594 c 2
 307 379 l 1
 435 564 l 2
 456 593 461 604 461 619 c 0
 461 642 436 657 396 657 c 2
 387 657 l 1
 392 704 l 1
 623 704 l 1
 618 657 l 1
 557 644 541 631 479 545 c 2
 353 368 l 1
EndSplineSet
EndChar

StartChar: brokenbar
Encoding: 166 166 102
Width: 606
Flags: MW
LayerCount: 2
Fore
SplineSet
337 722 m 1
 337 400 l 1
 269 400 l 1
 269 722 l 1
 337 722 l 1
337 322 m 1
 337 0 l 1
 269 0 l 1
 269 322 l 1
 337 322 l 1
EndSplineSet
EndChar

StartChar: section
Encoding: 167 167 103
Width: 500
Flags: MW
LayerCount: 2
Fore
SplineSet
325 463 m 2
 382 388 l 2
 419 340 436 299 436 258 c 0
 436 182 377 124 301 124 c 0
 285 124 274 126 253 131 c 1
 292 66 304 33 304 -7 c 0
 304 -90 236 -150 143 -150 c 0
 55 -150 -11 -99 -11 -32 c 0
 -11 5 14 31 47 31 c 0
 79 31 102 9 102 -23 c 0
 102 -41 96 -54 80 -69 c 0
 72 -76 71 -79 71 -84 c 0
 71 -102 104 -118 138 -118 c 0
 187 -118 220 -84 220 -33 c 0
 220 10 205 40 147 117 c 1
 86 195 l 2
 47 246 31 286 31 331 c 0
 31 406 91 463 169 463 c 0
 186 463 197 461 218 454 c 1
 176 515 163 548 163 593 c 0
 163 681 228 737 329 737 c 0
 416 737 480 687 480 620 c 0
 480 583 457 556 423 556 c 0
 391 556 366 580 366 611 c 0
 366 633 372 643 397 664 c 0
 401 667 403 670 403 673 c 0
 403 690 370 705 334 705 c 0
 279 705 244 672 244 620 c 0
 244 581 263 543 325 463 c 2
134 290 m 1
 182 223 l 2
 221 170 239 157 277 157 c 0
 322 157 360 190 360 230 c 0
 360 256 347 288 322 320 c 1
 280 377 l 2
 255 410 219 430 184 430 c 0
 139 430 108 400 108 358 c 0
 108 338 117 312 134 290 c 1
EndSplineSet
EndChar

StartChar: copyright
Encoding: 169 169 105
Width: 747
Flags: MW
LayerCount: 2
Fore
SplineSet
517 541 m 1
 526 372 l 1
 491 372 l 1
 467 466 431 507 374 507 c 0
 306 507 270 446 270 330 c 0
 270 220 306 167 380 167 c 0
 445 167 482 206 496 287 c 1
 534 281 l 1
 520 182 465 129 374 129 c 0
 265 129 186 215 186 333 c 0
 186 450 270 545 374 545 c 0
 410 545 429 538 467 512 c 1
 487 541 l 1
 517 541 l 1
374 685 m 0
 567 685 724 528 724 336 c 0
 724 140 568 -15 370 -15 c 0
 181 -15 24 144 24 335 c 0
 24 528 181 685 374 685 c 0
374 642 m 0
 206 642 70 504 70 335 c 0
 70 168 207 28 370 28 c 0
 542 28 678 164 678 335 c 0
 678 504 542 642 374 642 c 0
EndSplineSet
EndChar

StartChar: ordfeminine
Encoding: 170 170 106
Width: 422
Flags: MW
LayerCount: 2
Fore
SplineSet
83 370 m 1
 366 370 l 1
 366 330 l 1
 83 330 l 1
 83 370 l 1
340 722 m 1
 396 722 l 1
 331 522 l 2
 326 506 324 496 324 490 c 0
 324 482 330 475 338 475 c 0
 354 475 373 495 403 545 c 1
 422 535 l 1
 392 475 354 442 315 442 c 0
 291 442 275 458 275 481 c 0
 275 486 276 490 278 500 c 1
 245 457 220 442 179 442 c 0
 121 442 83 481 83 539 c 0
 83 637 160 731 241 731 c 0
 285 731 317 706 322 668 c 1
 340 722 l 1
254 698 m 0
 234 698 216 691 202 677 c 0
 167 645 142 583 142 531 c 0
 142 494 162 472 194 472 c 0
 226 472 250 489 270 526 c 0
 289 562 303 611 303 645 c 0
 303 678 284 698 254 698 c 0
EndSplineSet
EndChar

StartChar: guillemotleft
Encoding: 171 171 107
Width: 426
Flags: MW
LayerCount: 2
Fore
SplineSet
263 233 m 1
 324 114 l 2
 325 110 326 107 326 102 c 0
 326 92 319 85 310 85 c 0
 305 85 300 89 292 100 c 2
 183 243 l 1
 369 387 l 2
 383 398 389 402 393 402 c 0
 398 402 402 396 402 389 c 0
 402 380 402 380 341 317 c 1
 263 233 l 1
65 233 m 1
 126 114 l 2
 127 110 128 107 128 102 c 0
 128 92 121 85 112 85 c 0
 107 85 102 89 94 100 c 2
 52 157 l 1
 -15 243 l 1
 62 302 l 1
 123 349 l 2
 142 364 159 377 171 387 c 0
 185 398 191 402 195 402 c 0
 200 402 204 396 204 389 c 0
 204 380 204 380 143 317 c 1
 65 233 l 1
EndSplineSet
EndChar

StartChar: logicalnot
Encoding: 172 172 108
Width: 606
Flags: MW
LayerCount: 2
Fore
SplineSet
41 293 m 1
 545 293 l 1
 545 0 l 1
 465 0 l 1
 465 213 l 1
 41 213 l 1
 41 293 l 1
EndSplineSet
EndChar

StartChar: registered
Encoding: 174 174 110
Width: 747
Flags: MW
LayerCount: 2
Fore
SplineSet
321 339 m 1
 321 223 l 2
 321 197 321 197 323 194 c 0
 326 191 339 189 363 189 c 2
 379 189 l 1
 379 151 l 1
 190 151 l 1
 190 189 l 1
 206 189 l 2
 230 189 243 191 246 194 c 0
 248 196 248 197 248 223 c 2
 248 479 l 2
 248 506 248 506 246 508 c 0
 243 512 231 513 206 513 c 2
 190 513 l 1
 190 551 l 1
 382 551 l 2
 477 551 530 514 530 449 c 0
 530 397 502 369 435 351 c 1
 466 335 479 317 490 272 c 2
 499 238 l 2
 509 200 511 197 520 197 c 0
 530 197 535 215 536 250 c 1
 571 250 l 1
 571 238 l 2
 571 178 545 143 498 143 c 0
 452 143 431 169 424 235 c 2
 421 262 l 2
 414 318 394 339 346 339 c 2
 321 339 l 1
321 377 m 1
 373 377 l 2
 426 377 451 400 451 448 c 0
 451 495 431 513 381 513 c 2
 351 513 l 2
 321 513 321 513 321 489 c 2
 321 377 l 1
373 685 m 0
 566 685 723 528 723 336 c 0
 723 140 567 -15 369 -15 c 0
 180 -15 23 144 23 335 c 0
 23 528 180 685 373 685 c 0
373 642 m 0
 205 642 69 504 69 335 c 0
 69 168 206 28 369 28 c 0
 541 28 677 164 677 336 c 0
 677 504 540 642 373 642 c 0
EndSplineSet
EndChar

StartChar: macron
Encoding: 175 175 111
Width: 333
Flags: MW
LayerCount: 2
Fore
SplineSet
62 610 m 1
 363 610 l 1
 352 559 l 1
 51 559 l 1
 62 610 l 1
EndSplineSet
EndChar

StartChar: degree
Encoding: 176 176 112
Width: 400
Flags: MW
LayerCount: 2
Fore
SplineSet
223 686 m 0
 306 686 370 619 370 533 c 0
 370 447 304 380 220 380 c 0
 136 380 70 448 70 534 c 0
 70 619 138 686 223 686 c 0
222 629 m 0
 168 629 126 586 126 533 c 0
 126 480 169 437 220 437 c 0
 272 437 313 479 313 533 c 0
 313 586 272 629 222 629 c 0
EndSplineSet
EndChar

StartChar: plusminus
Encoding: 177 177 113
Width: 606
Flags: MW
LayerCount: 2
Fore
SplineSet
249 288 m 1
 37 288 l 1
 37 368 l 1
 249 368 l 1
 249 581 l 1
 329 581 l 1
 329 368 l 1
 540 368 l 1
 540 288 l 1
 329 288 l 1
 329 113 l 1
 249 113 l 1
 249 288 l 1
37 0 m 1
 37 80 l 1
 540 80 l 1
 540 0 l 1
 37 0 l 1
EndSplineSet
EndChar

StartChar: twosuperior
Encoding: 178 178 114
Width: 333
Flags: MW
LayerCount: 2
Fore
SplineSet
280 288 m 1
 0 288 l 1
 5 325 29 348 203 488 c 0
 259 533 280 566 280 608 c 0
 280 648 251 674 207 674 c 0
 167 674 121 647 121 624 c 0
 121 618 123 616 137 609 c 0
 158 598 167 587 167 570 c 0
 167 547 148 529 123 529 c 0
 91 529 71 552 71 587 c 0
 71 653 143 710 225 710 c 0
 301 710 353 667 353 603 c 0
 353 556 331 520 280 483 c 0
 263 471 261 469 172 412 c 0
 127 383 97 361 83 345 c 1
 225 345 l 2
 254 345 262 350 284 388 c 2
 302 418 l 1
 331 407 l 1
 280 288 l 1
EndSplineSet
EndChar

StartChar: threesuperior
Encoding: 179 179 115
Width: 333
Flags: MW
LayerCount: 2
Fore
SplineSet
231 506 m 1
 276 492 301 462 301 421 c 0
 301 340 226 279 127 279 c 0
 49 279 1 316 1 375 c 0
 1 407 20 429 49 429 c 0
 73 429 93 411 93 390 c 0
 93 372 84 361 65 353 c 0
 56 349 54 347 54 343 c 0
 54 326 84 311 118 311 c 0
 183 311 226 360 226 432 c 0
 226 467 206 490 176 490 c 0
 171 490 162 489 153 488 c 0
 148 487 143 487 140 487 c 0
 127 487 118 494 118 505 c 0
 118 517 128 525 143 525 c 0
 144 525 145 525 165 524 c 0
 172 523 178 523 179 523 c 0
 221 523 261 571 261 621 c 0
 261 656 237 677 195 677 c 0
 167 677 136 663 136 651 c 0
 136 648 138 645 144 640 c 0
 154 630 158 622 158 611 c 0
 158 590 141 574 119 574 c 0
 94 574 76 592 76 618 c 0
 76 668 136 710 206 710 c 0
 279 710 331 670 331 613 c 0
 331 566 297 527 242 510 c 0
 236 508 232 506 231 506 c 1
EndSplineSet
EndChar

StartChar: acute
Encoding: 180 180 116
Width: 333
Flags: MW
LayerCount: 2
Fore
SplineSet
132 519 m 1
 270 659 l 2
 294 682 305 689 320 689 c 0
 339 689 355 673 355 654 c 0
 355 640 345 625 330 615 c 2
 171 519 l 1
 132 519 l 1
EndSplineSet
EndChar

StartChar: mu
Encoding: 181 181 117
Width: 611
Flags: MW
LayerCount: 2
Fore
SplineSet
41 419 m 1
 44 455 l 1
 237 470 l 1
 139 142 l 2
 131 115 128 97 128 85 c 0
 128 61 147 42 171 42 c 0
 242 42 334 156 375 295 c 2
 422 455 l 1
 509 455 l 1
 410 123 l 2
 402 94 398 75 398 64 c 0
 398 51 407 40 417 40 c 0
 437 40 477 81 526 153 c 1
 556 135 l 1
 485 25 436 -15 375 -15 c 0
 338 -15 311 13 311 51 c 0
 311 70 313 84 323 119 c 1
 265 28 207 -14 139 -14 c 0
 101 -14 78 0 60 32 c 1
 49 -4 49 -8 48 -48 c 0
 46 -119 44 -133 31 -164 c 0
 17 -195 -12 -219 -37 -219 c 0
 -56 -219 -70 -202 -70 -180 c 0
 -70 -150 -63 -132 -18 -56 c 1
 -1 -25 11 1 17 20 c 2
 113 344 l 2
 118 362 121 378 121 387 c 0
 121 410 106 419 65 419 c 2
 41 419 l 1
EndSplineSet
EndChar

StartChar: paragraph
Encoding: 182 182 118
Width: 650
Flags: MW
LayerCount: 2
Fore
SplineSet
279 324 m 1
 246 324 l 2
 145 324 95 367 95 455 c 0
 95 535 135 624 193 672 c 0
 225 699 264 714 315 720 c 0
 330 722 330 722 391 722 c 2
 645 722 l 1
 642 686 l 1
 602 684 590 681 580 672 c 0
 574 667 571 661 567 646 c 1
 564 638 l 1
 561 625 558 612 554 599 c 2
 388 -21 l 2
 373 -78 373 -78 373 -86 c 0
 373 -101 383 -105 430 -108 c 1
 427 -144 l 1
 88 -144 l 1
 91 -108 l 1
 96 -108 l 2
 126 -108 152 -102 161 -94 c 0
 169 -86 169 -86 187 -21 c 2
 279 324 l 1
288 357 m 1
 376 686 l 1
 373 686 l 2
 308 686 275 653 251 563 c 2
 229 481 l 2
 223 458 219 432 219 416 c 0
 219 379 237 357 268 357 c 2
 288 357 l 1
512 686 m 1
 441 686 l 1
 229 -107 l 1
 300 -107 l 1
 512 686 l 1
EndSplineSet
EndChar

StartChar: cedilla
Encoding: 184 184 120
Width: 333
Flags: MW
LayerCount: 2
Fore
SplineSet
142 0 m 1
 104 -64 l 1
 118 -62 125 -61 134 -61 c 0
 182 -61 215 -89 215 -129 c 0
 215 -181 166 -216 91 -216 c 0
 59 -216 31 -211 3 -199 c 1
 21 -166 l 1
 45 -174 64 -178 83 -178 c 0
 117 -178 139 -162 139 -138 c 0
 139 -114 120 -99 91 -99 c 0
 81 -99 71 -101 58 -105 c 1
 49 -99 l 1
 107 0 l 1
 142 0 l 1
EndSplineSet
EndChar

StartChar: onesuperior
Encoding: 185 185 121
Width: 333
Flags: MW
LayerCount: 2
Fore
SplineSet
309 712 m 1
 209 363 l 2
 203 339 203 339 203 335 c 0
 203 324 211 322 250 322 c 2
 288 322 l 1
 283 288 l 1
 43 288 l 1
 47 322 l 1
 78 322 l 2
 107 322 122 324 128 329 c 0
 132 333 132 333 141 364 c 2
 209 601 l 2
 209 602 211 607 214 614 c 1
 215 619 216 623 216 627 c 0
 216 634 213 635 176 635 c 2
 128 635 l 1
 137 667 l 1
 183 667 251 687 285 712 c 1
 309 712 l 1
EndSplineSet
EndChar

StartChar: ordmasculine
Encoding: 186 186 122
Width: 372
Flags: MW
LayerCount: 2
Fore
SplineSet
83 369 m 1
 367 369 l 1
 367 329 l 1
 83 329 l 1
 83 369 l 1
257 731 m 0
 320 731 372 680 372 619 c 0
 372 574 351 525 317 491 c 0
 284 458 246 442 196 442 c 0
 125 442 83 484 83 555 c 0
 83 648 165 731 257 731 c 0
254 708 m 0
 230 708 209 697 191 676 c 0
 164 644 142 577 142 528 c 0
 142 487 162 465 200 465 c 0
 238 465 265 488 287 539 c 1
 302 571 310 608 310 638 c 0
 310 682 289 708 254 708 c 0
EndSplineSet
EndChar

StartChar: guillemotright
Encoding: 187 187 123
Width: 426
Flags: MW
LayerCount: 2
Fore
SplineSet
122 254 m 1
 61 373 l 2
 60 376 59 380 59 385 c 0
 59 395 66 402 75 402 c 0
 80 402 85 398 93 387 c 2
 202 243 l 1
 16 100 l 2
 2 89 -4 85 -8 85 c 0
 -13 85 -17 91 -17 98 c 0
 -17 107 -17 107 43 170 c 2
 122 254 l 1
320 254 m 1
 259 373 l 2
 258 376 257 380 257 385 c 0
 257 395 264 402 273 402 c 0
 278 402 283 398 291 387 c 2
 333 330 l 1
 369 283 392 254 400 243 c 1
 214 100 l 2
 200 89 194 85 190 85 c 0
 185 85 181 91 181 98 c 0
 181 107 181 107 241 170 c 2
 320 254 l 1
EndSplineSet
EndChar

StartChar: onequarter
Encoding: 188 188 124
Width: 834
Flags: HMW
LayerCount: 2
Fore
SplineSet
833 424 m 1
 754 148 l 1
 825 148 l 1
 815 109 l 1
 743 109 l 1
 733 75 l 2
 727 52 727 52 727 48 c 0
 727 37 735 35 774 35 c 2
 789 35 l 1
 785 0 l 1
 583 0 l 1
 587 35 l 1
 602 35 l 2
 649 35 654 37 661 61 c 2
 665 77 l 1
 675 109 l 1
 498 109 l 1
 498 139 l 1
 793 424 l 1
 833 424 l 1
686 148 m 1
 735 321 l 1
 555 148 l 1
 686 148 l 1
EndSplineSet
Refer: 699 8260 S 1 0 0 1 327 0 2
Refer: 121 185 S 1 0 0 1 -10 0 2
EndChar

StartChar: threequarters
Encoding: 190 190 126
Width: 834
Flags: HMW
LayerCount: 2
Fore
SplineSet
833 424 m 1
 754 148 l 1
 825 148 l 1
 815 109 l 1
 743 109 l 1
 733 75 l 2
 727 52 727 52 727 48 c 0
 727 37 735 35 774 35 c 2
 789 35 l 1
 785 0 l 1
 583 0 l 1
 587 35 l 1
 602 35 l 2
 649 35 654 37 661 61 c 2
 665 77 l 1
 675 109 l 1
 498 109 l 1
 498 139 l 1
 793 424 l 1
 833 424 l 1
686 148 m 1
 735 321 l 1
 555 148 l 1
 686 148 l 1
EndSplineSet
Refer: 699 8260 S 1 0 0 1 339 0 2
Refer: 115 179 S 1 0 0 1 0 0 2
EndChar

StartChar: questiondown
Encoding: 191 191 127
Width: 444
Flags: MW
LayerCount: 2
Fore
SplineSet
134 223 m 1
 98 229 l 1
 110 292 156 334 213 334 c 0
 269 334 307 294 307 234 c 0
 307 163 265 105 148 16 c 0
 91 -28 70 -58 70 -97 c 0
 70 -134 102 -163 145 -163 c 0
 192 -163 233 -137 256 -93 c 0
 268 -69 272 -44 272 7 c 1
 310 7 l 1
 311 -4 311 -11 311 -17 c 0
 311 -125 241 -203 143 -203 c 0
 63 -203 7 -146 7 -64 c 0
 7 -7 32 39 90 88 c 0
 117 112 117 112 190 159 c 0
 238 190 257 215 257 247 c 0
 257 277 240 296 212 296 c 0
 188 296 165 284 152 266 c 0
 145 256 142 248 134 223 c 1
262 549 m 0
 295 549 323 521 323 487 c 0
 323 453 295 425 261 425 c 0
 227 425 199 453 199 487 c 0
 199 522 227 549 262 549 c 0
EndSplineSet
EndChar

StartChar: AE
Encoding: 198 198 134
Width: 870
Flags: MW
LayerCount: 2
Fore
SplineSet
831 481 m 1
 786 481 l 1
 786 501 l 1
 787 524 787 542 787 552 c 0
 787 634 748 675 669 675 c 2
 642 675 l 2
 590 675 581 667 565 606 c 2
 510 401 l 1
 517 401 l 2
 599 401 645 437 674 526 c 1
 720 520 l 1
 630 186 l 1
 585 194 l 1
 592 223 594 241 594 264 c 0
 594 324 564 354 504 354 c 2
 497 354 l 1
 438 134 l 2
 436 127 434 120 433 114 c 1
 428 101 426 87 426 78 c 0
 426 57 446 47 490 47 c 2
 512 47 l 2
 627 47 693 92 755 214 c 0
 768 239 770 242 777 253 c 1
 817 245 l 1
 739 0 l 1
 207 0 l 1
 213 47 l 1
 217 47 l 2
 266 47 290 51 300 61 c 0
 309 69 309 69 323 123 c 2
 365 278 l 1
 174 278 l 1
 79 141 l 2
 64 119 54 96 54 83 c 0
 54 69 64 58 81 52 c 0
 91 48 101 47 131 47 c 1
 125 0 l 1
 -92 0 l 1
 -87 47 l 1
 -62 47 -42 61 -18 93 c 1
 302 553 l 2
 329 592 339 614 339 633 c 0
 339 664 318 675 259 675 c 2
 232 675 l 1
 237 722 l 1
 870 722 l 1
 831 481 l 1
377 325 m 1
 460 635 l 2
 466 660 466 660 466 663 c 0
 466 668 461 674 457 674 c 0
 451 674 446 670 436 654 c 1
 205 325 l 1
 377 325 l 1
EndSplineSet
EndChar

StartChar: Eth
Encoding: 208 208 144
Width: 778
Flags: MW
LayerCount: 2
Fore
SplineSet
138 354 m 1
 36 354 l 1
 48 401 l 1
 151 401 l 1
 206 599 l 2
 211 617 215 640 215 648 c 0
 215 670 201 675 136 675 c 2
 110 675 l 1
 116 722 l 1
 406 722 l 2
 518 722 581 708 631 670 c 0
 698 620 735 537 735 435 c 0
 735 301 667 162 560 77 c 0
 492 23 404 0 271 0 c 2
 -38 0 l 1
 -33 47 l 1
 -28 47 l 2
 21 47 44 51 55 61 c 0
 63 69 64 69 78 123 c 2
 138 354 l 1
250 354 m 1
 187 110 l 2
 183 97 181 84 181 75 c 0
 181 57 197 47 227 47 c 2
 259 47 l 2
 355 47 420 65 464 104 c 0
 545 177 613 348 613 480 c 0
 613 544 595 602 565 631 c 0
 537 659 486 675 426 675 c 2
 396 675 l 2
 364 675 351 671 340 660 c 0
 333 653 330 645 320 610 c 2
 263 401 l 1
 461 401 l 1
 449 354 l 1
 250 354 l 1
EndSplineSet
EndChar

StartChar: multiply
Encoding: 215 215 151
Width: 606
Flags: MW
LayerCount: 2
Fore
SplineSet
288 196 m 1
 93 1 l 1
 37 58 l 1
 231 253 l 1
 37 447 l 1
 93 504 l 1
 288 309 l 1
 483 504 l 1
 540 448 l 1
 345 253 l 1
 540 57 l 1
 483 1 l 1
 288 196 l 1
EndSplineSet
EndChar

StartChar: Oslash
Encoding: 216 216 152
Width: 778
Flags: MW
LayerCount: 2
Fore
SplineSet
624 684 m 1
 677 750 l 1
 735 750 l 1
 658 655 l 1
 710 601 735 535 735 451 c 0
 735 322 682 196 590 104 c 0
 510 25 417 -15 313 -15 c 0
 250 -15 197 0 153 29 c 1
 59 -87 l 1
 1 -87 l 1
 119 58 l 1
 67 109 40 185 40 276 c 0
 40 521 234 737 453 737 c 0
 517 737 576 719 624 684 c 1
172 125 m 1
 584 634 l 1
 559 672 513 693 457 693 c 0
 391 693 332 660 281 594 c 0
 216 509 158 328 158 209 c 0
 158 182 163 149 172 125 c 1
604 588 m 1
 195 82 l 1
 222 47 263 29 315 29 c 0
 391 29 463 72 510 144 c 1
 574 245 615 385 615 509 c 0
 615 538 611 565 604 588 c 1
EndSplineSet
EndChar

StartChar: Thorn
Encoding: 222 222 158
Width: 667
Flags: MW
LayerCount: 2
Fore
SplineSet
316 591 m 1
 377 591 l 2
 460 591 513 580 550 555 c 0
 598 522 624 472 624 410 c 0
 624 330 585 265 515 227 c 0
 447 191 412 186 226 186 c 2
 208 186 l 1
 191 123 l 2
 182 89 181 84 181 75 c 0
 181 52 195 47 261 47 c 2
 283 47 l 1
 277 0 l 1
 -33 0 l 1
 -28 47 l 1
 30 48 44 50 56 61 c 0
 65 70 66 73 79 123 c 2
 207 600 l 2
 214 627 217 640 217 648 c 0
 217 670 203 675 137 675 c 2
 115 675 l 1
 121 722 l 1
 431 722 l 1
 426 675 l 1
 345 674 337 670 326 628 c 0
 324 618 321 607 319 600 c 2
 316 591 l 1
221 233 m 1
 240 233 l 2
 338 233 338 233 352 235 c 0
 407 240 443 258 469 290 c 0
 496 324 512 372 512 421 c 0
 512 510 472 544 367 544 c 2
 355 544 l 2
 314 544 301 534 291 496 c 2
 221 233 l 1
EndSplineSet
EndChar

StartChar: germandbls
Encoding: 223 223 159
Width: 556
Flags: MW
LayerCount: 2
Fore
SplineSet
53 176 m 1
 97 351 l 2
 140 521 167 594 208 651 c 1
 251 709 301 736 366 736 c 0
 462 736 525 680 525 593 c 0
 525 531 497 477 448 441 c 0
 428 427 412 419 377 407 c 1
 441 364 469 315 469 247 c 0
 469 182 447 112 409 61 c 0
 375 14 322 -14 268 -14 c 0
 206 -14 162 22 162 72 c 0
 162 106 184 130 215 130 c 0
 242 130 264 111 264 88 c 0
 264 78 261 67 255 54 c 0
 252 47 250 41 250 37 c 0
 250 30 260 23 271 23 c 0
 293 23 314 46 337 97 c 0
 362 153 381 238 381 298 c 0
 381 339 365 371 337 387 c 0
 324 395 321 395 285 402 c 0
 265 405 256 412 256 424 c 0
 256 434 265 443 275 443 c 0
 278 443 278 443 306 438 c 0
 321 436 332 435 338 435 c 0
 393 435 441 517 441 611 c 0
 441 668 411 701 361 701 c 0
 311 701 276 667 247 591 c 0
 235 561 232 549 179 344 c 1
 144 201 l 1
 111 56 75 -65 30 -184 c 1
 -76 -202 l 1
 -45 -152 -4 -34 53 176 c 1
EndSplineSet
EndChar

StartChar: ae
Encoding: 230 230 166
Width: 722
Flags: MW
LayerCount: 2
Fore
SplineSet
610 117 m 1
 638 91 l 1
 576 18 512 -15 430 -15 c 0
 349 -15 302 21 288 91 c 1
 236 14 184 -15 100 -15 c 0
 27 -15 -18 23 -18 84 c 0
 -18 150 29 195 130 227 c 1
 184 243 204 247 303 260 c 1
 316 311 318 326 318 348 c 0
 318 398 278 431 218 431 c 0
 180 431 147 417 147 400 c 0
 147 397 148 395 155 390 c 0
 166 381 172 366 172 349 c 0
 172 319 151 299 119 299 c 0
 86 299 65 321 65 355 c 0
 65 419 136 470 226 470 c 0
 290 470 340 446 379 397 c 1
 431 445 489 470 552 470 c 0
 622 470 667 430 667 369 c 0
 667 309 623 261 541 231 c 0
 507 218 459 207 370 192 c 1
 363 167 361 155 361 137 c 0
 361 72 396 33 456 33 c 0
 511 33 564 62 610 117 c 1
378 232 m 1
 384 233 384 233 392 234 c 0
 428 239 475 252 501 263 c 0
 551 286 581 328 581 375 c 0
 581 407 561 427 530 427 c 0
 492 427 456 403 430 360 c 0
 409 325 398 299 378 232 c 1
293 220 m 1
 230 211 218 209 185 199 c 0
 116 180 75 141 75 95 c 0
 75 60 100 35 136 35 c 0
 176 35 220 59 245 96 c 0
 266 127 276 152 293 220 c 1
EndSplineSet
EndChar

StartChar: eth
Encoding: 240 240 176
Width: 500
Flags: MW
LayerCount: 2
Fore
SplineSet
342 455 m 1
 339 461 l 1
 322 494 l 1
 302 530 279 561 255 583 c 1
 120 516 l 1
 103 551 l 1
 224 612 l 1
 201 632 193 639 151 672 c 1
 189 711 l 1
 233 687 255 672 290 645 c 1
 432 716 l 1
 450 681 l 1
 324 618 l 1
 373 569 399 530 421 470 c 0
 439 420 450 351 450 292 c 0
 450 224 429 155 391 100 c 0
 338 24 268 -15 183 -15 c 0
 74 -15 5 58 5 173 c 0
 5 255 33 326 89 384 c 0
 142 439 208 470 274 470 c 0
 297 470 319 465 342 455 c 1
268 432 m 0
 230 432 198 414 170 378 c 0
 129 323 95 211 95 128 c 0
 95 60 126 23 184 23 c 0
 242 23 285 62 319 147 c 0
 340 198 355 267 355 308 c 0
 355 386 323 432 268 432 c 0
EndSplineSet
EndChar

StartChar: divide
Encoding: 247 247 183
Width: 606
Flags: MW
LayerCount: 2
Fore
SplineSet
290 115 m 0
 323 115 351 87 351 53 c 0
 351 19 323 -9 289 -9 c 0
 255 -9 227 19 227 54 c 0
 227 88 255 115 290 115 c 0
290 515 m 0
 323 515 351 487 351 453 c 0
 351 419 323 391 289 391 c 0
 255 391 227 419 227 454 c 0
 227 487 255 515 290 515 c 0
37 213 m 1
 37 293 l 1
 540 293 l 1
 540 213 l 1
 37 213 l 1
EndSplineSet
EndChar

StartChar: oslash
Encoding: 248 248 184
Width: 500
Flags: MW
LayerCount: 2
Fore
SplineSet
326 458 m 1
 378 548 l 1
 421 548 l 1
 359 440 l 1
 410 402 440 344 440 282 c 0
 440 207 408 127 355 67 c 0
 306 12 245 -15 171 -15 c 0
 148 -15 128 -12 107 -7 c 1
 43 -120 l 1
 0 -120 l 1
 72 9 l 1
 22 41 -5 98 -5 173 c 0
 -5 256 22 325 79 384 c 0
 132 439 197 470 263 470 c 0
 285 470 306 466 326 458 c 1
101 59 m 1
 304 418 l 1
 289 428 275 432 257 432 c 0
 221 432 188 413 161 378 c 0
 120 325 85 209 85 129 c 0
 85 104 91 79 101 59 c 1
330 388 m 1
 129 33 l 1
 144 26 157 23 174 23 c 0
 227 23 264 53 298 122 c 0
 326 179 345 256 345 312 c 0
 345 340 340 366 330 388 c 1
EndSplineSet
EndChar

StartChar: thorn
Encoding: 254 254 190
Width: 574
Flags: MW
LayerCount: 2
Fore
SplineSet
323 737 m 1
 219 385 l 1
 264 440 317 470 368 470 c 0
 407 470 447 450 473 418 c 0
 496 389 506 355 506 307 c 0
 506 225 477 142 426 78 c 1
 378 16 316 -15 246 -15 c 0
 180 -15 154 4 126 73 c 1
 78 -90 l 1
 67 -132 67 -132 67 -141 c 0
 67 -160 83 -166 131 -166 c 2
 143 -166 l 1
 139 -202 l 1
 -101 -202 l 1
 -97 -166 l 1
 -29 -163 -29 -162 -9 -90 c 1
 200 611 l 2
 207 636 209 646 209 654 c 0
 209 677 193 686 152 686 c 2
 120 686 l 1
 124 722 l 1
 323 737 l 1
337 417 m 0
 296 417 255 389 221 339 c 1
 184 281 152 185 152 127 c 0
 152 74 188 35 236 35 c 0
 289 35 330 69 365 144 c 0
 395 206 412 274 412 329 c 0
 412 382 382 417 337 417 c 0
EndSplineSet
EndChar

StartChar: Aogonek
Encoding: 260 260 196
Width: 704
Flags: MW
LayerCount: 2
Fore
SplineSet
668 47 m 1
 663 0 l 1
 635 -32 625 -53 625 -74 c 0
 625 -95 644 -114 665 -114 c 0
 687 -114 709 -103 736 -77 c 1
 753 -99 l 1
 713 -139 682 -155 645 -155 c 0
 604 -155 576 -127 576 -87 c 0
 576 -54 589 -32 627 0 c 1
 362 0 l 1
 367 47 l 1
 383 47 l 2
 440 47 455 54 455 83 c 0
 455 90 453 103 451 115 c 2
 428 238 l 1
 173 238 l 1
 118 142 l 2
 106 122 100 102 100 87 c 0
 100 57 117 47 169 47 c 2
 193 47 l 1
 187 0 l 1
 -82 0 l 1
 -77 47 l 1
 -23 47 18 80 71 168 c 1
 401 737 l 1
 442 737 l 1
 567 108 l 2
 577 56 588 47 643 47 c 2
 668 47 l 1
420 285 m 1
 363 572 l 1
 200 285 l 1
 420 285 l 1
EndSplineSet
Ligature2: "CCMP" A uni0328
EndChar

StartChar: aogonek
Encoding: 261 261 197
Width: 574
Flags: MW
LayerCount: 2
Fore
SplineSet
492 158 m 1
 523 141 l 1
 503 97 483 67 427 -2 c 1
 408 -27 395 -56 395 -76 c 0
 395 -95 415 -114 436 -114 c 0
 457 -114 479 -103 507 -77 c 1
 523 -99 l 1
 483 -139 452 -155 415 -155 c 0
 375 -155 346 -127 346 -88 c 0
 346 -59 356 -39 383 -12 c 1
 371 -14 366 -15 358 -15 c 0
 321 -15 296 11 296 50 c 0
 296 60 297 67 301 82 c 1
 251 10 211 -15 149 -15 c 0
 60 -15 1 50 1 148 c 0
 1 228 31 312 82 378 c 0
 129 438 186 470 247 470 c 0
 312 470 362 427 369 365 c 1
 396 455 l 1
 483 455 l 1
 383 119 l 2
 376 94 372 75 372 65 c 0
 372 51 382 40 393 40 c 0
 419 40 454 82 492 158 c 1
264 415 m 0
 234 415 206 403 184 380 c 0
 131 326 92 222 92 134 c 0
 92 73 122 36 172 36 c 0
 222 36 258 64 289 126 c 0
 320 189 340 269 340 326 c 0
 340 381 311 415 264 415 c 0
EndSplineSet
Ligature2: "CCMP" a uni0328
EndChar

StartChar: dcaron
Encoding: 271 271 207
Width: 651
Flags: HMW
LayerCount: 2
Fore
SplineSet
551 461 m 1
 539 489 l 1
 606 519 646 561 653 606 c 1
 638 605 l 1
 608 605 588 624 588 653 c 0
 588 684 614 709 648 709 c 0
 684 709 711 679 711 637 c 0
 711 568 648 498 551 461 c 1
EndSplineSet
Refer: 69 100 N 1 0 0 1 0 0 2
LCarets2: 1 0 
Ligature2: "CCMP" d uni030C
EndChar

StartChar: dcroat
Encoding: 273 273 209
Width: 611
Flags: MW
LayerCount: 2
Fore
SplineSet
448 563 m 1
 324 563 l 1
 334 610 l 1
 462 610 l 1
 469 633 471 645 471 654 c 0
 471 677 455 686 414 686 c 2
 383 686 l 1
 387 722 l 1
 586 737 l 1
 548 610 l 1
 635 610 l 1
 625 563 l 1
 535 563 l 1
 408 137 l 2
 398 102 393 79 393 65 c 0
 393 48 402 38 418 38 c 0
 451 38 476 64 534 158 c 1
 564 140 l 1
 508 34 452 -15 389 -15 c 0
 345 -15 321 10 321 56 c 0
 321 60 321 70 322 78 c 1
 278 14 228 -15 160 -15 c 0
 67 -15 3 52 3 150 c 0
 3 316 137 470 281 470 c 0
 316 470 350 456 371 434 c 0
 382 422 388 412 396 388 c 1
 448 563 l 1
284 425 m 0
 235 425 191 392 153 326 c 0
 121 270 100 197 100 140 c 0
 100 75 136 32 189 32 c 0
 237 32 279 65 312 129 c 0
 344 190 369 281 369 334 c 0
 369 387 333 425 284 425 c 0
EndSplineSet
EndChar

StartChar: Eogonek
Encoding: 280 280 216
Width: 722
Flags: MW
LayerCount: 2
Fore
SplineSet
253 354 m 1
 194 134 l 2
 184 96 183 91 183 79 c 0
 183 55 201 47 253 47 c 2
 307 47 l 2
 388 47 446 65 494 106 c 0
 533 138 552 165 596 245 c 1
 601 253 l 1
 642 245 l 1
 564 0 l 1
 536 -32 526 -52 526 -74 c 0
 526 -95 545 -114 566 -114 c 0
 588 -114 609 -103 638 -77 c 1
 654 -99 l 1
 614 -139 583 -155 546 -155 c 0
 506 -155 477 -127 477 -87 c 0
 477 -54 489 -32 528 0 c 1
 -37 0 l 1
 -32 47 l 1
 -27 47 l 2
 22 47 45 51 56 61 c 0
 64 69 65 70 79 123 c 2
 207 599 l 2
 212 619 216 640 216 648 c 0
 216 670 202 675 137 675 c 2
 111 675 l 1
 117 722 l 1
 701 722 l 1
 662 481 l 1
 617 481 l 1
 617 516 l 2
 617 585 608 617 580 642 c 0
 555 664 521 675 478 675 c 2
 420 675 l 2
 345 675 337 670 320 606 c 2
 265 401 l 1
 288 401 l 2
 385 401 437 438 466 526 c 1
 511 520 l 1
 422 186 l 1
 377 194 l 1
 384 226 386 241 386 263 c 0
 386 324 349 354 275 354 c 2
 253 354 l 1
EndSplineSet
Ligature2: "CCMP" E uni0328
EndChar

StartChar: eogonek
Encoding: 281 281 217
Width: 444
Flags: MW
LayerCount: 2
Fore
SplineSet
339 116 m 1
 363 89 l 1
 350 71 339 60 307 33 c 0
 254 -12 233 -43 233 -75 c 0
 233 -95 253 -114 274 -114 c 0
 295 -114 317 -103 345 -77 c 1
 361 -99 l 1
 321 -139 290 -155 253 -155 c 0
 213 -155 184 -127 184 -88 c 0
 184 -58 196 -34 226 -8 c 1
 202 -13 188 -15 167 -15 c 0
 59 -15 -6 50 -6 158 c 0
 -6 321 126 470 272 470 c 0
 342 470 391 428 391 367 c 0
 391 309 348 258 271 224 c 0
 226 204 206 198 89 170 c 1
 88 157 87 143 87 136 c 0
 87 72 124 32 184 32 c 0
 236 32 280 55 339 116 c 1
94 209 m 1
 150 221 167 226 196 239 c 0
 268 271 307 318 307 373 c 0
 307 407 285 430 252 430 c 0
 178 430 117 344 94 209 c 1
EndSplineSet
Ligature2: "CCMP" e uni0328
EndChar

StartChar: Gbreve
Encoding: 286 286 222
Width: 778
Flags: MW
LayerCount: 2
Fore
SplineSet
348 935 m 1
 377 935 l 1
 381 874 421 837 484 837 c 0
 545 837 592 872 617 935 c 1
 648 935 l 1
 630 837 565 774 480 774 c 0
 400 774 347 830 347 914 c 0
 347 918 347 926 348 935 c 1
EndSplineSet
Refer: 40 71 S 1 0 0 1 0 0 2
Ligature2: "CCMP" G uni0306
EndChar

StartChar: gcommaaccent
Encoding: 291 291 227
Width: 556
Flags: HMW
LayerCount: 2
Fore
SplineSet
395 759 m 1
 407 731 l 1
 340 700 300 659 293 614 c 1
 308 614 l 2
 338 614 358 595 358 567 c 0
 358 535 332 511 298 511 c 0
 262 511 235 541 235 583 c 0
 235 652 298 721 395 759 c 1
EndSplineSet
Refer: 72 103 S 1 0 0 1 0 0 2
Ligature2: "CCMP" g uni0327
EndChar

StartChar: Hbar
Encoding: 294 294 230
Width: 833
Flags: MW
LayerCount: 2
Fore
SplineSet
738 549 m 1
 623 123 l 2
 618 104 614 81 614 74 c 0
 614 52 628 47 693 47 c 2
 719 47 l 1
 713 0 l 1
 396 0 l 1
 401 47 l 1
 405 47 l 2
 454 47 478 51 489 61 c 0
 497 69 497 70 512 123 c 2
 573 354 l 1
 252 354 l 1
 190 123 l 2
 180 82 180 82 180 74 c 0
 180 52 194 47 259 47 c 2
 285 47 l 1
 280 0 l 1
 -38 0 l 1
 -33 47 l 1
 -28 47 l 2
 21 47 44 51 55 61 c 0
 63 69 64 70 78 123 c 2
 193 549 l 1
 113 549 l 1
 126 600 l 1
 206 600 l 1
 211 620 215 640 215 648 c 0
 215 670 201 675 136 675 c 2
 110 675 l 1
 116 722 l 1
 433 722 l 1
 428 675 l 1
 424 675 l 2
 375 675 351 671 341 661 c 1
 332 654 332 654 318 600 c 1
 639 600 l 1
 646 623 649 640 649 648 c 0
 649 670 635 675 570 675 c 2
 544 675 l 1
 549 722 l 1
 867 722 l 1
 862 675 l 1
 858 675 l 2
 808 675 785 671 774 661 c 0
 766 654 766 654 751 600 c 1
 833 600 l 1
 820 549 l 1
 738 549 l 1
626 549 m 1
 304 549 l 1
 264 401 l 1
 586 401 l 1
 626 549 l 1
EndSplineSet
EndChar

StartChar: hbar
Encoding: 295 295 231
Width: 611
Flags: MW
LayerCount: 2
Fore
SplineSet
155 524 m 1
 54 524 l 1
 65 575 l 1
 170 575 l 1
 181 611 l 2
 187 632 190 646 190 655 c 0
 190 677 174 686 133 686 c 2
 102 686 l 1
 106 722 l 1
 305 737 l 1
 257 575 l 1
 366 575 l 1
 355 524 l 1
 242 524 l 1
 186 335 l 1
 254 429 312 470 374 470 c 0
 431 470 475 428 475 372 c 0
 475 344 467 305 451 260 c 2
 404 122 l 2
 388 77 385 66 385 55 c 0
 385 44 393 36 403 36 c 0
 434 36 475 75 526 154 c 1
 555 133 l 1
 501 38 435 -15 373 -15 c 0
 333 -15 303 17 303 60 c 0
 303 81 308 103 321 143 c 2
 374 299 l 2
 384 330 389 352 389 369 c 0
 389 393 371 410 345 410 c 0
 298 410 248 374 202 307 c 0
 166 255 154 226 128 139 c 2
 87 0 l 1
 0 0 l 1
 155 524 l 1
EndSplineSet
EndChar

StartChar: Iogonek
Encoding: 302 302 238
Width: 407
Flags: MW
LayerCount: 2
Fore
SplineSet
121 722 m 1
 431 722 l 1
 426 675 l 1
 368 674 354 672 342 661 c 0
 333 652 333 651 319 599 c 2
 191 123 l 2
 182 89 181 84 181 75 c 0
 181 52 195 47 261 47 c 2
 283 47 l 1
 277 0 l 1
 249 -33 239 -52 239 -74 c 0
 239 -95 259 -114 280 -114 c 0
 301 -114 323 -103 351 -77 c 1
 367 -99 l 1
 327 -139 297 -155 260 -155 c 0
 219 -155 190 -127 190 -87 c 0
 190 -54 202 -32 241 0 c 1
 -33 0 l 1
 -28 47 l 1
 31 48 44 50 56 61 c 0
 65 70 66 73 79 123 c 2
 207 599 l 2
 214 626 217 640 217 648 c 0
 217 670 203 675 137 675 c 2
 115 675 l 1
 121 722 l 1
EndSplineSet
Ligature2: "CCMP" I uni0328
EndChar

StartChar: iogonek
Encoding: 303 303 239
Width: 333
Flags: MW
LayerCount: 2
Fore
SplineSet
251 157 m 1
 282 140 l 1
 248 88 234 70 204 38 c 0
 155 -14 155 -15 147 -27 c 0
 135 -45 130 -60 130 -75 c 0
 130 -95 150 -114 171 -114 c 0
 192 -114 214 -103 242 -77 c 1
 258 -99 l 1
 219 -139 188 -155 151 -155 c 0
 110 -155 81 -127 81 -88 c 0
 81 -59 91 -39 119 -12 c 1
 108 -14 103 -14 96 -14 c 0
 57 -14 27 13 27 49 c 0
 27 70 31 86 49 149 c 2
 107 344 l 2
 113 366 116 379 116 388 c 0
 116 410 100 419 59 419 c 2
 35 419 l 1
 39 455 l 1
 231 470 l 1
 125 113 l 2
 117 86 113 67 113 56 c 0
 113 44 120 35 130 35 c 0
 157 35 200 78 251 157 c 1
213 714 m 0
 243 714 267 690 267 660 c 0
 267 630 243 606 212 606 c 0
 183 606 159 631 159 660 c 0
 159 690 183 714 213 714 c 0
EndSplineSet
Ligature2: "CCMP" dotlessi uni0328
EndChar

StartChar: Idotaccent
Encoding: 304 304 240
Width: 407
Flags: MW
LayerCount: 2
Fore
SplineSet
311 910 m 0
 338 910 360 888 360 861 c 0
 360 834 338 812 310 812 c 0
 284 812 262 834 262 861 c 0
 262 888 284 910 311 910 c 0
EndSplineSet
Refer: 42 73 S 1 0 0 1 0 0 2
Ligature2: "CCMP" I uni0307
EndChar

StartChar: dotlessi
Encoding: 305 305 241
Width: 333
Flags: MW
LayerCount: 2
Fore
SplineSet
231 470 m 5
 125 113 l 2
 117 85 113 67 113 57 c 0
 113 45 120 36 130 36 c 0
 157 36 201 80 251 157 c 1
 282 140 l 1
 254 97 238 75 220 55 c 0
 180 9 139 -14 96 -14 c 0
 57 -14 27 13 27 48 c 0
 27 70 31 86 49 149 c 2
 107 344 l 6
 113 366 116 379 116 388 c 4
 116 410 100 419 59 419 c 6
 35 419 l 5
 39 455 l 5
 231 470 l 5
EndSplineSet
EndChar

StartChar: kgreenlandic
Encoding: 312 312 248
Width: 613
Flags: MW
LayerCount: 2
Fore
SplineSet
230 470 m 1
 180 278 l 1
 254 278 312 280 338 373 c 1
 356 445 412 475 491 475 c 0
 557 475 570 451 570 423 c 0
 570 388 544 368 517 368 c 0
 496 368 475 371 475 400 c 0
 475 427 494 424 494 431 c 0
 494 437 485 441 474 441 c 2
 473 441 l 2
 458 441 407 411 396 371 c 0
 374 292 345 271 277 256 c 1
 360 248 401 229 401 140 c 0
 401 117 391 89 391 69 c 0
 391 52 398 39 425 39 c 0
 452 39 469 59 485 103 c 1
 527 103 l 1
 504 26 455 -10 373 -10 c 0
 278 -10 272 37 272 76 c 2
 272 93 l 2
 272 127 290 160 290 186 c 0
 290 215 267 234 168 234 c 1
 107 0 l 1
 14 0 l 1
 105 344 l 2
 111 366 114 379 114 388 c 0
 114 410 98 419 57 419 c 2
 33 419 l 1
 37 455 l 1
 230 470 l 1
EndSplineSet
EndChar

StartChar: Lcaron
Encoding: 317 317 253
Width: 667
Flags: HMW
LayerCount: 2
Fore
SplineSet
547 489 m 1
 535 517 l 1
 602 547 642 589 649 634 c 1
 634 633 l 1
 604 633 584 652 584 681 c 0
 584 712 610 737 644 737 c 0
 680 737 707 707 707 665 c 0
 707 596 644 526 547 489 c 1
EndSplineSet
Refer: 45 76 N 1 0 0 1 0 0 2
LCarets2: 1 0 
Ligature2: "CCMP" L uni030C
EndChar

StartChar: lcaron
Encoding: 318 318 254
Width: 359
Flags: HMW
LayerCount: 2
Fore
SplineSet
259 461 m 1
 247 489 l 1
 314 519 354 561 361 606 c 1
 346 605 l 1
 316 605 296 624 296 653 c 0
 296 684 322 709 356 709 c 0
 392 709 419 679 419 637 c 0
 419 568 356 498 259 461 c 1
EndSplineSet
Refer: 77 108 N 1 0 0 1 0 0 2
LCarets2: 1 0 
Ligature2: "CCMP" l uni030C
EndChar

StartChar: Ldot
Encoding: 319 319 255
Width: 667
Flags: HMW
LayerCount: 2
Fore
SplineSet
423 427 m 0
 457 427 485 399 485 365 c 0
 485 330 457 303 422 303 c 0
 389 303 361 331 361 365 c 0
 361 399 389 427 423 427 c 0
EndSplineSet
Refer: 45 76 N 1 0 0 1 0 0 2
LCarets2: 1 0 
Ligature2: "CCMP" L periodcentered
EndChar

StartChar: ldot
Encoding: 320 320 256
Width: 432
Flags: HMW
LayerCount: 2
Fore
SplineSet
334 367 m 0
 368 367 396 339 396 305 c 0
 396 270 368 243 333 243 c 0
 300 243 272 271 272 305 c 0
 272 339 300 367 334 367 c 0
EndSplineSet
Refer: 77 108 N 1 0 0 1 0 0 2
LCarets2: 1 0 
Ligature2: "CCMP" l periodcentered
EndChar

StartChar: Lslash
Encoding: 321 321 257
Width: 667
Flags: MW
LayerCount: 2
Fore
SplineSet
116 258 m 1
 -4 189 l 1
 14 254 l 1
 133 322 l 1
 207 599 l 2
 212 619 216 640 216 648 c 0
 216 670 202 675 137 675 c 2
 111 675 l 1
 117 722 l 1
 453 722 l 1
 447 675 l 1
 425 675 l 2
 376 675 352 671 342 661 c 0
 333 653 333 653 319 599 c 2
 261 385 l 1
 459 499 l 1
 440 435 l 1
 244 321 l 1
 194 134 l 2
 184 97 183 92 183 79 c 0
 183 55 201 47 253 47 c 2
 295 47 l 2
 376 47 434 65 482 106 c 0
 521 138 540 164 584 245 c 1
 589 253 l 1
 630 245 l 1
 552 0 l 1
 -37 0 l 1
 -32 47 l 1
 -27 47 l 2
 22 47 45 51 56 61 c 0
 64 69 65 70 79 123 c 2
 116 258 l 1
EndSplineSet
EndChar

StartChar: lslash
Encoding: 322 322 258
Width: 333
Flags: MW
LayerCount: 2
Fore
SplineSet
229 427 m 1
 342 475 l 1
 326 420 l 1
 213 372 l 1
 138 117 l 1
 124 74 124 73 124 62 c 0
 124 50 131 41 142 41 c 0
 170 41 214 84 266 162 c 1
 296 145 l 1
 236 43 172 -10 109 -10 c 0
 69 -10 44 17 44 60 c 0
 44 92 45 98 72 188 c 2
 119 347 l 1
 16 302 l 1
 32 357 l 1
 135 402 l 1
 199 616 l 2
 210 656 210 656 210 663 c 0
 210 682 190 691 151 691 c 2
 119 691 l 1
 123 727 l 1
 323 742 l 1
 229 427 l 1
EndSplineSet
EndChar

StartChar: Eng
Encoding: 330 330 266
Width: 815
Flags: MW
LayerCount: 2
Fore
SplineSet
585 22 m 1
 281 539 l 1
 190 147 l 2
 184 120 181 100 181 85 c 0
 181 45 205 44 261 38 c 1
 252 0 l 1
 12 0 l 1
 21 38 l 1
 108 50 121 44 145 147 c 2
 247 588 l 1
 218 633 203 634 163 634 c 2
 158 634 l 1
 167 672 l 1
 342 672 l 1
 622 178 l 1
 700 515 l 2
 706 543 710 567 710 584 c 0
 710 605 705 619 696 627 c 0
 690 631 684 632 675 632 c 2
 661 632 l 2
 652 632 642 632 629 634 c 1
 638 672 l 1
 878 672 l 1
 869 634 l 1
 851 630 839 630 829 630 c 2
 825 630 l 2
 815 630 808 630 800 625 c 0
 777 612 759 575 745 515 c 2
 626 0 l 2
 593 -142 555 -218 442 -218 c 0
 392 -218 358 -199 358 -171 c 0
 358 -168 358 -166 359 -163 c 0
 364 -141 386 -124 410 -124 c 0
 426 -124 439 -133 452 -156 c 0
 464 -177 473 -184 488 -184 c 0
 503 -184 519 -176 527 -166 c 0
 543 -146 552 -121 569 -45 c 1
 585 22 l 1
EndSplineSet
EndChar

StartChar: eng
Encoding: 331 331 267
Width: 610
Flags: MW
LayerCount: 2
Fore
SplineSet
124 0 m 1
 32 0 l 1
 120 338 l 2
 124 354 126 366 126 375 c 0
 126 395 116 402 96 402 c 0
 84 402 72 401 65 398 c 1
 72 432 l 1
 138 446 174 451 233 460 c 1
 240 458 l 1
 225 392 l 1
 314 456 351 468 400 468 c 0
 465 468 499 428 499 366 c 0
 499 349 496 330 491 310 c 2
 416 0 l 2
 381 -142 298 -218 177 -218 c 0
 124 -218 88 -199 88 -171 c 0
 88 -168 89 -166 89 -163 c 0
 94 -141 119 -124 143 -124 c 0
 161 -124 173 -133 187 -156 c 1
 201 -177 209 -184 226 -184 c 0
 240 -184 257 -176 267 -166 c 1
 284 -146 293 -121 311 -45 c 2
 397 308 l 2
 401 323 402 337 402 348 c 0
 402 387 382 405 341 405 c 0
 306 405 279 393 216 348 c 1
 124 0 l 1
EndSplineSet
EndChar

StartChar: OE
Encoding: 338 338 274
Width: 981
Flags: MW
LayerCount: 2
Fore
SplineSet
924 481 m 1
 879 481 l 1
 879 501 l 1
 880 526 880 546 880 552 c 0
 880 635 841 675 762 675 c 2
 734 675 l 2
 682 675 673 667 657 606 c 2
 602 401 l 1
 609 401 l 2
 691 401 737 437 766 526 c 1
 811 520 l 1
 722 186 l 1
 677 194 l 1
 684 224 686 243 686 265 c 0
 686 324 656 354 596 354 c 2
 589 354 l 1
 530 134 l 2
 520 94 519 90 519 78 c 0
 519 57 539 47 582 47 c 2
 604 47 l 2
 644 47 688 56 718 69 c 1
 769 93 806 134 847 214 c 1
 868 253 l 1
 909 245 l 1
 831 0 l 1
 322 0 l 2
 236 0 174 18 127 58 c 0
 69 107 36 188 36 284 c 0
 36 441 121 593 250 670 c 0
 314 708 383 722 502 722 c 2
 963 722 l 1
 924 481 l 1
427 165 m 2
 528 543 l 2
 539 586 541 594 541 612 c 0
 541 654 508 677 447 677 c 0
 367 677 300 629 243 534 c 0
 194 451 159 321 159 223 c 0
 159 118 222 46 313 46 c 0
 349 46 381 61 397 85 c 0
 407 100 416 124 427 165 c 2
EndSplineSet
EndChar

StartChar: oe
Encoding: 339 339 275
Width: 778
Flags: MW
LayerCount: 2
Fore
SplineSet
668 116 m 1
 692 89 l 1
 636 16 576 -15 494 -15 c 0
 425 -15 384 6 351 56 c 1
 305 9 246 -15 174 -15 c 0
 65 -15 0 57 0 177 c 0
 0 256 28 326 85 384 c 0
 138 439 203 470 268 470 c 0
 317 470 366 448 395 414 c 0
 401 406 406 398 416 382 c 1
 431 398 437 404 446 411 c 0
 488 447 549 470 602 470 c 0
 671 470 720 427 720 367 c 0
 720 309 677 258 600 224 c 0
 554 204 534 198 418 170 c 1
 417 157 416 143 416 136 c 0
 416 72 453 32 513 32 c 0
 566 32 609 55 668 116 c 1
264 430 m 0
 226 430 194 412 166 376 c 0
 125 322 91 211 91 128 c 0
 91 59 122 21 180 21 c 0
 233 21 270 51 304 121 c 0
 334 183 350 252 350 321 c 0
 350 388 317 430 264 430 c 0
424 209 m 1
 498 226 514 232 550 252 c 0
 605 282 636 326 636 373 c 0
 636 406 614 428 582 428 c 0
 507 428 442 338 424 209 c 1
EndSplineSet
EndChar

StartChar: tcaron
Encoding: 357 357 293
Width: 368
Flags: HMW
LayerCount: 2
Fore
SplineSet
268 461 m 1
 256 489 l 1
 323 519 363 561 370 606 c 1
 355 605 l 1
 325 605 305 624 305 653 c 0
 305 684 331 709 365 709 c 0
 401 709 428 679 428 637 c 0
 428 568 365 498 268 461 c 1
EndSplineSet
Refer: 85 116 N 1 0 0 1 0 0 2
LCarets2: 1 0 
Ligature2: "CCMP" t uni030C
EndChar

StartChar: Tbar
Encoding: 358 358 294
Width: 685
Flags: MW
LayerCount: 2
Fore
SplineSet
283 380 m 1
 185 380 l 1
 196 431 l 1
 296 431 l 1
 350 633 l 2
 353 644 355 653 355 658 c 0
 355 670 345 675 322 675 c 2
 308 675 l 2
 254 675 207 650 167 598 c 0
 140 564 130 547 81 458 c 1
 40 464 l 1
 128 722 l 1
 726 722 l 1
 684 447 l 1
 642 452 l 1
 644 493 644 504 644 522 c 0
 644 580 630 628 607 650 c 0
 589 666 560 675 522 675 c 2
 508 675 l 2
 477 675 472 670 458 619 c 2
 408 431 l 1
 497 431 l 1
 486 380 l 1
 394 380 l 1
 325 123 l 2
 320 104 316 81 316 74 c 0
 316 52 330 47 395 47 c 2
 432 47 l 1
 426 0 l 1
 80 0 l 1
 85 47 l 1
 107 47 l 2
 156 47 180 51 191 61 c 0
 199 69 200 70 214 123 c 2
 283 380 l 1
EndSplineSet
EndChar

StartChar: tbar
Encoding: 359 359 295
Width: 352
Flags: MW
LayerCount: 2
Fore
SplineSet
80 276 m 1
 -10 276 l 1
 1 327 l 1
 95 327 l 1
 119 408 l 1
 25 408 l 1
 39 455 l 1
 133 455 l 1
 182 621 l 1
 269 621 l 1
 220 455 l 1
 329 455 l 1
 315 408 l 1
 206 408 l 1
 182 327 l 1
 302 327 l 1
 291 276 l 1
 167 276 l 1
 111 89 l 2
 109 81 108 74 108 66 c 0
 108 49 117 38 131 38 c 0
 164 38 193 66 255 160 c 1
 285 140 l 1
 259 98 249 82 235 63 c 0
 200 16 144 -15 97 -15 c 0
 57 -15 25 19 25 61 c 0
 25 83 30 106 44 156 c 2
 80 276 l 1
EndSplineSet
EndChar

StartChar: Uogonek
Encoding: 370 370 306
Width: 815
Flags: MW
LayerCount: 2
Fore
SplineSet
597 722 m 1
 860 722 l 1
 855 675 l 1
 767 671 758 660 715 505 c 1
 659 294 l 1
 615 120 593 79 518 25 c 0
 483 0 471 -11 461 -27 c 0
 451 -43 445 -62 445 -76 c 0
 445 -95 465 -114 485 -114 c 0
 507 -114 528 -103 557 -77 c 1
 573 -99 l 1
 533 -139 502 -155 465 -155 c 0
 425 -155 396 -127 396 -87 c 0
 396 -56 409 -32 441 -5 c 1
 405 -12 378 -15 343 -15 c 0
 180 -15 93 52 93 176 c 0
 93 210 97 236 113 294 c 2
 195 599 l 2
 200 619 204 640 204 648 c 0
 204 670 190 675 125 675 c 2
 100 675 l 1
 105 722 l 1
 423 722 l 1
 417 675 l 1
 413 675 l 2
 364 675 340 671 330 661 c 0
 321 653 321 653 307 599 c 2
 217 266 l 2
 210 238 203 189 203 163 c 0
 203 78 262 28 364 28 c 0
 441 28 499 56 538 112 c 0
 562 146 574 179 603 290 c 2
 661 505 l 1
 683 594 684 598 684 620 c 0
 684 657 657 675 596 675 c 2
 591 675 l 1
 597 722 l 1
EndSplineSet
Ligature2: "CCMP" U uni0328
EndChar

StartChar: uogonek
Encoding: 371 371 307
Width: 611
Flags: MW
LayerCount: 2
Fore
SplineSet
526 153 m 1
 556 135 l 1
 518 76 503 58 463 20 c 0
 418 -22 403 -45 403 -75 c 0
 403 -95 423 -114 443 -114 c 0
 465 -114 486 -103 515 -77 c 1
 531 -99 l 1
 491 -139 460 -155 423 -155 c 0
 383 -155 354 -127 354 -88 c 0
 354 -60 363 -40 388 -14 c 1
 383 -15 377 -15 374 -15 c 0
 338 -15 311 13 311 51 c 0
 311 70 313 84 323 119 c 1
 264 27 207 -14 137 -14 c 0
 81 -14 42 23 42 78 c 0
 42 109 42 109 73 209 c 1
 113 344 l 2
 118 362 121 378 121 387 c 0
 121 410 106 419 65 419 c 2
 41 419 l 1
 44 455 l 1
 237 470 l 1
 139 142 l 2
 131 115 128 97 128 85 c 0
 128 61 147 42 171 42 c 0
 242 42 334 156 375 295 c 2
 422 455 l 1
 509 455 l 1
 410 123 l 2
 402 94 398 75 398 64 c 0
 398 51 407 40 417 40 c 0
 437 40 477 81 526 153 c 1
EndSplineSet
Ligature2: "CCMP" u uni0328
EndChar

StartChar: longs
Encoding: 383 383 319
Width: 333
Flags: MW
LayerCount: 2
Fore
SplineSet
219 455 m 1
 196 356 170 259 146 161 c 0
 123 69 65 -122 42 -184 c 1
 -68 -202 l 1
 -6 -64 45 87 80 234 c 2
 121 408 l 1
 32 408 l 1
 45 455 l 1
 132 455 l 1
 157 547 173 589 202 636 c 0
 241 701 296 736 359 736 c 0
 423 736 470 698 470 646 c 0
 470 616 447 593 416 593 c 0
 387 593 364 613 364 638 c 0
 364 647 366 655 373 666 c 0
 379 676 380 680 380 684 c 0
 380 694 369 701 356 701 c 0
 319 701 292 674 268 615 c 0
 248 568 243 550 219 455 c 1
EndSplineSet
EndChar

StartChar: uni018F
Encoding: 399 399 320
Width: 592
Flags: MW
LayerCount: 2
Fore
SplineSet
61 452 m 1
 29 488 l 1
 101 581 188 627 291 627 c 0
 435 627 521 540 521 396 c 0
 521 179 345 -20 151 -20 c 0
 57 -20 -8 36 -8 117 c 0
 -8 195 49 263 152 308 c 0
 212 335 239 343 395 380 c 1
 396 397 397 416 397 425 c 0
 397 511 348 564 268 564 c 0
 199 564 140 533 61 452 c 1
388 328 m 1
 313 312 291 305 252 288 c 0
 156 245 104 183 104 109 c 0
 104 64 133 33 177 33 c 0
 276 33 357 148 388 328 c 1
EndSplineSet
EndChar

StartChar: florin
Encoding: 402 402 321
Width: 556
Flags: MW
LayerCount: 2
Fore
SplineSet
463 433 m 1
 458 390 l 1
 320 390 l 1
 272 137 l 2
 247 5 228 -53 190 -109 c 0
 148 -170 94 -202 34 -202 c 0
 -20 -202 -57 -171 -57 -126 c 0
 -57 -90 -31 -63 5 -63 c 0
 33 -63 53 -82 53 -108 c 0
 53 -122 50 -127 36 -143 c 0
 33 -146 32 -149 32 -152 c 0
 32 -158 38 -162 46 -162 c 0
 76 -162 107 -137 124 -100 c 0
 143 -58 152 -25 176 105 c 2
 229 390 l 1
 109 390 l 1
 114 433 l 1
 236 433 l 1
 246 476 l 1
 260 544 291 619 321 658 c 0
 359 708 412 736 471 736 c 0
 527 736 563 706 563 660 c 0
 563 623 538 596 502 596 c 0
 474 596 453 614 453 639 c 0
 453 652 456 659 468 675 c 0
 472 681 474 684 474 687 c 0
 474 693 467 697 458 697 c 0
 429 697 399 672 381 633 c 0
 364 597 354 560 336 475 c 2
 327 433 l 1
 463 433 l 1
EndSplineSet
EndChar

StartChar: Scommaaccent
Encoding: 536 536 343
Width: 667
Flags: MW
LayerCount: 2
Fore
SplineSet
108 -329 m 1
 95 -298 l 1
 170 -263 212 -219 222 -168 c 1
 206 -168 l 2
 171 -168 149 -148 149 -115 c 0
 149 -80 179 -53 216 -53 c 0
 256 -53 286 -87 286 -133 c 0
 286 -210 217 -287 108 -329 c 1
EndSplineSet
Refer: 52 83 S 1 0 0 1 0 0 2
Ligature2: "CCMP" S uni0326
EndChar

StartChar: uni0237
Encoding: 567 567 345
Width: 315
Flags: MW
LayerCount: 2
Fore
SplineSet
279 470 m 1
 160 70 l 6
 117 -75 109 -95 79 -132 c 5
 40 -177 -11 -202 -64 -202 c 4
 -126 -202 -166 -171 -166 -122 c 4
 -166 -87 -143 -62 -110 -62 c 4
 -82 -62 -62 -81 -62 -109 c 4
 -62 -119 -63 -123 -70 -136 c 4
 -73 -141 -75 -146 -75 -150 c 4
 -75 -159 -65 -168 -54 -168 c 4
 -10 -168 26 -114 54 -5 c 4
 64 36 74 73 79 87 c 6
 155 344 l 2
 162 367 164 379 164 387 c 0
 164 410 148 419 107 419 c 2
 72 419 l 1
 76 455 l 1
 279 470 l 1
EndSplineSet
EndChar

StartChar: uni0259
Encoding: 601 601 346
Width: 444
Flags: MW
LayerCount: 2
Fore
SplineSet
46 339 m 1
 22 366 l 1
 76 436 141 470 218 470 c 0
 326 470 391 405 391 297 c 0
 391 134 259 -15 113 -15 c 0
 43 -15 -6 27 -6 88 c 0
 -6 146 37 197 114 231 c 0
 159 251 179 257 296 285 c 1
 297 298 298 312 298 319 c 0
 298 383 261 423 201 423 c 0
 149 423 105 400 46 339 c 1
291 246 m 1
 235 234 218 229 189 216 c 0
 117 184 78 137 78 82 c 0
 78 48 100 25 133 25 c 0
 207 25 268 111 291 246 c 1
EndSplineSet
EndChar

StartChar: circumflex
Encoding: 710 710 347
Width: 333
Flags: MW
LayerCount: 2
Fore
SplineSet
240 688 m 1
 331 519 l 1
 295 519 l 1
 209 623 l 1
 73 519 l 1
 37 519 l 1
 190 688 l 1
 240 688 l 1
EndSplineSet
EndChar

StartChar: caron
Encoding: 711 711 348
Width: 333
Flags: MW
LayerCount: 2
Fore
SplineSet
168 520 m 1
 73 683 l 1
 110 683 l 1
 199 585 l 1
 341 683 l 1
 378 683 l 1
 219 520 l 1
 168 520 l 1
EndSplineSet
EndChar

StartChar: breve
Encoding: 728 728 349
Width: 333
Flags: MW
LayerCount: 2
Fore
SplineSet
70 677 m 1
 100 677 l 1
 103 617 144 581 207 581 c 0
 267 581 314 615 339 677 c 1
 370 677 l 1
 352 580 287 518 203 518 c 0
 124 518 69 574 69 653 c 0
 69 658 69 667 70 677 c 1
EndSplineSet
EndChar

StartChar: dotaccent
Encoding: 729 729 350
Width: 333
Flags: MW
LayerCount: 2
Fore
SplineSet
167 644 m 0
 194 644 216 622 216 595 c 0
 216 568 194 546 167 546 c 0
 140 546 118 568 118 595 c 0
 118 622 140 644 167 644 c 0
EndSplineSet
EndChar

StartChar: ring
Encoding: 730 730 351
Width: 333
Flags: MW
LayerCount: 2
Fore
SplineSet
208 712 m 0
 262 712 307 667 307 613 c 0
 307 557 262 513 206 513 c 0
 153 513 108 559 108 613 c 0
 108 667 153 712 208 712 c 0
208 676 m 0
 173 676 144 647 144 613 c 0
 144 578 173 549 207 549 c 0
 243 549 271 577 271 613 c 0
 271 647 242 676 208 676 c 0
EndSplineSet
EndChar

StartChar: ogonek
Encoding: 731 731 352
Width: 333
Flags: MW
LayerCount: 2
Fore
SplineSet
119 0 m 1
 155 0 l 1
 128 -32 117 -53 117 -74 c 0
 117 -95 137 -114 158 -114 c 0
 179 -114 201 -103 229 -77 c 1
 245 -99 l 1
 205 -139 174 -155 137 -155 c 0
 97 -155 68 -127 68 -87 c 0
 68 -54 82 -30 119 0 c 1
EndSplineSet
EndChar

StartChar: tilde
Encoding: 732 732 353
Width: 333
Flags: MW
LayerCount: 2
Fore
SplineSet
350 650 m 1
 380 650 l 1
 373 592 331 545 287 545 c 0
 265 545 256 547 201 568 c 0
 157 584 141 589 127 589 c 0
 105 589 90 574 82 544 c 1
 52 544 l 1
 64 610 97 649 142 649 c 0
 159 649 183 643 242 623 c 0
 278 610 287 608 301 608 c 0
 323 608 338 620 350 650 c 1
EndSplineSet
EndChar

StartChar: hungarumlaut
Encoding: 733 733 354
Width: 333
Flags: MW
LayerCount: 2
Fore
SplineSet
134 519 m 1
 274 658 l 2
 299 682 309 688 324 688 c 0
 343 688 359 672 359 653 c 0
 359 640 348 623 334 614 c 2
 175 519 l 1
 134 519 l 1
295 519 m 1
 435 658 l 2
 460 682 470 688 485 688 c 0
 504 688 520 672 520 653 c 0
 520 639 510 623 495 614 c 2
 336 519 l 1
 295 519 l 1
EndSplineSet
EndChar

StartChar: uni0324
Encoding: 804 804 368
Width: 0
Flags: MW
LayerCount: 2
Fore
SplineSet
-370 -138 m 0
 -349 -138 -332 -155 -332 -176 c 0
 -332 -197 -349 -214 -370 -214 c 0
 -391 -214 -408 -197 -408 -176 c 0
 -408 -155 -391 -138 -370 -138 c 0
-209 -138 m 0
 -188 -138 -171 -155 -171 -176 c 0
 -171 -197 -188 -214 -209 -214 c 0
 -230 -214 -247 -197 -247 -176 c 0
 -247 -155 -230 -138 -209 -138 c 0
EndSplineSet
EndChar

StartChar: uni0325
Encoding: 805 805 369
Width: 0
Flags: MW
AnchorPoint: "Bottom" -300 0 mark 0
LayerCount: 2
Fore
SplineSet
-297 -92 m 2
 -298 -92 l 2
 -255 -92 -219 -128 -219 -171 c 0
 -219 -215 -255 -250 -299 -250 c 0
 -341 -250 -377 -214 -377 -171 c 0
 -377 -128 -341 -92 -297 -92 c 2
-298 -120 m 1
 -297 -119 l 1
 -325 -119 -348 -142 -348 -169 c 0
 -348 -197 -325 -220 -298 -220 c 0
 -270 -220 -248 -198 -248 -170 c 0
 -248 -143 -271 -120 -298 -120 c 1
EndSplineSet
EndChar

StartChar: uni0326
Encoding: 806 806 370
Width: 0
Flags: HMW
LayerCount: 2
Fore
SplineSet
-247 -288 m 1
 -259 -260 l 1
 -192 -230 -152 -188 -145 -143 c 1
 -160 -144 l 1
 -190 -144 -210 -125 -210 -96 c 0
 -210 -65 -184 -40 -150 -40 c 0
 -114 -40 -87 -70 -87 -112 c 0
 -87 -181 -150 -251 -247 -288 c 1
EndSplineSet
EndChar

StartChar: uni032E
Encoding: 814 814 373
Width: 0
Flags: MW
LayerCount: 2
Fore
SplineSet
-407 -119 m 1
 -380 -119 l 1
 -378 -167 -346 -195 -296 -195 c 0
 -248 -195 -211 -168 -191 -119 c 1
 -167 -119 l 1
 -181 -196 -233 -245 -300 -245 c 0
 -363 -245 -407 -201 -407 -138 c 2
 -407 -119 l 1
EndSplineSet
EndChar

StartChar: uni0330
Encoding: 816 816 374
Width: 0
Flags: MW
LayerCount: 2
Fore
SplineSet
-177 -133 m 1
 -153 -132 l 1
 -158 -178 -191 -215 -226 -215 c 0
 -243 -215 -250 -214 -294 -198 c 0
 -329 -186 -341 -182 -352 -182 c 0
 -369 -182 -381 -194 -387 -218 c 1
 -411 -218 l 1
 -402 -166 -376 -135 -340 -135 c 0
 -327 -135 -308 -139 -261 -155 c 0
 -233 -165 -226 -166 -215 -166 c 0
 -198 -166 -186 -157 -177 -133 c 1
EndSplineSet
EndChar

StartChar: uni0331
Encoding: 817 817 375
Width: 0
Flags: MW
LayerCount: 2
Fore
SplineSet
-286 -82 m 1
 -64 -82 l 1
 -64 -134 l 1
 -286 -134 l 1
 -286 -82 l 1
EndSplineSet
EndChar

StartChar: uni0394
Encoding: 916 916 380
Width: 621
VWidth: 1093
Flags: HMW
LayerCount: 2
Fore
SplineSet
5.46973 0 m 1
 506.522 752.672 l 1
 618.11 0 l 1
 5.46973 0 l 1
90.8018 55.7939 m 1
 499.958 55.7939 l 1
 423.378 556.846 l 1
 90.8018 55.7939 l 1
EndSplineSet
EndChar

StartChar: Theta
Encoding: 920 920 384
Width: 778
VWidth: 1093
Flags: HMW
LayerCount: 2
Fore
SplineSet
551.376 499.958 m 1
 493.394 248.338 l 1
 469.326 248.338 l 1
 471.514 262.56 473.702 274.594 473.702 284.44 c 0
 473.702 321.636 454.01 331.482 401.498 331.482 c 2
 368.678 331.482 l 2
 300.85 331.482 281.158 316.166 260.372 248.338 c 1
 236.304 248.338 l 1
 294.286 499.958 l 1
 318.354 499.958 l 1
 316.166 487.924 315.072 476.984 315.072 467.138 c 0
 315.072 428.848 334.764 417.908 385.088 417.908 c 2
 420.096 417.908 l 2
 485.736 417.908 506.522 433.224 527.308 499.958 c 1
 551.376 499.958 l 1
EndSplineSet
Refer: 391 927 N 1 0 0 1 0 0 2
EndChar

StartChar: Lambda
Encoding: 923 923 387
Width: 704
Flags: HMW
LayerCount: 2
Fore
SplineSet
442 737 m 1
 567 108 l 2
 577 56 588 47 643 47 c 2
 668 47 l 1
 663 0 l 1
 362 0 l 1
 367 47 l 1
 383 47 l 2
 440 47 455 54 455 83 c 0
 455 90 453.301 103.05 451 115 c 2
 363 572 l 1
 173 238 l 1
 118 142 l 2
 106 122 100 102 100 87 c 0
 100 57 117 47 169 47 c 2
 193 47 l 1
 187 0 l 1
 -82 0 l 1
 -77 47 l 1
 -23 47 18 80 71 168 c 1
 401 737 l 1
 442 737 l 1
363 572 m 1025
EndSplineSet
EndChar

StartChar: Xi
Encoding: 926 926 390
Width: 654
VWidth: 1093
Flags: HMW
LayerCount: 2
Fore
SplineSet
661.87 736.262 m 1
 630.144 552.47 l 1
 603.888 552.47 l 1
 603.888 561.222 604.982 568.88 604.982 575.444 c 0
 604.982 633.426 586.384 644.366 510.898 644.366 c 2
 282.252 644.366 l 2
 195.826 644.366 176.134 631.238 145.502 552.47 c 1
 119.246 552.47 l 1
 171.758 736.262 l 1
 661.87 736.262 l 1
549.188 196.92 m 1
 577.632 196.92 l 1
 492.3 0 l 1
 2.18848 0 l 1
 8.75195 196.92 l 1
 35.0078 196.92 l 1
 39.3838 107.212 60.1699 91.8965 173.946 91.8965 c 2
 348.986 91.8965 l 2
 474.796 91.8965 503.24 107.212 549.188 196.92 c 1
491.206 499.958 m 1
 433.224 248.338 l 1
 409.156 248.338 l 1
 411.344 262.56 413.532 274.594 413.532 285.534 c 0
 413.532 321.636 393.84 331.482 342.422 331.482 c 2
 308.508 331.482 l 2
 240.68 331.482 220.988 316.166 200.202 248.338 c 1
 176.134 248.338 l 1
 234.116 499.958 l 1
 259.278 499.958 l 1
 257.09 486.83 255.996 475.89 255.996 467.138 c 0
 255.996 428.848 274.594 417.908 324.918 417.908 c 2
 359.926 417.908 l 2
 425.566 417.908 446.352 433.224 467.138 499.958 c 1
 491.206 499.958 l 1
EndSplineSet
EndChar

StartChar: Sigma
Encoding: 931 931 394
Width: 722
VWidth: 1093
Flags: HMW
LayerCount: 2
Fore
SplineSet
-37.1104 0 m 1
 -21.2728 59 l 1
 244.338 350.08 l 1
 111 675 l 1
 117 722 l 1
 701 722 l 1
 662 481 l 1
 617 481 l 1
 617 516 l 2
 617 585 608 617 580 642 c 0
 555 664 521 675 478 675 c 2
 237.293 675 l 1
 351.174 403.686 l 1
 25.25 46.75 l 1
 307 47 l 2
 388 47.0723 446 65 494 106 c 0
 533 138 552 165 596 245 c 1
 601 253 l 1
 642 245 l 1
 564 0 l 1
 -37.1104 0 l 1
EndSplineSet
EndChar

StartChar: Psi
Encoding: 936 936 399
Width: 807
VWidth: 1093
Flags: HMW
LayerCount: 2
Fore
SplineSet
540 635 m 1
 548 665 l 2
 559.187 706.95 570 712 650 712 c 2
 670 712 l 1
 682 759 l 1
 351 759 l 1
 339 712 l 1
 359 712 l 2
 422 712 440 709 440 688 c 0
 440 682 438.376 673.908 436 665 c 2
 428 635 l 1
 350.631 340.234 l 1
 344.61 340.234 l 2
 300.854 340.234 271.312 345.704 254.902 355.55 c 1
 227.552 375.242 215.518 391.652 215.518 431.036 c 0
 215.518 455.104 219.894 489.018 228.646 536.06 c 0
 235.21 572.162 238.492 601.7 238.492 626.862 c 0
 238.492 710.006 201.296 742.826 111.588 750.484 c 1
 106.118 725.322 l 1
 131.28 718.758 143.314 705.63 143.314 676.092 c 0
 143.314 659.682 140.032 637.802 133.468 609.358 c 2
 109.4 517.462 l 2
 105.024 497.77 102.836 478.078 102.836 460.574 c 0
 102.836 410.25 120.34 368.678 155.348 340.234 c 0
 192.544 310.696 248.338 296.474 336.952 296.474 c 2
 339.145 296.474 l 1
 286 94 l 2
 274.979 52.0117 264 47 183 47 c 2
 163 47 l 1
 151 0 l 1
 482 0 l 1
 494 47 l 1
 474 47 l 2
 412 47 394 50 394 71 c 0
 394 77 395.411 84.1367 398 94 c 2
 451.145 296.474 l 1
 457.292 296.474 l 2
 532.779 296.474 587.478 306.32 633.426 328.2 c 1
 711.1 363.208 765.8 431.036 785.492 517.462 c 1
 804.09 609.358 l 1
 822.688 690.314 841.286 715.476 885.046 725.322 c 1
 890.516 750.484 l 1
 770.176 740.638 716.57 688.126 674.998 536.06 c 0
 642.178 417.908 629.05 394.934 578.726 362.114 c 0
 553.564 346.798 520.744 340.234 467.138 340.234 c 2
 462.631 340.234 l 1
 540 635 l 1
EndSplineSet
EndChar

StartChar: uni03A9
Encoding: 937 937 400
Width: 778
VWidth: 1093
Flags: HMW
LayerCount: 2
Fore
SplineSet
253.808 0 m 1
 -42.666 0 l 1
 -4.37598 167.382 l 1
 20.7861 167.382 l 1
 20.7861 163.006 19.6924 157.536 19.6924 154.254 c 0
 19.6924 114.87 38.29 98.46 74.3916 98.46 c 2
 223.176 98.46 l 1
 229.74 140.032 l 1
 195.826 154.254 177.228 165.194 157.536 181.604 c 0
 108.306 223.176 80.9561 284.44 80.9561 353.362 c 0
 80.9561 374.148 83.1436 396.028 88.6143 417.908 c 0
 105.024 490.112 153.16 571.068 216.612 632.332 c 0
 296.474 708.912 390.558 750.484 487.924 750.484 c 0
 584.196 750.484 659.682 708.912 704.536 632.332 c 0
 728.604 590.76 741.732 539.342 741.732 487.924 c 0
 741.732 463.856 738.45 440.882 732.98 417.908 c 0
 712.194 323.824 644.366 235.21 554.658 181.604 c 0
 526.214 165.194 502.146 154.254 463.856 140.032 c 1
 450.728 98.46 l 1
 599.512 98.46 l 2
 639.99 98.46 667.34 119.246 685.938 167.382 c 1
 710.006 167.382 l 1
 671.716 0 l 1
 374.148 0 l 1
 432.13 169.57 l 1
 521.838 217.706 596.23 315.072 619.204 417.908 c 0
 625.768 445.258 629.05 475.89 629.05 504.334 c 0
 629.05 534.966 625.768 564.504 618.11 590.76 c 0
 597.324 661.87 545.906 702.348 476.984 702.348 c 0
 406.968 702.348 336.952 661.87 284.44 590.76 c 1
 245.056 539.342 215.518 474.796 202.39 417.908 c 0
 196.92 393.84 193.638 369.772 193.638 346.798 c 0
 193.638 272.406 223.176 206.766 275.688 169.57 c 1
 253.808 0 l 1
EndSplineSet
EndChar

StartChar: alpha
Encoding: 945 945 401
Width: 653
Flags: HW
LayerCount: 2
Fore
SplineSet
673 458 m 0
 673 450 670 438 666 422 c 0
 657 376 642 328 621 276 c 0
 596 219 570 174 542 143 c 1
 542 129 542 118 541 107 c 0
 541 44 552 12 577 12 c 0
 597 12 614 23 628 43 c 0
 642 63 651 72 654 72 c 0
 661 72 666 69 666 64 c 0
 666 59 664 51 659 43 c 0
 635 6 602 -12 563 -12 c 0
 506 -12 468 20 449 85 c 1
 384 20 316 -12 244 -12 c 0
 190 -12 145 6 115 41 c 0
 88 72 75 113 75 164 c 0
 75 239 102 308 158 369 c 0
 219 435 292 468 375 469 c 0
 433 469 477 447 507 403 c 0
 531 368 542 323 542 269 c 2
 542 178 l 1
 586 240 618 328 639 445 c 0
 642 460 649 468 657 469 c 0
 667 468 673 464 673 458 c 0
446 110 m 1
 445 126 443 139 442 153 c 0
 442 164 443 180 444 202 c 0
 445 224 445 242 445 253 c 0
 445 380 417 444 362 444 c 0
 304 444 256 404 220 324 c 0
 191 259 175 194 174 128 c 0
 174 51 204 12 262 12 c 0
 321 12 382 45 446 110 c 1
EndSplineSet
EndChar

StartChar: beta
Encoding: 946 946 402
Width: 632
Flags: HWO
LayerCount: 2
Fore
SplineSet
654 613 m 0
 654 577 638 540 607 506 c 0
 577 474 537 448 489 428 c 1
 556 395 588 346 588 280 c 0
 588 209 565 144 519 84 c 0
 467 18 406 -14 335 -14 c 0
 261 -14 212 30 187 117 c 1
 101.870117188 -202 l 1
 11.373046875 -202 l 1
 189 462 l 0
 210 537 245 601 293 653 c 0
 350 717 417 748 495 748 c 0
 541 748 579 736 609 712 c 0
 639 688 654 654 654 613 c 0
423 428 m 1
 411 432 395 435 377 435 c 0
 357 435 340 431 328 425 c 1
 339 422 353 421 365 421 c 2
 384 421 l 2
 398 421 411 424 423 428 c 1
567 639 m 0
 567 662 559 680 545 697 c 0
 530 716 511 725 488 725 c 0
 416 725 355 663 305 539 c 0
 288 497 262 405 225 260 c 0
 213 212 206 179 206 159 c 0
 206 120 215 86 233 57 c 1
 253 27 279 12 313 11 c 0
 371 11 416 48 448 123 c 0
 473 181 486 247 486 318 c 0
 486 358 475 387 453 409 c 1
 428 400 399 395 365 395 c 0
 323 395 303 404 303 422 c 0
 303 446 330 458 383 458 c 0
 411 458 434 452 454 443 c 1
 486 462 512 491 533 532 c 1
 556 568 567 604 567 639 c 0
EndSplineSet
EndChar

StartChar: gamma
Encoding: 947 947 403
Width: 649
Flags: HW
LayerCount: 2
Fore
SplineSet
649 439 m 0
 649 427 621 362 566 247 c 0
 507 123 473 47 466 19 c 1
 458 -28 450 -74 443 -120 c 1
 430 -191 409 -227 382 -227 c 0
 366 -227 358 -217 358 -197 c 0
 358 -168 363 -134 373 -94 c 1
 382 -61 393 -27 403 6 c 1
 413 46 419 83 419 117 c 0
 419 297 362 387 250 387 c 0
 215 387 181 376 150 353 c 0
 126 334 105 307 86 269 c 0
 81 258 75 251 70 251 c 0
 63 251 59 256 59 263 c 0
 59 275 67 295 81 321 c 0
 130 420 191 469 267 469 c 0
 334 469 383 425 415 337 c 0
 437 278 449 204 452 117 c 1
 492 223 532 320 574 406 c 0
 591 440 609 458 629 458 c 0
 643 458 649 451 649 439 c 0
EndSplineSet
EndChar

StartChar: delta
Encoding: 948 948 404
Width: 608
Flags: HW
LayerCount: 2
Fore
SplineSet
652 676 m 0
 652 659 645 645 631 633 c 0
 617 621 598 614 575 614 c 0
 541 613 524 624 524 651 c 0
 524 666 530 678 543 690 c 0
 556 702 569 709 585 711 c 1
 558 724 524 730 485 730 c 0
 460 730 438 724 416 713 c 0
 392 700 381 684 381 664 c 0
 381 638 399 606 435 564 c 1
 495 496 529 456 536 446 c 0
 572 394 591 343 591 291 c 0
 591 217 559 150 496 86 c 0
 431 20 357 -12 273 -12 c 0
 217 -12 169 7 134 44 c 1
 94 77 75 117 75 166 c 0
 75 239 107 306 169 370 c 0
 235 437 308 469 387 469 c 0
 395 469 405 468 415 467 c 1
 367 545 343 604 343 645 c 0
 343 717 395 754 497 755 c 0
 531 754 563 747 593 736 c 0
 632 719 652 700 652 676 c 0
473 274 m 0
 473 325 459 380 431 435 c 1
 420 441 406 444 390 444 c 0
 328 444 277 408 234 336 c 0
 219 311 206 277 193 234 c 0
 180 191 174 156 174 128 c 0
 174 96 181 70 197 49 c 0
 214 24 239 12 271 12 c 0
 328 12 376 44 418 107 c 0
 454 161 473 217 473 274 c 0
EndSplineSet
EndChar

StartChar: epsilon
Encoding: 949 949 405
Width: 516
Flags: HW
LayerCount: 2
Fore
SplineSet
517 404 m 0
 517 395 513 386 505 377 c 0
 497 368 489 364 481 364 c 0
 472 364 454 369 428 377 c 0
 402 385 382 390 367 390 c 0
 326 390 288 385 254 374 c 0
 206 359 182 336 182 305 c 0
 182 288 194 273 218 262 c 1
 245 276 278 283 318 283 c 0
 363 283 385 274 385 254 c 0
 385 232 360 222 309 222 c 0
 271 222 241 228 218 239 c 1
 193 230 172 217 154 201 c 0
 132 182 122 164 122 145 c 0
 122 118 140 97 175 83 c 0
 200 75 231 70 267 70 c 0
 333 70 382 82 413 105 c 0
 422 111 433 115 441 115 c 0
 458 115 465 109 464 97 c 0
 464 90 457 78 444 62 c 0
 402 12 338 -12 251 -12 c 0
 205 -12 165 -2 132 19 c 0
 94 43 75 75 75 116 c 0
 75 143 87 169 110 195 c 0
 132 218 159 237 192 252 c 1
 157 271 140 294 141 323 c 0
 141 367 169 404 225 433 c 0
 273 457 321 469 373 469 c 0
 397 469 425 463 457 452 c 0
 497 438 517 422 517 404 c 0
359 254 m 1
 343 256 328 257 312 257 c 0
 289 257 268 255 249 252 c 1
 261 250 274 250 288 250 c 2
 323 250 l 2
 335 250 348 252 359 254 c 1
EndSplineSet
EndChar

StartChar: zeta
Encoding: 950 950 406
Width: 464
Flags: HW
LayerCount: 2
Fore
SplineSet
576 635 m 0
 576 613 540 602 471 602 c 0
 438 602 414 609 398 623 c 1
 331 584 273 525 224 445 c 0
 175 365 150 286 150 211 c 0
 150 134 183 83 250 60 c 2
 347 28 l 2
 390 17 422 2 442 -10 c 0
 468 -29 481 -53 481 -84 c 0
 481 -117 468 -148 443 -174 c 0
 417 -202 385 -216 348 -216 c 0
 335 -216 322 -214 309 -211 c 0
 296 -208 281 -200 265 -191 c 0
 244 -179 234 -169 234 -162 c 0
 234 -155 238 -151 245 -152 c 1
 283 -179 315 -192 338 -192 c 0
 357 -192 373 -185 386 -170 c 0
 398 -156 404 -140 404 -122 c 0
 404 -91 376 -66 319 -48 c 1
 281 -36 282 -35 244 -23 c 0
 211 -13 185 0 164 11 c 0
 105 46 75 101 75 176 c 0
 75 263 105 352 164 443 c 0
 223 534 295 600 380 641 c 1
 369 657 363 675 363 695 c 0
 363 724 371 739 387 739 c 0
 396 739 400 736 400 730 c 0
 400 726 400 719 397 711 c 0
 394 703 393 697 393 693 c 0
 393 677 399 663 408 648 c 1
 429 657 460 662 497 662 c 0
 550 662 576 654 576 635 c 0
551 632 m 1
 533 635 515 638 497 638 c 2
 471 638 l 2
 455 638 441 636 430 632 c 1
 439 628 450 625 463 625 c 2
 485 625 l 2
 512 625 534 627 551 632 c 1
EndSplineSet
EndChar

StartChar: eta
Encoding: 951 951 407
Width: 598
Flags: HW
LayerCount: 2
Fore
SplineSet
598 355 m 0
 598 336 594 315 585 292 c 2
 459 -180 l 2
 451 -204 431 -216 402 -216 c 0
 376 -216 361 -207 360 -189 c 0
 360 -185 362 -178 364 -170 c 2
 491 303 l 2
 502 327 507 349 507 370 c 0
 507 420 489 444 451 444 c 0
 398 444 350 416 306 359 c 0
 283 329 264 283 249 222 c 1
 233 148 234 147 218 73 c 1
 216 57 210 37 201 11 c 1
 190 -5 173 -12 150 -12 c 0
 123 -12 111 -4 112 14 c 0
 112 21 121 48 135 96 c 1
 140 115 151 143 164 183 c 1
 185 236 183 236 204 289 c 1
 218 333 226 367 226 395 c 0
 226 427 213 444 187 444 c 0
 151 444 121 402 95 320 c 0
 90 302 82 293 74 293 c 0
 65 293 59 297 59 304 c 0
 59 312 65 331 75 358 c 0
 88 391 102 416 113 431 c 0
 134 456 157 469 186 469 c 0
 217 469 243 459 262 438 c 1
 279 420 288 398 290 372 c 1
 339 436 399 469 470 469 c 0
 509 469 540 460 562 441 c 0
 586 420 598 390 598 355 c 0
EndSplineSet
EndChar

StartChar: theta
Encoding: 952 952 408
Width: 530
Flags: HW
LayerCount: 2
Fore
SplineSet
576 531 m 0
 576 469 564 402 539 330 c 0
 513 254 477 183 429 117 c 0
 366 31 300 -12 232 -12 c 0
 180 -12 143 14 119 67 c 0
 102 105 93 150 92 204 c 0
 92 264 105 330 132 402 c 0
 160 480 198 550 250 615 c 1
 312 704 378 748 443 748 c 0
 493 748 529 722 552 669 c 0
 568 631 576 585 576 531 c 0
485 594 m 0
 485 681 466 724 427 724 c 0
 389 724 350 685 307 610 c 0
 280 561 253 486 227 385 c 1
 452 385 l 1
 474 470 485 541 485 594 c 0
444 348 m 1
 218 348 l 1
 195 257 183 188 183 141 c 0
 183 55 203 12 243 12 c 0
 278 12 316 46 357 115 c 0
 390 171 419 249 444 348 c 1
EndSplineSet
EndChar

StartChar: iota
Encoding: 953 953 409
Width: 367
Flags: HW
LayerCount: 2
Fore
SplineSet
380 154 m 0
 380 150 375 137 365 117 c 0
 316 31 261 -12 198 -12 c 0
 167 -12 142 -3 123 15 c 0
 104 33 94 57 94 85 c 0
 94 96 96 118 100 147 c 2
 171 414 l 2
 184 449 205 468 234 469 c 0
 261 469 273 460 273 442 c 0
 273 438 272 429 269 414 c 2
 188 112 l 2
 186 101 185 88 185 73 c 0
 185 33 196 12 218 12 c 0
 268 12 311 56 350 140 c 0
 353 146 354 146 360 158 c 1
 362 160 365 161 369 161 c 0
 376 161 380 159 380 154 c 0
EndSplineSet
EndChar

StartChar: kappa
Encoding: 954 954 410
Width: 620
Flags: HW
LayerCount: 2
Fore
SplineSet
162.344726562 348 m 17
 168.344726562 370 171.344726562 383 171.344726562 392 c 0
 171.344726562 414 155.344726562 423 114.344726562 423 c 2
 90.3447265625 423 l 1
 94.3447265625 459 l 1
 286.344726562 474 l 9
 230 265 l 1
 254 273 281 296 313 328 c 0
 393 396 437 430 441 433 c 0
 489 456 533 468 573 469 c 0
 606 469 622 455 622 429 c 0
 622 413 614 401 598 388 c 0
 582 375 567 368 547 368 c 0
 514 368 497 381 496 405 c 0
 496 413 493 423 486 429 c 1
 456 417 416 386 367 339 c 0
 311 292 267 263 236 253 c 1
 361 242 423 205 422 144 c 0
 422 134 420 120 414 102 c 0
 408 84 405 70 405 61 c 0
 405 29 418 12 446 12 c 0
 490 12 528 54 558 136 c 0
 563 150 571 157 578 157 c 0
 587 157 591 155 591 149 c 0
 591 140 584 121 573 96 c 0
 540 24 496 -12 440 -12 c 0
 403 -12 374 -3 351 16 c 0
 328 35 316 60 316 88 c 0
 316 94 319 103 323 115 c 0
 327 127 330 137 330 144 c 0
 330 197 294 228 222 237 c 1
 156.013671875 -12 l 1
 58.2626953125 -12 l 1
 162.344726562 348 l 17
EndSplineSet
EndChar

StartChar: lambda
Encoding: 955 955 411
Width: 570
Flags: HW
LayerCount: 2
Fore
SplineSet
571 -3 m 0
 571 -9 561 -12 541 -12 c 0
 506 -12 482 -9 471 -3 c 0
 460 3 447 18 435 42 c 0
 416 95 385 184 342 310 c 1
 298 258 233 180 145 75 c 1
 129 53 107 25 77 -7 c 1
 69 -13 61 -15 55 -14 c 0
 35 -14 25 -6 25 12 c 0
 25 21 31 33 45 48 c 2
 322 328 l 2
 324 331 328 335 332 339 c 1
 314 393 280 488 232 626 c 0
 225 647 218 661 214 668 c 0
 206 687 198 698 190 702 c 1
 179 705 179 705 168 708 c 0
 158 712 153 717 154 723 c 0
 154 732 161 737 176 736 c 0
 259 736 311 709 333 657 c 2
 544 50 l 2
 550 31 558 16 566 6 c 0
 569 1 571 -2 571 -3 c 0
EndSplineSet
EndChar

StartChar: uni03BC
Encoding: 956 956 412
Width: 595
Flags: HW
LayerCount: 2
Fore
SplineSet
11.42578125 -202 m 9
 107.282226562 -202 l 1
 168 25 l 1
 193 0 226 -12 269 -12 c 0
 323 -12 369 15 408 69 c 1
 412 45 423 26 441 10 c 0
 458 -6 478 -12 502 -12 c 0
 543 -12 574 24 597 99 c 0
 605 125 610 145 610 154 c 0
 610 160 606 163 599 163 c 0
 594 163 589 156 585 141 c 0
 574 101 564 76 558 62 c 0
 542 29 524 12 503 12 c 0
 481 12 471 29 471 62 c 0
 471 91 477 125 488 166 c 1
 497 201 507 236 516 270 c 1
 526 309 534 337 539 356 c 0
 551 404 564.698242188 453 564.69921875 455 c 0
 517.732421875 455 l 0
 472.842773438 455 l 2
 385 127 l 2
 382 112 376 98 368 86 c 0
 338 36 305 12 267 12 c 0
 222 12 199 43 199 105 c 0
 199 126 204 155 213 191 c 2
 264 381 l 2
 274.119350921 418.699542647 287 469 287 472 c 0
 90 455 l 1
 86 419 l 1
 110 419 l 2
 151 419 167 410 167 388 c 0
 167 379 17.42578125 -180 11.42578125 -202 c 9
EndSplineSet
EndChar

StartChar: nu
Encoding: 957 957 413
Width: 599
Flags: HW
LayerCount: 2
Fore
SplineSet
600 442 m 0
 600 433 596 420 591 402 c 0
 558 309 503 228 426 159 c 0
 351 92 264 43 162 12 c 0
 135 3 110 -2 86 -2 c 0
 79 -2 75 1 75 6 c 0
 75 8 75 7 75 9 c 2
 169 386 l 2
 171 394 172 401 172 406 c 0
 172 418 160 425 134 425 c 0
 108 425 95 429 95 436 c 0
 95 446 102 454 117 458 c 1
 137 459 167 461 207 464 c 0
 247 467 270 469 272 469 c 0
 282 469 287 465 287 459 c 0
 287 457 278 424 257 358 c 2
 147 30 l 1
 248 60 328 112 390 186 c 0
 436 241 481 324 525 433 c 0
 535 457 551 469 570 469 c 0
 591 469 600 460 600 442 c 0
EndSplineSet
EndChar

StartChar: xi
Encoding: 958 958 414
Width: 545
Flags: HW
LayerCount: 2
Fore
SplineSet
596 635 m 0
 596 613 561 602 492 602 c 0
 453 602 426 609 409 626 c 1
 373 609 341 584 317 552 c 0
 292 519 281 483 281 444 c 0
 281 406 293 377 318 356 c 1
 352 365 389 371 435 372 c 0
 494 372 524 363 524 343 c 0
 524 322 489 311 419 311 c 0
 381 311 348 314 321 320 c 1
 304 325 l 1
 297 325 285 319 266 308 c 0
 181 256 138 201 138 145 c 0
 138 103 175 71 251 47 c 2
 373 4 l 2
 429 -16 460 -27 466 -29 c 0
 503 -47 522 -70 522 -100 c 0
 522 -130 510 -158 484 -181 c 0
 458 -204 427 -216 393 -216 c 0
 375 -216 359 -213 341 -209 c 0
 328 -205 313 -198 294 -190 c 0
 272 -180 260 -169 260 -162 c 0
 260 -155 265 -151 275 -152 c 1
 287 -161 305 -170 328 -179 c 0
 351 -188 369 -192 385 -192 c 0
 401 -192 414 -186 425 -175 c 0
 436 -164 442 -152 442 -137 c 0
 442 -123 435 -110 423 -101 c 0
 419 -96 390 -87 337 -71 c 0
 245 -42 187 -21 164 -11 c 0
 97 22 64 62 64 110 c 0
 64 154 86 197 130 242 c 0
 168 282 215 314 271 338 c 1
 203 364 171 402 172 452 c 0
 172 499 195 541 241 579 c 0
 280 611 331 633 390 649 c 1
 383 660 380 676 381 695 c 0
 381 725 389 739 405 739 c 0
 415 739 421 736 421 730 c 0
 421 726 420 719 417 710 c 0
 414 701 414 694 414 689 c 0
 414 675 416 664 420 655 c 1
 443 658 476 661 515 662 c 0
 569 662 596 654 596 635 c 0
572 632 m 1
 553 635 535 638 516 638 c 2
 481 638 l 2
 464 638 449 636 437 634 c 1
 448 628 464 625 483 625 c 2
 511 625 l 2
 534 625 554 627 572 632 c 1
489 342 m 1
 461 346 436 348 412 347 c 0
 389 347 367 345 343 342 c 1
 357 337 374 334 393 334 c 2
 435 334 l 2
 458 334 476 337 489 342 c 1
EndSplineSet
EndChar

StartChar: omicron
Encoding: 959 959 415
Width: 574
Flags: HW
LayerCount: 2
Fore
SplineSet
575 292 m 4
 575 218 544 150 483 86 c 4
 420 20 349 -12 268 -12 c 4
 214 -12 168 7 134 44 c 5
 94 77 75 117 75 165 c 4
 75 238 113 305 187 368 c 5
 250 435 320 469 398 469 c 4
 450 469 493 451 527 416 c 4
 558 384 575 342 575 292 c 4
474 329 m 4
 474 361 467 386 452 407 c 4
 435 432 412 444 381 444 c 4
 322 444 272 408 231 336 c 4
 217 311 204 277 192 234 c 4
 180 191 174 156 174 128 c 4
 174 96 181 70 196 49 c 4
 212 24 236 12 267 12 c 4
 351 12 413 80 454 216 c 4
 468 261 474 299 474 329 c 4
EndSplineSet
EndChar

StartChar: pi
Encoding: 960 960 416
Width: 611
Flags: HW
LayerCount: 2
Fore
SplineSet
631 383 m 17
 473 383 l 1
 459 325 452 269 452 214 c 0
 452 151 461 97 480 49 c 0
 485 35 488 28 488 26 c 0
 488 16 483 7 472 -1 c 0
 461 -9 449 -12 438 -12 c 0
 402 -12 382 30 381 114 c 0
 381 171 403 261 446 383 c 1
 306 383 l 1
 292 330 264 223 219 60 c 1
 217 50 211 35 203 14 c 1
 194 -4 182 -12 167 -12 c 0
 147 -12 138 -4 138 15 c 0
 138 20 141 29 147 41 c 0
 212 183 256 296 281 383 c 1
 219 383 l 2
 191 383 165 376 141 359 c 0
 126 349 111 334 95 313 c 0
 83 296 74 288 70 288 c 0
 62 288 58 293 58 299 c 256
 58 305 66 322 85 348 c 0
 133 417 181 450 231 450 c 2
 649 450 l 25
 631 383 l 17
EndSplineSet
EndChar

StartChar: rho
Encoding: 961 961 417
Width: 564
Flags: HW
LayerCount: 2
Fore
SplineSet
565 290 m 0
 565 216 537 149 480 85 c 0
 421 19 353 -12 277 -12 c 0
 229 -12 195 13 174 66 c 1
 162 21 142 -49 117 -144 c 1
 102.588867188 -202 l 1
 8.052734375 -202 l 1
 46.2470703125 -58.544921875 84.7043913582 86.6465201002 123 230 c 0
 139 290 168 343 213 389 c 0
 263 442 318 469 377 469 c 0
 429 469 472 450 503 414 c 1
 544 381 565 340 565 290 c 0
463 329 m 0
 463 361 457 386 443 407 c 0
 427 432 407 444 379 444 c 0
 310 444 257 373 218 230 c 0
 198 160 188 119 188 108 c 0
 188 100 189 89 193 77 c 0
 210 34 236 12 272 12 c 0
 351 12 409 80 446 216 c 0
 457 260 463 298 463 329 c 0
EndSplineSet
EndChar

StartChar: sigma1
Encoding: 962 962 418
Width: 498
Flags: HW
LayerCount: 2
Fore
SplineSet
523 432 m 0
 523 418 517 412 505 413 c 0
 502 413 496 415 487 419 c 0
 456 434 426 441 399 441 c 0
 341 441 287 425 237 392 c 0
 181 356 153 313 153 263 c 0
 153 236 160 215 176 198 c 0
 187 187 207 172 235 156 c 1
 262 143 302 123 355 97 c 1
 385 84 405 71 415 61 c 0
 428 48 436 30 436 7 c 0
 436 -24 422 -52 398 -77 c 0
 374 -102 345 -116 312 -116 c 0
 301 -116 286 -114 269 -110 c 0
 247 -104 237 -96 237 -87 c 0
 237 -79 242 -75 250 -76 c 0
 255 -76 264 -79 275 -83 c 0
 286 -87 296 -88 303 -88 c 0
 318 -88 329 -83 338 -72 c 0
 347 -61 351 -48 351 -34 c 0
 351 -13 337 5 309 19 c 2
 209 68 l 2
 163 89 131 109 112 128 c 0
 87 153 75 186 75 223 c 0
 75 292 111 351 184 401 c 0
 250 447 323 469 401 469 c 0
 426 469 449 466 473 462 c 0
 507 455 523 445 523 432 c 0
EndSplineSet
EndChar

StartChar: sigma
Encoding: 963 963 419
Width: 635
Flags: HW
LayerCount: 2
Fore
SplineSet
666 425 m 0
 666 399 649 386 613 386 c 2
 511 386 l 1
 546 355 563 316 563 272 c 0
 563 202 533 138 472 79 c 0
 410 18 340 -12 262 -12 c 0
 209 -12 167 6 135 41 c 1
 95 73 75 114 75 163 c 0
 75 235 105 299 165 358 c 0
 227 419 297 450 376 450 c 2
 626 450 l 2
 653 451 666 443 666 425 c 0
464 287 m 0
 464 317 455 342 437 359 c 0
 419 376 395 386 364 386 c 0
 305 386 257 355 219 293 c 0
 187 241 170 184 170 122 c 0
 170 92 177 66 192 46 c 0
 209 24 232 12 261 12 c 0
 314 12 362 45 406 112 c 0
 444 171 463 231 464 287 c 0
EndSplineSet
EndChar

StartChar: tau
Encoding: 964 964 420
Width: 541
Flags: HW
LayerCount: 2
Fore
SplineSet
571 423 m 0
 571 396 555 383 523 383 c 2
 360 383 l 1
 290 32 l 2
 282 3 262 -12 232 -12 c 0
 204 -12 191 -4 191 15 c 0
 191 17 192 24 196 35 c 2
 334 383 l 1
 233 383 l 2
 199 383 168 376 141 359 c 1
 127 349 112 334 95 313 c 0
 83 296 74 288 70 288 c 0
 63 288 59 293 59 299 c 256
 59 305 69 322 88 348 c 0
 137 417 185 450 235 450 c 2
 535 450 l 2
 559 450 571 441 571 423 c 0
EndSplineSet
EndChar

StartChar: upsilon
Encoding: 965 965 421
Width: 608
Flags: HW
LayerCount: 2
Fore
SplineSet
610 397 m 0
 610 370 603 334 589 288 c 0
 529 88 437 -12 314 -12 c 0
 200 -12 144 31 144 117 c 0
 144 158 167 221 212 311 c 0
 237 360 249 392 249 408 c 0
 249 431 238 443 216 444 c 0
 182 444 154 429 132 398 c 0
 122 382 109 354 93 313 c 0
 88 301 81 294 74 294 c 0
 65 294 59 298 59 305 c 0
 59 311 65 325 76 347 c 0
 114 427 166 469 229 469 c 0
 259 469 283 461 303 444 c 0
 323 427 333 406 333 382 c 0
 333 368 325 343 307 307 c 0
 259 214 235 147 235 105 c 0
 235 44 264 12 324 12 c 0
 411 12 479 83 531 225 c 0
 543 260 550 286 550 304 c 0
 550 327 539 352 515 380 c 0
 491 408 479 421 479 422 c 0
 479 434 485 446 499 455 c 0
 513 464 530 469 547 469 c 0
 588 469 610 445 610 397 c 0
EndSplineSet
EndChar

StartChar: phi
Encoding: 966 966 422
Width: 663
Flags: HW
LayerCount: 2
Fore
SplineSet
641 260 m 0
 641 193 606 132 538 76 c 0
 470 19 391 -10 303 -12 c 1
 299 -30 285 -79 263 -159 c 0
 260 -172 256 -186 252 -201 c 1
 248 -203 242 -205 238 -206 c 0
 227 -206 221 -202 221 -195 c 0
 221 -193 227 -163 242 -105 c 1
 247 -85 256 -54 267 -12 c 1
 200 -9 145 10 106 45 c 0
 68 78 48 119 48 167 c 0
 48 235 84 298 152 353 c 0
 220 408 300 437 388 439 c 1
 444 668 l 2
 448 682 456 688 466 687 c 0
 476 687 481 684 481 678 c 1
 480 663 l 1
 424 439 l 1
 497 435 552 413 591 374 c 0
 624 342 641 304 641 260 c 0
550 280 m 0
 550 321 537 353 512 378 c 0
 489 401 458 413 417 415 c 1
 309 12 l 1
 380 18 439 51 486 108 c 0
 529 159 550 217 550 280 c 0
382 415 m 1
 309 409 250 376 203 319 c 0
 160 268 139 212 139 149 c 0
 139 105 155 70 186 45 c 1
 209 25 239 14 274 12 c 1
 382 415 l 1
EndSplineSet
EndChar

StartChar: chi
Encoding: 967 967 423
Width: 564
Flags: HW
LayerCount: 2
Fore
SplineSet
576 458 m 0
 576 456 502 354 354 153 c 1
 370 92 388 29 410 -33 c 0
 438 -123 462 -174 480 -188 c 0
 485 -191 490 -192 495 -192 c 0
 512 -192 526 -182 537 -163 c 0
 548 -144 555 -136 558 -136 c 0
 565 -136 569 -139 568 -145 c 0
 568 -151 565 -160 560 -169 c 0
 540 -200 510 -216 473 -216 c 0
 437 -216 407 -209 386 -194 c 0
 360 -176 335 -126 308 -45 c 0
 295 -2 285 32 278 55 c 1
 74 -210 l 2
 71 -213 65 -215 58 -215 c 0
 48 -215 44 -212 45 -206 c 0
 45 -203 119 -102 266 96 c 1
 208 327 160 444 126 444 c 0
 110 444 96 434 82 415 c 0
 68 396 60 387 58 387 c 0
 50 387 46 391 47 398 c 0
 47 402 52 411 58 421 c 0
 79 453 107 469 142 469 c 0
 183 469 217 459 241 439 c 0
 260 424 282 382 306 312 c 0
 308 305 320 265 341 195 c 1
 541 454 l 2
 548 463 556 469 562 469 c 0
 571 469 576 465 576 458 c 0
EndSplineSet
EndChar

StartChar: psi
Encoding: 968 968 424
Width: 759
Flags: HW
LayerCount: 2
Fore
SplineSet
762 397 m 0
 762 299 729 209 666 127 c 0
 595 34 510 -12 407 -12 c 1
 396 -60 387 -96 381 -119 c 0
 365 -177 354 -208 349 -212 c 0
 346 -214 342 -216 338 -216 c 0
 327 -216 321 -212 321 -206 c 0
 321 -203 330 -170 349 -108 c 1
 354 -86 363 -54 373 -11 c 1
 225 -3 152 47 152 138 c 0
 152 171 168 217 203 277 c 0
 236 336 254 380 254 408 c 0
 254 431 243 443 221 444 c 0
 189 444 164 432 143 406 c 0
 131 391 117 367 104 333 c 0
 92 307 82 294 76 294 c 0
 66 294 59 298 59 305 c 0
 59 310 64 322 72 343 c 0
 111 426 165 469 231 469 c 0
 262 469 287 461 307 444 c 0
 327 427 338 405 338 380 c 0
 338 366 328 343 312 310 c 0
 267 221 244 162 244 131 c 0
 244 62 289 23 379 15 c 1
 553 716 l 2
 557 731 564 738 573 738 c 0
 584 738 591 734 591 728 c 0
 591 726 589 720 586 712 c 2
 413 12 l 1
 482 12 547 43 610 108 c 0
 671 172 701 236 701 304 c 0
 701 326 689 351 665 379 c 0
 641 407 630 421 630 422 c 0
 630 434 639 446 653 455 c 0
 667 464 684 469 701 469 c 0
 741 469 762 445 762 397 c 0
EndSplineSet
EndChar

StartChar: omega
Encoding: 969 969 425
Width: 752
Flags: HW
LayerCount: 2
Fore
SplineSet
754 399 m 0
 754 367 747 324 731 274 c 0
 708 200 680 139 645 91 c 0
 594 22 534 -12 466 -12 c 0
 403 -12 368 25 362 102 c 1
 312 25 255 -12 191 -12 c 0
 114 -12 75 36 75 134 c 0
 75 222 103 311 159 403 c 0
 181 438 196 456 205 456 c 0
 213 456 216 452 215 445 c 0
 215 443 212 438 207 429 c 0
 146 335 115 255 115 188 c 0
 115 156 122 128 134 108 c 0
 150 83 173 70 203 70 c 0
 253 70 298 101 339 164 c 1
 353 262 378 312 414 312 c 0
 431 312 440 305 440 290 c 0
 440 265 421 222 383 160 c 1
 386 101 414 70 468 70 c 0
 526 70 579 98 627 153 c 0
 671 204 693 256 693 308 c 0
 693 330 680 353 657 381 c 0
 634 409 623 424 623 425 c 0
 623 437 632 448 646 457 c 0
 660 466 677 471 693 471 c 0
 734 471 754 447 754 399 c 0
EndSplineSet
EndChar

StartChar: theta1
Encoding: 977 977 426
Width: 674
Flags: HW
LayerCount: 2
Fore
SplineSet
676 358 m 0
 676 350 672 346 665 346 c 0
 655 346 636 349 607 356 c 1
 583 273 548 197 500 128 c 0
 436 34 369 -12 297 -12 c 0
 194 -12 142 28 142 108 c 0
 142 133 149 167 162 208 c 0
 177 249 184 279 184 300 c 0
 184 332 171 347 147 347 c 0
 123 347 105 339 93 321 c 0
 81 303 74 295 73 295 c 0
 64 295 59 299 59 306 c 0
 59 328 70 346 92 357 c 0
 111 367 133 372 160 372 c 0
 193 372 221 363 242 345 c 0
 263 327 272 304 272 277 c 0
 272 266 263 232 247 178 c 0
 238 152 232 125 231 96 c 0
 231 41 258 12 312 12 c 0
 355 12 396 55 440 139 c 0
 470 196 498 277 523 380 c 1
 402 416 342 475 342 556 c 0
 342 600 358 641 391 682 c 0
 426 727 468 748 516 748 c 0
 566 748 599 723 621 671 c 0
 635 636 644 593 645 540 c 0
 645 493 635 440 614 381 c 1
 655 372 676 364 676 358 c 0
560 604 m 0
 560 685 542 725 504 724 c 0
 469 724 438 704 412 664 c 0
 389 629 378 591 378 556 c 0
 378 486 428 434 529 401 c 1
 550 492 560 560 560 604 c 0
EndSplineSet
EndChar

StartChar: phi1
Encoding: 981 981 427
Width: 613
Flags: HW
LayerCount: 2
Fore
SplineSet
615 314 m 0
 615 232 584 158 523 91 c 0
 461 22 388 -12 304 -12 c 0
 293 -12 279 -11 268 -9 c 1
 259 -67 247 -129 235 -191 c 1
 225 -209 213 -217 198 -216 c 0
 179 -216 170 -207 170 -189 c 0
 170 -178 177 -147 193 -98 c 1
 203 -66 215 -34 226 -3 c 1
 125 17 75 75 75 173 c 0
 75 244 101 323 152 408 c 0
 173 441 190 458 202 458 c 0
 210 458 214 454 214 448 c 0
 214 447 209 442 201 432 c 0
 144 358 115 283 115 208 c 0
 115 126 158 77 243 60 c 1
 257 105 274 155 295 211 c 0
 324 292 345 346 357 371 c 0
 393 436 438 468 488 469 c 0
 572 469 615 417 615 314 c 0
578 289 m 0
 578 364 542 402 471 402 c 0
 433 402 401 383 374 344 c 0
 353 315 336 272 320 219 c 1
 311 180 300 142 290 103 c 0
 284 79 281 65 281 59 c 0
 281 56 289 54 306 54 c 0
 356 54 403 66 448 92 c 0
 493 118 527 151 550 194 c 0
 569 230 578 261 578 289 c 0
EndSplineSet
EndChar

StartChar: omega1
Encoding: 982 982 428
Width: 803
Flags: HW
LayerCount: 2
Fore
SplineSet
833 427 m 0
 833 400 816 387 784 387 c 2
 759 387 l 1
 758 306 733 223 684 139 c 0
 626 38 557 -12 475 -12 c 0
 412 -12 378 25 372 101 c 1
 320 25 261 -12 195 -12 c 0
 115 -12 75 37 75 136 c 0
 75 225 103 314 159 407 c 0
 181 442 196 461 205 461 c 0
 213 461 216 457 215 450 c 0
 215 448 212 442 207 433 c 0
 146 338 115 258 115 189 c 0
 115 157 123 129 136 108 c 0
 154 82 180 70 213 70 c 0
 269 70 319 100 365 162 c 1
 379 258 404 307 440 307 c 0
 457 307 466 300 466 286 c 0
 466 261 447 220 409 159 c 1
 412 101 439 70 489 70 c 0
 560 70 615 109 653 186 c 0
 682 244 697 312 699 387 c 1
 613 388 529 399 444 418 c 0
 321 446 258 485 257 537 c 0
 258 574 283 604 332 625 c 0
 371 642 414 650 462 650 c 0
 631 650 727 584 753 454 c 1
 797 454 l 2
 820 454 833 445 833 427 c 0
699 454 m 1
 690 502 667 541 631 569 c 0
 595 597 548 612 491 612 c 0
 456 612 425 608 399 599 c 0
 362 588 343 569 344 543 c 0
 344 509 394 484 496 469 c 0
 557 460 625 454 699 454 c 1
EndSplineSet
EndChar

StartChar: afii10023
Encoding: 1025 1025 430
Width: 722
Flags: MW
LayerCount: 2
Fore
SplineSet
356 900 m 0
 383 900 405 878 405 851 c 0
 405 824 383 802 355 802 c 0
 329 802 307 824 307 851 c 0
 307 878 329 900 356 900 c 0
558 900 m 0
 585 900 607 878 607 851 c 0
 607 824 585 802 557 802 c 0
 531 802 509 824 509 851 c 0
 509 878 531 900 558 900 c 0
EndSplineSet
Refer: 38 69 S 1 0 0 1 0 0 2
EndChar

StartChar: afii10051
Encoding: 1026 1026 431
Width: 685
Flags: MW
LayerCount: 2
Fore
SplineSet
458 619 m 2
 401 401 l 1
 514 401 l 2
 604 401 649 394 684 375 c 0
 731 349 756 306 756 252 c 0
 756 235 753 217 748 198 c 0
 728 122 678 64 603 31 c 0
 559 11 494 0 425 0 c 2
 80 0 l 1
 85 47 l 1
 107 47 l 2
 156 47 180 51 191 61 c 0
 199 69 200 70 214 123 c 2
 350 633 l 2
 353 644 355 653 355 658 c 0
 355 670 345 675 322 675 c 2
 308 675 l 2
 254 675 207 650 167 598 c 0
 140 564 130 547 81 458 c 1
 40 464 l 1
 128 722 l 1
 726 722 l 1
 684 447 l 1
 642 452 l 1
 644 493 644 504 644 522 c 0
 644 580 630 628 607 650 c 0
 589 666 560 675 522 675 c 2
 508 675 l 2
 477 675 472 670 458 619 c 2
388 354 m 1
 321 98 l 2
 317 85 315 75 315 68 c 0
 315 50 329 47 368 47 c 2
 432 47 l 2
 536 47 598 96 626 202 c 0
 632 223 634 242 634 259 c 0
 634 323 593 354 509 354 c 2
 388 354 l 1
EndSplineSet
EndChar

StartChar: afii10053
Encoding: 1028 1028 433
Width: 750
Flags: MW
LayerCount: 2
Fore
SplineSet
295 -15 m 0
 135 -15 40 86 40 239 c 0
 40 275 45 313 56 354 c 0
 84 457 136 541 221 617 c 1
 310 698 401 737 498 737 c 0
 565 737 591 733 648 681 c 1
 704 740 l 1
 742 740 l 1
 679 451 l 1
 635 451 l 1
 633 528 628 567 618 600 c 0
 597 664 554 690 484 690 c 0
 420 690 349 655 303 599 c 0
 260 548 227 485 200 397 c 1
 487 397 l 1
 474 350 l 1
 187 350 l 1
 171 289 163 237 163 193 c 0
 163 85 214 32 320 32 c 0
 401 32 474 67 534 136 c 0
 560 166 581 202 606 255 c 1
 651 247 l 1
 583 79 455 -15 295 -15 c 0
EndSplineSet
EndChar

StartChar: afii10056
Encoding: 1031 1031 436
Width: 407
Flags: MW
LayerCount: 2
Fore
SplineSet
195 910 m 0
 222 910 244 888 244 861 c 0
 244 834 222 812 194 812 c 0
 168 812 146 834 146 861 c 0
 146 888 168 910 195 910 c 0
397 910 m 0
 424 910 446 888 446 861 c 0
 446 834 424 812 396 812 c 0
 370 812 348 834 348 861 c 0
 348 888 370 910 397 910 c 0
EndSplineSet
Refer: 42 73 S 1 0 0 1 0 0 2
EndChar

StartChar: afii10058
Encoding: 1033 1033 438
Width: 916
Flags: MW
LayerCount: 2
Fore
SplineSet
806 586 m 1
 754 388 l 1
 867 388 l 2
 957 388 1002 381 1037 362 c 0
 1084 336 1109 293 1109 239 c 0
 1109 222 1106 204 1101 185 c 0
 1081 109 1031 51 956 18 c 0
 912 -2 847 -13 778 -13 c 2
 428 -13 l 1
 444 47 l 1
 462 47 l 2
 543 47 555 52 565 94 c 2
 572 123 l 1
 698 600 l 2
 700 605 701 611 701 616 c 0
 701 641 681 667 640 669 c 1
 587 668 l 1
 585 668 l 2
 517 668 487 620 453 492 c 0
 401 300 329 -15 100 -15 c 0
 32 -15 -2 40 -2 121 c 0
 -2 167 27 193 67 193 c 0
 105 193 132 164 132 138 c 0
 132 99 116 90 112 88 c 0
 99 83 88 74 88 61 c 0
 88 46 108 42 113 42 c 0
 170 42 209 69 243 119 c 0
 349 276 365 396 410 570 c 0
 413 584 415 599 415 615 c 0
 415 646 403 675 348 675 c 2
 330 675 l 1
 342 722 l 1
 950 722 l 1
 938 675 l 1
 920 675 l 2
 839 675 826 657 814 615 c 2
 806 586 l 1
741 341 m 1
 674 85 l 2
 670 72 668 62 668 55 c 0
 668 37 682 34 721 34 c 2
 785 34 l 2
 889 34 951 83 979 189 c 0
 985 210 987 229 987 246 c 0
 987 310 946 341 862 341 c 2
 741 341 l 1
EndSplineSet
EndChar

StartChar: afii10059
Encoding: 1034 1034 439
Width: 833
Flags: MW
LayerCount: 2
Fore
SplineSet
750 599 m 2
 698 401 l 1
 811 401 l 2
 901 401 946 394 981 375 c 0
 1028 349 1053 306 1053 252 c 0
 1053 235 1050 217 1045 198 c 0
 1025 122 975 64 900 31 c 0
 856 11 791 0 722 0 c 2
 396 0 l 1
 401 47 l 1
 405 47 l 2
 454 47 478 51 489 61 c 0
 497 69 497 70 512 123 c 2
 573 354 l 1
 252 354 l 1
 190 123 l 2
 180 82 180 82 180 74 c 0
 180 52 194 47 259 47 c 2
 285 47 l 1
 280 0 l 1
 -38 0 l 1
 -33 47 l 1
 -28 47 l 2
 21 47 44 51 55 61 c 0
 63 69 64 70 78 123 c 2
 206 599 l 2
 211 619 215 640 215 648 c 0
 215 670 201 675 136 675 c 2
 110 675 l 1
 116 722 l 1
 433 722 l 1
 428 675 l 1
 424 675 l 2
 375 675 351 671 341 661 c 1
 332 654 332 654 318 599 c 2
 264 401 l 1
 586 401 l 1
 639 599 l 2
 646 623 649 640 649 648 c 0
 649 670 635 675 570 675 c 2
 544 675 l 1
 549 722 l 1
 867 722 l 1
 862 675 l 1
 858 675 l 2
 808 675 785 671 774 661 c 0
 766 654 764 654 750 599 c 2
685 354 m 1
 618 98 l 2
 614 85 612 75 612 68 c 0
 612 50 626 47 665 47 c 2
 729 47 l 2
 833 47 895 96 923 202 c 0
 929 223 931 242 931 259 c 0
 931 323 890 354 806 354 c 2
 685 354 l 1
EndSplineSet
EndChar

StartChar: afii10062
Encoding: 1038 1038 443
Width: 755
Flags: HMW
LayerCount: 2
Fore
SplineSet
361 935 m 1
 390 935 l 1
 394 874 434 837 497 837 c 0
 558 837 605 872 630 935 c 1
 661 935 l 1
 643 837 578 774 493 774 c 0
 413 774 360 830 360 914 c 0
 360 918 360 926 361 935 c 1
EndSplineSet
Refer: 464 1059 S 1 0 0 1 0 0 2
EndChar

StartChar: afii10145
Encoding: 1039 1039 444
Width: 893
Flags: MW
LayerCount: 2
Fore
SplineSet
196 54 m 1
 531 54 l 1
 675 599 l 1
 682 628 l 2
 685 638 686 645 686 651 c 0
 686 672 667 675 605 675 c 2
 586 675 l 1
 598 722 l 1
 927 722 l 1
 915 675 l 1
 897 675 l 2
 816 675 806 670 794 628 c 1
 787 599 l 1
 661 123 l 1
 654 94 l 2
 651 84 650 77 650 71 c 0
 650 50 669 47 731 47 c 2
 749 47 l 1
 737 0 l 1
 -38 0 l 1
 -26 47 l 1
 -8 47 l 2
 73 47 83 52 95 94 c 1
 102 123 l 1
 228 599 l 1
 235 628 l 2
 238 638 239 645 239 651 c 0
 239 672 220 675 158 675 c 2
 140 675 l 1
 152 722 l 1
 480 722 l 1
 468 675 l 1
 450 675 l 2
 369 675 359 670 347 628 c 1
 340 599 l 1
 196 54 l 1
EndSplineSet
EndChar

StartChar: afii10018
Encoding: 1041 1041 446
Width: 701
Flags: MW
LayerCount: 2
Fore
SplineSet
532 392 m 1
 632 374 670 326 670 260 c 0
 670 241 666 219 660 196 c 0
 628 74 505 0 332 0 c 2
 -31 0 l 1
 -19 47 l 1
 -1 47 l 2
 80 47 92 52 102 94 c 2
 109 123 l 1
 235 599 l 1
 242 628 l 2
 244 637 246 645 246 651 c 0
 246 673 228 678 165 678 c 2
 147 678 l 1
 159 722 l 1
 753 722 l 1
 700 466 l 1
 656 466 l 1
 659 493 660 517 660 538 c 0
 660 648 618 675 482 675 c 2
 433 675 l 2
 381 675 364 664 354 625 c 2
 293 397 l 1
 382 397 l 2
 510 397 532 392 532 392 c 1
281 350 m 1
 218 110 l 2
 213 93 211 80 211 71 c 0
 211 51 224 47 259 47 c 2
 301 47 l 2
 364 47 408 54 443 70 c 0
 487 89 522 136 538 199 c 0
 543 218 546 235 546 251 c 0
 546 288 530 315 501 331 c 1
 475 344 433 350 369 350 c 2
 281 350 l 1
EndSplineSet
EndChar

StartChar: afii10020
Encoding: 1043 1043 448
Width: 667
Flags: MW
LayerCount: 2
Fore
SplineSet
719 722 m 1
 666 466 l 1
 622 466 l 1
 625 492 626 515 626 535 c 0
 626 648 581 675 441 675 c 2
 395 675 l 2
 341 675 330 668 319 625 c 2
 186 123 l 1
 179 94 l 2
 176 84 175 77 175 71 c 0
 175 50 194 47 256 47 c 2
 289 47 l 1
 277 0 l 1
 -66 0 l 1
 -54 47 l 1
 -36 47 l 2
 45 47 55 52 67 94 c 1
 74 123 l 1
 200 599 l 1
 207 628 l 2
 210 638 211 645 211 651 c 0
 211 672 192 675 130 675 c 2
 112 675 l 1
 124 722 l 1
 719 722 l 1
EndSplineSet
EndChar

StartChar: afii10021
Encoding: 1044 1044 449
Width: 865
Flags: MW
LayerCount: 2
Fore
SplineSet
-54 48 m 1
 92 48 l 1
 183 102 240 222 325 545 c 1
 332 574 l 2
 336 588 339 603 339 618 c 0
 339 648 325 675 270 675 c 2
 252 675 l 1
 264 722 l 1
 894 722 l 1
 882 675 l 1
 864 675 l 2
 783 675 770 662 758 613 c 1
 750 584 l 1
 628 123 l 1
 621 94 l 2
 618 81 615 72 615 65 c 0
 615 50 626 48 659 47 c 1
 763 47 676 48 780 48 c 1
 727 -190 l 1
 683 -190 l 1
 686 -164 687 -142 687 -122 c 0
 687 -14 642 0 502 0 c 2
 200 0 l 2
 35 0 -8 -19 -81 -190 c 1
 -125 -190 l 1
 -54 48 l 1
570 669 m 2
 549 669 l 2
 468 669 435 646 414 578 c 1
 406 549 l 1
 327 256 269 112 181 54 c 1
 498 54 l 1
 631 557 l 1
 638 586 l 2
 641 598 644 610 644 621 c 0
 644 648 628 669 570 669 c 2
EndSplineSet
EndChar

StartChar: afii10024
Encoding: 1046 1046 451
Width: 1074
Flags: MW
LayerCount: 2
Fore
SplineSet
551 600 m 1
 559 628 l 2
 561 637 563 645 563 651 c 0
 563 672 544 675 481 675 c 2
 463 675 l 1
 475 722 l 1
 804 722 l 1
 792 675 l 1
 773 675 l 2
 692 675 682 670 671 628 c 2
 663 599 l 1
 608 389 l 1
 613 389 l 2
 768 389 806 436 846 578 c 1
 875 690 935 736 1014 736 c 0
 1058 736 1105 730 1105 652 c 0
 1105 617 1079 581 1040 570 c 0
 1033 568 1027 567 1020 567 c 0
 993 567 969 583 969 608 c 0
 969 612 970 616 971 620 c 0
 983 663 1011 658 1011 671 c 0
 1011 681 994 684 992 684 c 0
 978 684 921 638 904 575 c 0
 870 453 830 388 760 364 c 1
 834 354 869 302 869 226 c 0
 869 202 865 175 858 147 c 0
 852 124 850 107 850 94 c 0
 850 62 867 61 883 61 c 2
 885 61 l 2
 912 61 932 91 954 160 c 1
 996 160 l 1
 961 40 908 -15 826 -15 c 0
 763 -15 734 14 734 83 c 0
 734 101 736 121 740 144 c 1
 750 185 757 217 757 243 c 0
 757 310 715 333 593 334 c 1
 537 123 l 1
 530 94 l 2
 528 85 526 77 526 71 c 0
 526 50 544 47 607 47 c 2
 626 47 l 1
 614 0 l 1
 285 0 l 1
 297 47 l 1
 315 47 l 2
 396 47 407 52 418 94 c 2
 425 123 l 1
 481 334 l 1
 311 333 273 288 234 144 c 1
 192 31 143 -15 64 -15 c 0
 4 -15 -26 15 -26 78 c 0
 -26 101 -22 128 -14 160 c 1
 28 160 l 1
 23 134 20 114 20 99 c 0
 20 73 28 61 45 61 c 2
 47 61 l 2
 69 61 95 62 118 147 c 0
 150 264 226 351 330 364 c 1
 295 379 279 409 279 458 c 0
 279 489 286 528 298 575 c 0
 301 587 302 598 302 609 c 0
 302 654 279 684 266 684 c 0
 258 684 244 677 241 672 c 0
 240 670 240 669 240 668 c 0
 240 660 256 659 256 638 c 0
 256 633 255 627 253 620 c 0
 245 588 208 567 177 567 c 0
 170 567 164 568 158 570 c 0
 137 577 127 594 127 615 c 0
 127 628 131 642 139 656 c 0
 175 718 206 736 272 736 c 0
 332 736 367 710 367 648 c 0
 367 628 363 605 356 578 c 0
 346 538 340 505 340 479 c 0
 340 413 379 389 491 389 c 2
 496 389 l 1
 551 600 l 1
EndSplineSet
EndChar

StartChar: afii10025
Encoding: 1047 1047 452
Width: 656
Flags: MW
LayerCount: 2
Fore
SplineSet
235 37 m 1
 237 37 l 2
 331 37 437 105 437 210 c 0
 437 319 376 360 291 363 c 1
 208 363 l 1
 222 416 l 1
 282 416 l 1
 335 416 l 1
 427 417 507 506 507 571 c 0
 507 651 470 691 400 691 c 2
 397 691 l 1
 327 690 263 659 208 602 c 0
 168 561 139 519 112 468 c 1
 69 468 l 1
 150 728 l 1
 187 728 l 1
 211 668 l 1
 270 713 340 737 411 737 c 0
 539 737 602 677 602 584 c 2
 602 577 l 1
 599 470 469 398 417 388 c 1
 466 382 555 352 555 225 c 0
 555 22 370 -15 223 -16 c 1
 221 -16 l 2
 85 -16 2 66 2 189 c 0
 2 233 28 262 60 263 c 1
 63 263 l 2
 97 263 122 249 122 216 c 0
 122 184 113 176 85 165 c 0
 68 158 60 146 60 133 c 0
 60 126 62 119 66 113 c 0
 104 51 146 37 226 37 c 2
 235 37 l 1
EndSplineSet
EndChar

StartChar: afii10026
Encoding: 1048 1048 453
Width: 893
Flags: MW
LayerCount: 2
Fore
SplineSet
643 477 m 1
 218 140 l 1
 215 125 211 110 207 94 c 0
 204 84 203 77 203 71 c 0
 203 50 222 47 284 47 c 2
 303 47 l 1
 291 0 l 1
 -38 0 l 1
 -26 47 l 1
 -8 47 l 2
 73 47 85 52 95 94 c 2
 102 123 l 1
 228 599 l 1
 235 628 l 2
 237 637 239 645 239 651 c 0
 239 672 221 675 158 675 c 2
 140 675 l 1
 152 722 l 1
 481 722 l 1
 469 675 l 1
 450 675 l 2
 369 675 357 670 347 628 c 2
 340 599 l 1
 237 214 l 1
 662 550 l 1
 675 599 l 1
 682 628 l 2
 684 637 686 645 686 651 c 0
 686 672 668 675 605 675 c 2
 591 675 l 1
 603 722 l 1
 927 722 l 1
 915 675 l 1
 897 675 l 2
 816 675 804 670 794 628 c 2
 787 599 l 1
 661 123 l 1
 654 94 l 2
 652 85 650 77 650 71 c 0
 650 50 668 47 731 47 c 2
 749 47 l 1
 737 0 l 1
 409 0 l 1
 421 47 l 1
 439 47 l 2
 520 47 532 52 542 94 c 2
 549 123 l 1
 643 477 l 1
EndSplineSet
EndChar

StartChar: afii10027
Encoding: 1049 1049 454
Width: 893
Flags: MW
LayerCount: 2
Fore
SplineSet
431 935 m 1
 460 935 l 1
 464 874 504 837 567 837 c 0
 628 837 675 872 700 935 c 1
 731 935 l 1
 713 837 648 774 563 774 c 0
 483 774 430 830 430 914 c 0
 430 918 430 926 431 935 c 1
EndSplineSet
Refer: 453 1048 S 1 0 0 1 0 0 2
EndChar

StartChar: afii10028
Encoding: 1050 1050 455
Width: 748
Flags: MW
LayerCount: 2
Fore
SplineSet
558 578 m 1
 587 690 647 736 726 736 c 0
 770 736 817 730 817 652 c 0
 817 617 791 581 752 570 c 0
 745 568 739 567 732 567 c 0
 705 567 681 583 681 608 c 0
 681 612 682 616 683 620 c 0
 695 663 723 658 723 671 c 0
 723 681 706 684 704 684 c 0
 690 684 633 638 616 575 c 0
 582 453 542 388 472 364 c 1
 546 354 581 302 581 226 c 0
 581 202 577 175 570 147 c 0
 564 124 562 107 562 94 c 0
 562 62 579 61 595 61 c 2
 597 61 l 2
 624 61 644 91 666 160 c 1
 708 160 l 1
 673 40 620 -15 538 -15 c 0
 475 -15 446 14 446 83 c 0
 446 101 448 121 452 144 c 1
 460 174 464 199 464 221 c 0
 464 305 405 333 270 334 c 1
 214 123 l 1
 207 94 l 2
 205 85 203 77 203 71 c 0
 203 50 221 47 284 47 c 2
 303 47 l 1
 291 0 l 1
 -38 0 l 1
 -26 47 l 1
 -8 47 l 2
 73 47 84 52 95 94 c 2
 102 123 l 1
 228 599 l 1
 236 628 l 2
 238 637 240 645 240 651 c 0
 240 672 221 675 158 675 c 2
 140 675 l 1
 152 722 l 1
 481 722 l 1
 469 675 l 1
 450 675 l 2
 369 675 359 670 348 628 c 2
 340 599 l 1
 285 389 l 1
 290 389 l 2
 446 389 518 436 558 578 c 1
EndSplineSet
EndChar

StartChar: afii10029
Encoding: 1051 1051 456
Width: 916
Flags: MW
LayerCount: 2
Fore
SplineSet
587 668 m 1
 585 668 l 2
 517 668 487 620 453 492 c 0
 401 300 329 -15 100 -15 c 0
 32 -15 -2 40 -2 121 c 0
 -2 167 27 193 67 193 c 0
 105 193 132 164 132 138 c 0
 132 99 116 90 112 88 c 0
 99 83 88 74 88 61 c 0
 88 46 108 42 113 42 c 0
 170 42 209 69 243 119 c 0
 349 276 365 396 410 570 c 0
 413 584 415 599 415 615 c 0
 415 646 403 675 348 675 c 2
 330 675 l 1
 342 722 l 1
 950 722 l 1
 938 675 l 1
 920 675 l 2
 839 675 826 657 814 615 c 2
 806 586 l 1
 684 123 l 1
 677 94 l 2
 675 85 673 77 673 71 c 0
 673 50 691 47 754 47 c 2
 772 47 l 1
 760 0 l 1
 432 0 l 1
 444 47 l 1
 462 47 l 2
 543 47 555 52 565 94 c 2
 572 123 l 1
 698 600 l 2
 700 605 701 611 701 616 c 0
 701 641 681 667 640 669 c 1
 587 668 l 1
EndSplineSet
EndChar

StartChar: afii10033
Encoding: 1055 1055 460
Width: 893
Flags: MW
LayerCount: 2
Fore
SplineSet
693 668 m 1
 358 668 l 1
 214 123 l 1
 207 94 l 2
 204 84 203 77 203 71 c 0
 203 50 222 47 284 47 c 2
 303 47 l 1
 291 0 l 1
 -38 0 l 1
 -26 47 l 1
 -8 47 l 2
 73 47 83 52 95 94 c 1
 102 123 l 1
 228 599 l 1
 235 628 l 2
 238 638 239 645 239 651 c 0
 239 672 220 675 158 675 c 2
 140 675 l 1
 152 722 l 1
 927 722 l 1
 915 675 l 1
 897 675 l 2
 816 675 806 670 794 628 c 1
 787 599 l 1
 661 123 l 1
 654 94 l 2
 651 84 650 77 650 71 c 0
 650 50 669 47 731 47 c 2
 749 47 l 1
 737 0 l 1
 409 0 l 1
 421 47 l 1
 439 47 l 2
 520 47 530 52 542 94 c 1
 549 123 l 1
 693 668 l 1
EndSplineSet
EndChar

StartChar: afii10037
Encoding: 1059 1059 464
Width: 755
Flags: MW
LayerCount: 2
Fore
SplineSet
104 39 m 1
 157 40 173 70 226 127 c 1
 293 212 l 1
 167 637 l 2
 157 672 142 675 93 675 c 2
 76 675 l 1
 88 722 l 1
 397 722 l 1
 385 675 l 1
 347 675 l 2
 309 675 298 672 295 662 c 0
 294 657 298 648 300 637 c 2
 378 318 l 1
 591 602 l 2
 604 619 611 625 614 636 c 0
 615 640 615 643 615 646 c 0
 615 666 596 675 555 675 c 2
 541 675 l 1
 553 722 l 1
 828 722 l 1
 816 675 l 1
 800 675 l 2
 747 675 714 656 638 581 c 1
 268 95 l 1
 227 46 199 -8 92 -8 c 0
 14 -8 -8 32 -8 86 c 2
 -8 101 l 1
 -5 136 20 161 57 161 c 0
 86 161 117 147 117 120 c 2
 117 113 l 2
 117 85 116 95 92 67 c 1
 71 57 63 51 63 47 c 0
 63 40 88 40 104 39 c 1
EndSplineSet
EndChar

StartChar: afii10038
Encoding: 1060 1060 465
Width: 861
Flags: MW
LayerCount: 2
Fore
SplineSet
304 115 m 5
 113 116 8 166 8 292 c 4
 8 318 12 347 21 379 c 4
 68 553 211 635 441 635 c 5
 449 665 l 6
 451 674 453 682 453 688 c 4
 453 709 435 712 372 712 c 6
 352 712 l 5
 364 759 l 5
 695 759 l 5
 683 712 l 5
 663 712 l 6
 583 712 572 707 561 665 c 6
 553 635 l 5
 754 635 854 578 854 455 c 4
 854 431 850 404 842 375 c 4
 795 198 658 114 420 114 c 6
 416 114 l 5
 411 94 l 6
 409 84 407 77 407 71 c 4
 407 50 425 47 487 47 c 6
 507 47 l 5
 495 0 l 5
 164 0 l 5
 176 47 l 5
 196 47 l 6
 277 47 288 52 299 94 c 6
 304 115 l 5
426 153 m 5
 429 153 l 6
 634 153 688 246 723 375 c 4
 732 410 738 441 738 469 c 4
 738 547 693 596 543 597 c 5
 426 153 l 5
315 154 m 5
 431 597 l 5
 234 597 174 505 139 377 c 4
 130 342 124 311 124 282 c 4
 124 205 169 155 315 154 c 5
EndSplineSet
EndChar

StartChar: afii10040
Encoding: 1062 1062 467
Width: 898
Flags: MW
LayerCount: 2
Fore
SplineSet
-38 0 m 1
 -26 47 l 1
 -8 47 l 2
 73 47 84 52 95 94 c 2
 102 123 l 1
 228 599 l 1
 236 628 l 2
 238 637 240 645 240 651 c 0
 240 672 221 675 158 675 c 2
 140 675 l 1
 152 722 l 1
 481 722 l 1
 469 675 l 1
 450 675 l 2
 369 675 359 670 348 628 c 2
 340 599 l 1
 196 54 l 1
 531 54 l 1
 675 599 l 1
 683 628 l 2
 685 637 687 645 687 651 c 0
 687 672 668 675 605 675 c 2
 587 675 l 1
 599 722 l 1
 927 722 l 1
 915 675 l 1
 897 675 l 2
 816 675 806 670 795 628 c 2
 787 599 l 1
 661 123 l 1
 654 94 l 2
 652 85 650 78 650 72 c 0
 650 52 663 47 692 47 c 2
 705 47 l 2
 757 47 770 47 770 48 c 1
 757 48 l 1
 704 -190 l 1
 660 -190 l 1
 664 -152 666 -122 666 -98 c 0
 666 -12 634 0 505 0 c 2
 -38 0 l 1
EndSplineSet
EndChar

StartChar: afii10041
Encoding: 1063 1063 468
Width: 821
Flags: MW
LayerCount: 2
Fore
SplineSet
528 315 m 1
 468 276 422 258 345 258 c 0
 247 258 141 290 141 356 c 0
 141 362 142 368 144 375 c 2
 203 599 l 1
 210 628 l 2
 213 638 214 645 214 651 c 0
 214 672 195 675 133 675 c 2
 115 675 l 1
 127 722 l 1
 456 722 l 1
 444 675 l 1
 425 675 l 2
 344 675 334 670 322 628 c 1
 315 599 l 1
 259 387 l 2
 258 383 257 379 257 375 c 0
 257 340 304 312 358 311 c 1
 363 311 l 2
 438 311 489 331 542 369 c 1
 603 599 l 1
 610 628 l 2
 613 638 614 645 614 651 c 0
 614 672 595 675 533 675 c 2
 519 675 l 1
 531 722 l 1
 855 722 l 1
 843 675 l 1
 825 675 l 2
 744 675 734 670 722 628 c 1
 715 599 l 1
 589 123 l 1
 582 94 l 2
 579 84 578 77 578 71 c 0
 578 50 597 47 659 47 c 2
 677 47 l 1
 665 0 l 1
 337 0 l 1
 349 47 l 1
 367 47 l 2
 448 47 458 52 470 94 c 1
 477 123 l 1
 528 315 l 1
EndSplineSet
EndChar

StartChar: afii10042
Encoding: 1064 1064 469
Width: 1255
Flags: MW
LayerCount: 2
Fore
SplineSet
601 54 m 1
 893 54 l 1
 1037 599 l 1
 1044 628 l 2
 1047 638 1048 645 1048 651 c 0
 1048 672 1029 675 967 675 c 2
 949 675 l 1
 961 722 l 1
 1289 722 l 1
 1277 675 l 1
 1259 675 l 2
 1178 675 1168 670 1156 628 c 1
 1149 599 l 1
 1023 123 l 1
 1016 94 l 2
 1013 84 1012 77 1012 71 c 0
 1012 50 1031 47 1093 47 c 2
 1111 47 l 1
 1099 0 l 1
 -38 0 l 1
 -26 47 l 1
 -8 47 l 2
 73 47 83 52 95 94 c 1
 102 123 l 1
 228 599 l 1
 235 628 l 2
 238 638 239 645 239 651 c 0
 239 672 220 675 158 675 c 2
 140 675 l 1
 152 722 l 1
 481 722 l 1
 469 675 l 1
 450 675 l 2
 369 675 359 670 347 628 c 1
 340 599 l 1
 196 54 l 1
 489 54 l 1
 633 599 l 1
 640 628 l 2
 643 638 644 645 644 651 c 0
 644 672 625 675 563 675 c 2
 545 675 l 1
 557 722 l 1
 885 722 l 1
 873 675 l 1
 855 675 l 2
 774 675 764 670 752 628 c 1
 745 599 l 1
 601 54 l 1
EndSplineSet
EndChar

StartChar: afii10043
Encoding: 1065 1065 470
Width: 1260
Flags: MW
LayerCount: 2
Fore
SplineSet
-38 0 m 1
 -26 47 l 1
 -8 47 l 2
 73 47 84 52 95 94 c 2
 102 123 l 1
 228 599 l 1
 236 628 l 2
 238 637 240 645 240 651 c 0
 240 672 221 675 158 675 c 2
 140 675 l 1
 152 722 l 1
 481 722 l 1
 469 675 l 1
 450 675 l 2
 369 675 359 670 348 628 c 2
 340 599 l 1
 196 54 l 1
 489 54 l 1
 633 599 l 1
 641 628 l 2
 643 637 645 645 645 651 c 0
 645 672 626 675 563 675 c 2
 545 675 l 1
 557 722 l 1
 885 722 l 1
 873 675 l 1
 855 675 l 2
 774 675 764 670 753 628 c 2
 745 599 l 1
 601 54 l 1
 893 54 l 1
 1037 599 l 1
 1045 628 l 2
 1047 637 1049 645 1049 651 c 0
 1049 672 1030 675 967 675 c 2
 949 675 l 1
 961 722 l 1
 1289 722 l 1
 1277 675 l 1
 1259 675 l 2
 1178 675 1168 670 1157 628 c 2
 1149 599 l 1
 1023 123 l 1
 1016 94 l 2
 1014 87 1013 80 1013 75 c 0
 1013 51 1034 48 1065 47 c 1
 1124 47 l 1
 1071 -190 l 1
 1027 -190 l 1
 1035 -113 1050 -67 1050 -39 c 0
 1050 -6 1027 0 936 0 c 2
 -38 0 l 1
EndSplineSet
EndChar

StartChar: afii10044
Encoding: 1066 1066 471
Width: 842
Flags: MW
LayerCount: 2
Fore
SplineSet
634 722 m 1
 622 675 l 1
 596 675 l 2
 515 675 505 670 493 628 c 1
 486 599 l 1
 434 401 l 1
 547 401 l 2
 637 401 682 394 717 375 c 0
 764 349 789 306 789 252 c 0
 789 235 786 217 781 198 c 0
 761 122 711 64 636 31 c 0
 592 11 527 0 458 0 c 2
 108 0 l 1
 120 47 l 1
 138 47 l 2
 219 47 229 52 241 94 c 1
 248 123 l 1
 374 599 l 1
 381 628 l 2
 384 638 385 645 385 651 c 0
 385 672 366 675 304 675 c 2
 288 675 l 2
 123 675 84 466 84 466 c 1
 40 466 l 1
 121 722 l 1
 634 722 l 1
421 354 m 1
 354 98 l 2
 350 85 348 75 348 68 c 0
 348 50 362 47 401 47 c 2
 465 47 l 2
 569 47 631 96 659 202 c 0
 665 223 667 242 667 259 c 0
 667 323 626 354 542 354 c 2
 421 354 l 1
EndSplineSet
EndChar

StartChar: afii10045
Encoding: 1067 1067 472
Width: 1157
Flags: MW
LayerCount: 2
Fore
SplineSet
1049 601 m 1
 923 125 l 1
 916 96 l 2
 914 86 912 79 912 73 c 0
 912 52 930 49 992 49 c 2
 1012 49 l 1
 1000 2 l 1
 669 2 l 1
 681 49 l 1
 701 49 l 2
 782 49 793 54 804 96 c 2
 811 125 l 1
 937 601 l 1
 945 630 l 2
 947 639 949 647 949 653 c 0
 949 674 930 677 867 677 c 2
 847 677 l 1
 860 724 l 1
 1191 724 l 1
 1178 677 l 1
 1158 677 l 2
 1078 677 1068 672 1057 630 c 2
 1049 601 l 1
288 401 m 1
 401 401 l 2
 491 401 536 394 571 375 c 0
 618 349 643 306 643 252 c 0
 643 235 641 217 636 198 c 0
 616 122 565 64 491 31 c 0
 446 11 381 0 312 0 c 2
 -38 0 l 1
 -25 47 l 1
 -7 47 l 2
 74 47 84 52 95 94 c 2
 103 123 l 1
 229 599 l 1
 236 628 l 2
 238 637 240 645 240 651 c 0
 240 672 222 675 159 675 c 2
 141 675 l 1
 153 722 l 1
 489 722 l 1
 477 675 l 1
 451 675 l 2
 370 675 359 670 348 628 c 2
 341 599 l 1
 288 401 l 1
276 354 m 1
 208 98 l 2
 205 85 203 76 203 68 c 0
 203 50 216 47 256 47 c 2
 320 47 l 2
 424 47 486 96 514 202 c 0
 520 223 522 242 522 259 c 0
 522 323 481 354 397 354 c 2
 276 354 l 1
EndSplineSet
EndChar

StartChar: afii10046
Encoding: 1068 1068 473
Width: 696
Flags: MW
LayerCount: 2
Fore
SplineSet
288 401 m 1
 401 401 l 2
 491 401 536 394 571 375 c 0
 618 349 643 306 643 252 c 0
 643 235 640 217 635 198 c 0
 615 122 565 64 490 31 c 0
 446 11 381 0 312 0 c 2
 -38 0 l 1
 -26 47 l 1
 -8 47 l 2
 73 47 83 52 95 94 c 1
 102 123 l 1
 228 599 l 1
 235 628 l 2
 238 638 239 645 239 651 c 0
 239 672 220 675 158 675 c 2
 140 675 l 1
 152 722 l 1
 488 722 l 1
 476 675 l 1
 450 675 l 2
 369 675 359 670 347 628 c 1
 340 599 l 1
 288 401 l 1
275 354 m 1
 208 98 l 2
 204 85 202 75 202 68 c 0
 202 50 216 47 255 47 c 2
 319 47 l 2
 423 47 485 96 513 202 c 0
 519 223 521 242 521 259 c 0
 521 323 480 354 396 354 c 2
 275 354 l 1
EndSplineSet
EndChar

StartChar: afii10047
Encoding: 1069 1069 474
Width: 716
Flags: MW
LayerCount: 2
Fore
SplineSet
238 350 m 1
 250 397 l 1
 537 397 l 1
 547 444 552 484 552 519 c 0
 552 549 548 575 541 599 c 0
 525 655 472 690 408 690 c 0
 338 690 282 664 227 600 c 0
 199 567 174 528 130 451 c 1
 86 451 l 1
 178 740 l 1
 216 740 l 1
 240 681 l 1
 325 733 353 737 420 737 c 0
 517 737 587 698 633 617 c 0
 660 570 674 520 674 465 c 0
 674 430 668 394 658 354 c 0
 601 139 419 -15 222 -15 c 0
 78 -15 3 67 3 185 c 0
 3 198 4 212 6 226 c 0
 12 266 52 292 86 292 c 2
 93 292 l 1
 123 289 145 270 145 238 c 0
 145 206 123 177 100 174 c 0
 77 171 62 170 62 150 c 0
 62 146 63 141 64 136 c 0
 79 63 142 32 223 32 c 0
 371 32 468 135 525 350 c 1
 238 350 l 1
EndSplineSet
EndChar

StartChar: afii10048
Encoding: 1070 1070 475
Width: 1208
Flags: MW
LayerCount: 2
Fore
SplineSet
273 347 m 1
 214 123 l 1
 207 94 l 2
 204 84 203 77 203 71 c 0
 203 50 222 47 284 47 c 2
 303 47 l 1
 291 0 l 1
 -38 0 l 1
 -26 47 l 1
 -8 47 l 2
 73 47 83 52 95 94 c 1
 102 123 l 1
 228 599 l 1
 235 628 l 2
 238 638 239 645 239 651 c 0
 239 672 220 675 158 675 c 2
 140 675 l 1
 152 722 l 1
 481 722 l 1
 469 675 l 1
 450 675 l 2
 369 675 359 670 347 628 c 1
 340 599 l 1
 288 401 l 1
 475 401 l 1
 510 500 577 591 661 653 c 0
 737 709 820 737 909 737 c 0
 1066 737 1165 627 1165 471 c 0
 1165 436 1160 399 1150 361 c 0
 1094 147 903 -15 707 -15 c 0
 547 -15 447 94 447 251 c 0
 447 281 451 313 459 347 c 1
 273 347 l 1
896 690 m 0
 821 690 760 662 708 604 c 0
 655 544 626 483 595 363 c 0
 576 290 566 240 566 198 c 0
 566 168 571 143 580 118 c 0
 601 62 648 32 719 32 c 0
 790 32 853 62 904 118 c 1
 957 178 986 239 1018 361 c 0
 1037 432 1046 483 1046 525 c 0
 1046 554 1041 579 1032 604 c 0
 1011 659 963 690 896 690 c 0
EndSplineSet
EndChar

StartChar: afii10049
Encoding: 1071 1071 476
Width: 786
Flags: MW
LayerCount: 2
Fore
SplineSet
503 350 m 1
 445 350 l 2
 406 350 363 338 336 320 c 0
 301 297 277 261 252 195 c 1
 234 144 l 1
 192 31 143 -15 64 -15 c 0
 4 -15 -26 15 -26 78 c 0
 -26 101 -22 128 -14 160 c 1
 28 160 l 1
 23 134 20 114 20 99 c 0
 20 73 28 61 45 61 c 0
 68 61 82 78 118 147 c 2
 150 210 l 2
 196 302 246 344 330 364 c 1
 214 381 157 424 157 496 c 0
 157 511 160 526 164 543 c 0
 194 657 307 722 475 722 c 2
 821 722 l 1
 809 675 l 1
 791 675 l 2
 710 675 699 670 688 628 c 2
 681 599 l 1
 555 122 l 1
 548 94 l 2
 545 84 544 77 544 71 c 0
 544 50 563 47 625 47 c 2
 643 47 l 1
 631 0 l 1
 303 0 l 1
 315 47 l 1
 333 47 l 2
 414 47 424 52 436 94 c 1
 443 122 l 1
 503 350 l 1
515 397 m 1
 574 617 l 2
 579 638 582 649 582 656 c 0
 582 662 580 664 576 668 c 0
 570 674 563 675 520 675 c 2
 466 675 l 2
 367 675 311 633 287 542 c 0
 281 521 278 502 278 486 c 0
 278 462 284 443 296 431 c 0
 316 410 357 397 405 397 c 2
 515 397 l 1
EndSplineSet
EndChar

StartChar: afii10066
Encoding: 1073 1073 478
Width: 520
Flags: MW
LayerCount: 2
Fore
SplineSet
133 404 m 1
 182 462 255 481 299 481 c 0
 395 481 458 407 458 305 c 0
 458 282 455 258 448 233 c 0
 411 95 286 -15 166 -15 c 0
 61 -15 12 74 12 185 c 0
 12 200 13 216 15 232 c 0
 26 325 75 454 147 548 c 0
 232 660 303 662 405 662 c 2
 436 662 l 2
 485 662 519 667 544 726 c 1
 586 726 l 1
 552 562 401 560 277 560 c 2
 268 560 l 2
 208 560 168 506 133 404 c 1
288 438 m 0
 213 438 156 368 120 232 c 0
 109 190 104 154 104 125 c 0
 104 62 129 28 178 28 c 0
 250 28 308 100 343 233 c 0
 354 276 360 312 360 342 c 0
 360 405 335 438 288 438 c 0
EndSplineSet
EndChar

StartChar: afii10067
Encoding: 1074 1074 479
Width: 477
Flags: MW
LayerCount: 2
Fore
SplineSet
293 479 m 1
 296 479 l 2
 391 479 412 435 412 401 c 0
 412 330 309 274 263 256 c 1
 344 244 374 201 374 130 c 0
 374 53 280 -14 179 -14 c 0
 45 -14 5 56 5 138 c 0
 5 163 9 190 15 216 c 0
 49 367 166 479 291 479 c 2
 293 479 l 1
119 256 m 1
 171 274 335 326 335 392 c 0
 335 423 320 441 295 441 c 0
 191 441 132 316 119 256 c 1
181 27 m 1
 182 27 l 2
 238 27 284 100 284 157 c 0
 284 193 266 222 220 222 c 0
 162 222 114 191 99 146 c 0
 96 136 94 126 94 116 c 0
 94 72 126 28 181 27 c 1
EndSplineSet
EndChar

StartChar: afii10068
Encoding: 1075 1075 480
Width: 402
Flags: MW
LayerCount: 2
Fore
SplineSet
139 26 m 0
 202 26 224 48 294 106 c 1
 316 78 l 1
 270 26 217 -12 131 -12 c 0
 46 -12 -5 30 -5 92 c 0
 -5 107 -2 122 4 139 c 0
 18 178 48 213 88 235 c 0
 115 249 127 254 189 274 c 0
 262 297 286 331 287 372 c 1
 287 374 l 2
 287 418 259 432 225 432 c 0
 162 432 140 410 70 352 c 1
 49 380 l 1
 94 432 148 470 234 470 c 0
 319 470 370 428 370 366 c 0
 370 351 367 336 361 319 c 0
 346 277 308 240 256 217 c 0
 237 209 212 199 165 183 c 0
 102 161 83 129 83 94 c 0
 83 62 94 26 139 26 c 0
EndSplineSet
EndChar

StartChar: afii10069
Encoding: 1076 1076 481
Width: 500
Flags: MW
LayerCount: 2
Fore
SplineSet
272 728 m 0
 427 728 461 567 461 422 c 0
 461 370 457 321 452 281 c 0
 443 208 418 127 365 67 c 0
 317 13 255 -15 183 -15 c 0
 74 -15 5 58 5 172 c 0
 5 255 34 327 89 384 c 0
 143 440 208 470 273 470 c 0
 329 470 364 452 398 412 c 1
 398 536 384 671 263 671 c 2
 262 671 l 1
 259 671 l 2
 186 671 133 610 133 610 c 1
 104 656 l 1
 104 656 166 728 272 728 c 0
268 432 m 0
 230 432 198 414 170 378 c 0
 129 323 95 211 95 128 c 0
 95 60 126 23 184 23 c 0
 237 23 274 53 308 122 c 0
 335 177 355 257 355 309 c 0
 355 386 323 432 268 432 c 0
EndSplineSet
EndChar

StartChar: afii10072
Encoding: 1078 1078 483
Width: 1021
Flags: MW
LayerCount: 2
Fore
SplineSet
394 265 m 1
 456 265 l 1
 515 466 l 1
 602 466 l 1
 542 265 l 1
 598 265 l 1
 637 381 738 470 848 470 c 0
 920 470 978 422 978 362 c 0
 978 319 951 287 915 287 c 0
 884 287 862 307 862 336 c 0
 862 360 872 372 899 384 c 0
 910 388 915 393 915 399 c 0
 915 416 883 432 851 432 c 0
 807 432 771 408 736 358 c 0
 697 302 674 223 674 152 c 0
 674 77 708 33 767 33 c 0
 815 33 868 67 918 132 c 1
 947 110 l 1
 894 27 829 -15 754 -15 c 0
 650 -15 582 56 582 166 c 0
 582 182 584 198 586 213 c 1
 527 213 l 1
 464 0 l 1
 377 0 l 1
 440 213 l 1
 386 213 l 1
 354 86 246 -15 129 -15 c 0
 57 -15 -1 33 -1 93 c 0
 -1 136 26 168 62 168 c 0
 93 168 115 148 115 119 c 0
 115 95 105 83 78 71 c 0
 67 67 62 62 62 56 c 0
 62 39 94 23 126 23 c 0
 170 23 206 47 241 97 c 0
 280 153 303 232 303 303 c 0
 303 378 269 422 210 422 c 0
 162 422 109 388 59 323 c 1
 30 345 l 1
 83 428 148 470 223 470 c 0
 327 470 395 399 395 289 c 0
 395 281 394 265 394 265 c 1
EndSplineSet
EndChar

StartChar: afii10073
Encoding: 1079 1079 484
Width: 474
Flags: MW
LayerCount: 2
Fore
SplineSet
52 52 m 1
 52 52 72 28 156 28 c 0
 228 28 288 94 288 148 c 0
 288 188 270 218 189 218 c 2
 146 218 l 1
 159 266 l 1
 199 266 l 2
 292 266 335 308 335 368 c 0
 335 416 313 437 259 437 c 0
 184 436 152 416 83 359 c 1
 62 385 l 1
 144 460 184 480 293 481 c 1
 361 480 411 461 411 378 c 0
 411 311 343 250 310 243 c 1
 346 238 383 212 383 150 c 0
 383 46 256 -14 144 -15 c 1
 141 -15 l 2
 59 -15 2 30 2 101 c 0
 2 105 3 109 3 113 c 0
 5 141 27 159 55 159 c 0
 79 159 93 151 93 119 c 2
 93 110 l 1
 90 79 54 88 47 74 c 0
 44 69 45 61 52 52 c 1
EndSplineSet
EndChar

StartChar: afii10077
Encoding: 1083 1083 488
Width: 673
Flags: MW
LayerCount: 2
Fore
SplineSet
371 59 m 2
 457 422 l 1
 411 422 l 1
 407 422 l 2
 377 422 345 383 330 318 c 0
 295 169 246 -10 100 -10 c 0
 52 -10 4 25 4 69 c 0
 4 74 5 79 6 84 c 0
 8 116 33 142 71 142 c 0
 99 142 115 125 115 101 c 0
 115 59 92 66 92 52 c 0
 92 48 91 38 109 38 c 0
 137 38 161 52 183 77 c 0
 246 148 265 256 296 368 c 1
 297 379 300 390 300 400 c 0
 300 417 290 430 238 430 c 2
 220 430 l 1
 230 466 l 1
 565 466 l 1
 473 122 l 1
 473 122 461 75 461 57 c 0
 461 46 468 36 479 36 c 0
 510 36 546 77 596 156 c 1
 625 135 l 1
 569 38 505 -10 442 -10 c 0
 397 -10 370 25 370 51 c 0
 370 54 370 56 371 59 c 2
EndSplineSet
EndChar

StartChar: afii10078
Encoding: 1084 1084 489
Width: 897
Flags: MW
LayerCount: 2
Fore
SplineSet
480 466 m 1
 479 145 l 1
 645 466 l 1
 790 466 l 1
 698 122 l 1
 698 122 686 75 686 57 c 0
 686 46 693 36 704 36 c 0
 735 36 771 77 821 156 c 1
 850 135 l 1
 794 38 730 -10 667 -10 c 0
 622 -10 595 25 595 51 c 0
 595 54 595 56 596 59 c 2
 682 422 l 1
 669 422 l 1
 446 -10 l 1
 411 -10 l 1
 411 422 l 1
 378 422 346 386 330 318 c 0
 295 169 246 -10 100 -10 c 0
 52 -10 4 25 4 69 c 0
 4 74 5 79 6 84 c 0
 8 116 33 142 71 142 c 0
 99 142 115 125 115 101 c 0
 115 59 92 66 92 52 c 0
 92 48 91 38 109 38 c 0
 137 38 161 52 183 77 c 0
 246 148 265 256 296 368 c 1
 297 379 300 390 300 400 c 0
 300 417 290 430 238 430 c 2
 220 430 l 1
 230 466 l 1
 480 466 l 1
EndSplineSet
EndChar

StartChar: afii10079
Encoding: 1085 1085 490
Width: 611
Flags: MW
LayerCount: 2
Fore
SplineSet
351 213 m 1
 164 213 l 1
 101 0 l 1
 14 0 l 1
 116 344 l 2
 122 366 125 379 125 388 c 0
 125 410 109 419 68 419 c 2
 44 419 l 1
 48 455 l 1
 229 470 l 1
 200 335 l 2
 201 339 202 341 202 341 c 1
 179 265 l 1
 368 265 l 1
 436 466 l 1
 526 466 l 1
 410 122 l 1
 394 78 391 66 391 55 c 0
 391 44 399 36 409 36 c 0
 440 36 483 77 533 156 c 1
 562 135 l 1
 506 38 442 -15 379 -15 c 0
 339 -15 309 17 309 59 c 0
 309 81 314 104 327 143 c 2
 351 213 l 1
EndSplineSet
EndChar

StartChar: afii10085
Encoding: 1091 1091 496
Width: 527
Flags: MW
LayerCount: 2
Fore
SplineSet
72 -160 m 1
 169 -132 241 -4 294 119 c 1
 235 27 178 -14 108 -14 c 0
 52 -14 13 23 13 78 c 0
 13 109 13 109 44 209 c 1
 84 344 l 2
 89 362 92 378 92 387 c 0
 92 410 77 419 36 419 c 2
 12 419 l 1
 15 455 l 1
 208 470 l 1
 110 142 l 2
 102 115 99 97 99 85 c 0
 99 61 118 42 142 42 c 0
 213 42 305 156 346 295 c 2
 393 455 l 1
 481 455 l 1
 481 455 394 88 249 -104 c 0
 195 -176 105 -202 47 -202 c 0
 -5 -202 -45 -169 -45 -128 c 0
 -45 -98 -22 -74 7 -74 c 0
 26 -74 43 -86 50 -105 c 0
 53 -113 53 -113 53 -144 c 0
 53 -154 60 -160 72 -160 c 1
EndSplineSet
EndChar

StartChar: afii10086
Encoding: 1092 1092 497
Width: 857
Flags: MW
LayerCount: 2
Fore
SplineSet
395 407 m 1
 438 568 l 2
 441 581 443 591 443 598 c 0
 443 615 434 618 408 618 c 2
 372 618 l 1
 383 661 l 1
 559 672 l 1
 486 395 l 1
 537 455 585 481 647 481 c 0
 735 481 789 412 789 314 c 0
 789 290 785 263 778 235 c 0
 740 92 626 -15 510 -15 c 0
 449 -15 417 8 399 66 c 1
 361 -79 l 1
 351 -119 l 2
 348 -128 347 -136 347 -142 c 0
 347 -162 364 -166 414 -166 c 2
 425 -166 l 1
 416 -202 l 1
 156 -202 l 1
 165 -166 l 1
 169 -166 l 2
 233 -166 245 -159 257 -119 c 1
 268 -78 l 1
 307 72 l 1
 259 12 209 -15 146 -15 c 0
 54 -15 0 49 0 146 c 0
 0 171 3 199 11 228 c 0
 49 372 164 481 277 481 c 0
 335 481 372 458 395 407 c 1
283 427 m 0
 242 427 197 398 168 354 c 0
 146 320 129 275 113 216 c 0
 105 185 101 158 101 135 c 0
 101 74 128 39 179 39 c 0
 251 39 317 115 348 231 c 0
 358 267 362 300 362 327 c 0
 362 335 362 344 361 351 c 0
 355 397 324 427 283 427 c 0
615 427 m 0
 539 427 474 352 441 228 c 0
 433 197 429 169 429 144 c 0
 429 78 457 39 509 39 c 0
 580 39 641 112 675 241 c 0
 684 276 688 306 688 332 c 0
 688 393 664 427 615 427 c 0
EndSplineSet
EndChar

StartChar: afii10088
Encoding: 1094 1094 499
Width: 611
Flags: MW
LayerCount: 2
Fore
SplineSet
432 0 m 1
 414 -9 394 -15 375 -15 c 0
 338 -15 311 13 311 51 c 0
 311 70 313 84 323 119 c 1
 264 27 207 -14 137 -14 c 0
 81 -14 42 23 42 78 c 0
 42 109 42 109 73 209 c 1
 113 344 l 2
 118 362 121 378 121 387 c 0
 121 410 106 419 65 419 c 2
 41 419 l 1
 44 455 l 1
 237 470 l 1
 139 142 l 2
 131 115 128 97 128 85 c 0
 128 61 147 42 171 42 c 0
 242 42 334 156 375 295 c 2
 422 455 l 1
 509 455 l 1
 410 123 l 2
 402 94 398 75 398 64 c 0
 398 51 407 40 417 40 c 0
 437 40 477 81 526 153 c 1
 556 135 l 1
 527 89 478 52 478 12 c 2
 478 9 l 2
 478 -16 504 -37 504 -70 c 0
 504 -112 418 -154 358 -192 c 1
 330 -156 l 1
 330 -156 426 -106 444 -68 c 0
 446 -64 447 -61 447 -57 c 0
 447 -43 429 -35 429 -15 c 0
 429 -11 430 -6 432 0 c 1
EndSplineSet
EndChar

StartChar: afii10089
Encoding: 1095 1095 500
Width: 611
Flags: MW
LayerCount: 2
Fore
SplineSet
509 455 m 1
 410 123 l 2
 402 94 398 75 398 64 c 0
 398 51 407 40 417 40 c 0
 437 40 477 81 526 153 c 1
 556 135 l 1
 485 25 436 -15 375 -15 c 0
 338 -15 311 13 311 51 c 0
 311 70 346 197 356 232 c 1
 297 140 240 99 170 99 c 0
 114 99 75 136 75 191 c 0
 75 222 75 222 106 322 c 2
 113 344 l 2
 118 362 121 378 121 387 c 0
 121 410 106 419 65 419 c 2
 41 419 l 1
 44 455 l 1
 237 470 l 1
 172 255 l 2
 164 228 161 210 161 198 c 0
 161 174 180 155 204 155 c 0
 275 155 367 269 408 408 c 2
 422 455 l 1
 509 455 l 1
EndSplineSet
EndChar

StartChar: afii10090
Encoding: 1096 1096 501
Width: 886
Flags: MW
LayerCount: 2
Fore
SplineSet
412 132 m 2
 407 115 406 105 406 97 c 2
 406 85 l 2
 406 61 422 42 446 42 c 0
 517 42 609 156 650 295 c 2
 697 455 l 1
 784 455 l 1
 685 123 l 2
 677 94 673 75 673 64 c 0
 673 51 682 40 692 40 c 0
 712 40 752 81 801 153 c 1
 831 135 l 1
 760 25 711 -15 650 -15 c 0
 613 -15 586 13 586 51 c 0
 586 70 588 84 598 119 c 1
 539 27 482 -14 412 -14 c 0
 356 -14 317 23 317 78 c 0
 317 109 323 119 323 119 c 1
 264 27 207 -14 137 -14 c 0
 81 -14 42 23 42 78 c 0
 42 109 42 109 73 209 c 1
 113 344 l 2
 118 362 121 378 121 387 c 0
 121 410 106 419 65 419 c 2
 41 419 l 1
 44 455 l 1
 237 470 l 1
 139 142 l 2
 131 115 128 97 128 85 c 0
 128 61 147 42 171 42 c 0
 242 42 334 156 375 295 c 2
 422 455 l 1
 509 455 l 1
 412 132 l 2
EndSplineSet
EndChar

StartChar: afii10091
Encoding: 1097 1097 502
Width: 886
Flags: MW
LayerCount: 2
Fore
SplineSet
650 -15 m 0
 613 -15 586 13 586 51 c 0
 586 70 588 84 598 119 c 1
 539 27 482 -14 412 -14 c 0
 356 -14 317 23 317 78 c 0
 317 109 323 119 323 119 c 1
 264 27 207 -14 137 -14 c 0
 81 -14 42 23 42 78 c 0
 42 109 42 109 73 209 c 1
 113 344 l 2
 118 362 121 378 121 387 c 0
 121 410 106 419 65 419 c 2
 41 419 l 1
 44 455 l 1
 237 470 l 1
 139 142 l 2
 131 115 128 97 128 85 c 0
 128 61 147 42 171 42 c 0
 242 42 334 156 375 295 c 2
 422 455 l 1
 509 455 l 1
 412 132 l 2
 407 115 406 105 406 97 c 2
 406 85 l 2
 406 61 422 42 446 42 c 0
 517 42 609 156 650 295 c 2
 697 455 l 1
 784 455 l 1
 685 123 l 2
 677 94 673 75 673 64 c 0
 673 51 682 40 692 40 c 0
 712 40 752 81 801 153 c 1
 831 135 l 1
 802 89 753 52 753 12 c 2
 753 9 l 2
 753 -16 779 -37 779 -70 c 0
 779 -112 693 -154 633 -192 c 1
 605 -156 l 1
 605 -156 701 -106 719 -68 c 0
 721 -64 722 -61 722 -57 c 0
 722 -43 704 -35 704 -15 c 0
 704 -11 705 -6 707 0 c 1
 689 -9 669 -15 650 -15 c 0
EndSplineSet
EndChar

StartChar: afii10092
Encoding: 1098 1098 503
Width: 631
Flags: MW
LayerCount: 2
Fore
SplineSet
377 458 m 1
 403 416 l 1
 325 366 306 304 293 244 c 1
 325 268 359 283 408 283 c 0
 493 283 571 253 571 166 c 0
 571 59 463 -14 359 -14 c 2
 356 -14 l 2
 198 -14 169 77 169 145 c 0
 169 185 179 216 179 216 c 1
 199 294 231 338 277 378 c 1
 270 376 262 375 256 375 c 0
 217 375 187 400 143 400 c 0
 115 400 97 358 79 308 c 1
 33 326 l 1
 47 376 77 476 116 476 c 0
 203 476 256 433 311 433 c 0
 332 433 353 439 377 458 c 1
368 32 m 1
 433 33 488 104 488 159 c 0
 488 195 465 224 407 224 c 0
 329 224 259 157 259 108 c 0
 259 46 298 32 361 32 c 2
 368 32 l 1
EndSplineSet
EndChar

StartChar: afii10093
Encoding: 1099 1099 504
Width: 775
Flags: HMW
LayerCount: 2
Fore
SplineSet
492 149 m 2
 585 466 l 1
 673 466 l 1
 568 113 l 2
 560 85 556 67 556 57 c 0
 556 45 563 36 573 36 c 0
 600 36 644 80 694 157 c 1
 725 140 l 1
 697 97 681 75 663 55 c 0
 623 9 582 -14 539 -14 c 0
 500 -14 470 13 470 48 c 0
 470 70 474 86 492 149 c 2
EndSplineSet
Refer: 505 1100 S 1 0 0 1 0 0 2
EndChar

StartChar: afii10094
Encoding: 1100 1100 505
Width: 486
Flags: MW
LayerCount: 2
Fore
SplineSet
88 344 m 2
 93 362 96 378 96 387 c 0
 96 410 80 419 40 419 c 2
 16 419 l 1
 19 455 l 1
 208 470 l 1
 191 392 l 1
 145 238 l 1
 163 258 201 271 235 271 c 0
 403 271 426 205 426 154 c 0
 426 47 320 -14 170 -14 c 0
 53 -14 14 16 14 70 c 0
 14 84 16 99 21 116 c 2
 88 344 l 2
105 102 m 0
 104 97 103 93 103 89 c 0
 103 54 143 30 199 30 c 0
 292 30 335 100 335 154 c 0
 335 184 314 218 231 218 c 0
 190 218 123 182 105 102 c 0
EndSplineSet
EndChar

StartChar: afii10095
Encoding: 1101 1101 506
Width: 451
Flags: MW
LayerCount: 2
Fore
SplineSet
298 213 m 1
 156 213 l 1
 171 265 l 1
 307 265 l 1
 307 273 308 281 308 289 c 0
 308 353 294 422 216 422 c 0
 168 422 115 388 65 323 c 1
 36 345 l 1
 89 428 154 470 229 470 c 0
 333 470 401 399 401 289 c 0
 401 129 275 -15 135 -15 c 0
 63 -15 5 33 5 93 c 0
 5 136 32 168 68 168 c 0
 99 168 121 148 121 119 c 0
 121 95 111 83 84 71 c 0
 73 67 68 62 68 56 c 0
 68 39 100 23 132 23 c 0
 176 23 212 47 247 97 c 0
 270 130 287 171 298 213 c 1
EndSplineSet
EndChar

StartChar: afii10096
Encoding: 1102 1102 507
Width: 744
Flags: MW
LayerCount: 2
Fore
SplineSet
226 470 m 1
 178 265 l 1
 263 265 l 1
 310 389 424 481 536 481 c 0
 632 481 695 407 695 305 c 0
 695 282 692 258 685 233 c 0
 649 95 524 -15 404 -15 c 0
 305 -15 244 59 244 161 c 0
 244 178 245 196 249 214 c 1
 165 214 l 1
 108 0 l 1
 14 0 l 1
 106 344 l 2
 111 362 114 378 114 387 c 0
 114 410 98 419 58 419 c 2
 34 419 l 1
 37 455 l 1
 226 470 l 1
525 438 m 0
 450 438 394 368 358 232 c 0
 347 190 341 153 341 124 c 0
 341 61 366 28 415 28 c 0
 487 28 545 100 580 233 c 0
 591 276 597 312 597 342 c 0
 597 405 572 438 525 438 c 0
EndSplineSet
EndChar

StartChar: afii10097
Encoding: 1103 1103 508
Width: 662
Flags: MW
LayerCount: 2
Fore
SplineSet
363 108 m 1
 371 139 379 171 388 202 c 1
 360 202 l 1
 320 202 l 1
 272 187 277 156 259 93 c 1
 228 20 183 -10 104 -10 c 0
 37 -10 5 14 5 65 c 0
 5 76 7 89 10 103 c 1
 52 103 l 1
 50 92 49 82 49 74 c 0
 49 50 58 39 78 39 c 0
 101 39 127 39 143 95 c 0
 156 143 188 183 238 208 c 1
 133 220 96 252 96 299 c 0
 96 309 98 320 101 331 c 0
 122 410 203 466 376 466 c 2
 554 466 l 1
 463 122 l 1
 463 122 451 80 451 59 c 0
 451 41 462 36 469 36 c 0
 500 36 536 77 586 156 c 1
 615 135 l 1
 559 38 525 -15 432 -15 c 0
 383 -15 360 9 360 66 c 0
 360 79 361 92 363 108 c 1
400 248 m 1
 435 378 l 2
 438 389 440 397 440 403 c 0
 440 416 432 419 413 419 c 2
 406 419 l 2
 343 419 313 414 279 404 c 0
 237 391 209 370 199 329 c 0
 197 322 196 315 196 309 c 0
 196 283 217 272 252 260 c 1
 280 252 309 248 373 248 c 2
 400 248 l 1
EndSplineSet
EndChar

StartChar: afii10100
Encoding: 1107 1107 512
Width: 458
Flags: MW
LayerCount: 2
Fore
SplineSet
234 367 m 2
 158 83 l 2
 155 74 154 66 154 60 c 0
 154 40 171 36 221 36 c 2
 225 36 l 1
 216 0 l 1
 -37 0 l 1
 -28 36 l 1
 -24 36 l 2
 40 36 53 43 64 83 c 2
 144 383 l 2
 147 392 148 400 148 406 c 0
 148 426 131 430 82 430 c 2
 75 430 l 1
 84 466 l 1
 499 466 l 1
 463 296 l 1
 423 296 l 1
 426 312 427 326 427 339 c 0
 427 398 397 422 330 422 c 2
 291 422 l 2
 249 422 241 394 234 367 c 2
EndSplineSet
EndChar

StartChar: afii10101
Encoding: 1108 1108 513
Width: 479
Flags: MW
LayerCount: 2
Fore
SplineSet
119 214 m 1
 114 193 112 173 112 155 c 0
 112 87 145 46 204 46 c 0
 256 46 297 75 349 147 c 1
 384 132 l 1
 312 26 250 -15 161 -15 c 0
 62 -15 5 47 5 145 c 0
 5 169 8 196 16 225 c 0
 56 374 178 481 308 481 c 0
 385 481 435 442 435 387 c 0
 435 379 434 371 432 362 c 0
 421 322 388 294 353 294 c 0
 324 294 306 310 306 334 c 0
 306 339 306 344 308 350 c 0
 313 367 319 377 340 396 c 0
 348 404 350 406 350 412 c 0
 350 426 330 438 302 438 c 0
 233 438 168 370 133 265 c 1
 261 265 l 1
 248 214 l 1
 119 214 l 1
EndSplineSet
EndChar

StartChar: afii10104
Encoding: 1111 1111 516
Width: 333
Flags: MW
LayerCount: 2
Fore
SplineSet
231 470 m 1
 125 113 l 2
 117 85 113 67 113 57 c 0
 113 45 120 36 130 36 c 0
 157 36 201 80 251 157 c 1
 282 140 l 1
 222 39 158 -14 95 -14 c 0
 57 -14 27 13 27 48 c 0
 27 70 31 86 49 149 c 2
 107 344 l 2
 113 366 116 379 116 388 c 0
 116 410 100 419 59 419 c 2
 35 419 l 1
 39 455 l 1
 231 470 l 1
EndSplineSet
Refer: 362 776 S 1 0 0 1 -10 0 2
EndChar

StartChar: afii10108
Encoding: 1115 1115 520
Width: 521
Flags: MW
LayerCount: 2
Fore
SplineSet
562 466 m 1
 526 296 l 1
 486 296 l 1
 490 320 492 340 492 357 c 0
 492 403 473 422 413 422 c 2
 403 422 l 2
 361 422 353 394 346 367 c 2
 270 83 l 2
 267 74 266 66 266 60 c 0
 266 40 283 36 333 36 c 2
 337 36 l 1
 328 0 l 1
 75 0 l 1
 84 36 l 1
 88 36 l 2
 152 36 165 43 176 83 c 2
 252 367 l 2
 255 378 258 388 258 397 c 0
 258 412 251 422 225 422 c 2
 215 422 l 2
 133 422 107 386 74 296 c 1
 34 296 l 1
 88 466 l 1
 562 466 l 1
EndSplineSet
EndChar

StartChar: uni048C
Encoding: 1164 1164 525
Width: 696
Flags: MW
LayerCount: 2
Fore
SplineSet
275 354 m 1
 208 98 l 2
 204 85 202 75 202 68 c 0
 202 50 216 47 255 47 c 2
 319 47 l 2
 423 47 485 96 513 202 c 0
 519 223 521 242 521 259 c 0
 521 323 480 354 396 354 c 2
 275 354 l 1
327 548 m 1
 328 548 l 1
 289 401 l 1
 402 401 l 2
 492 401 537 394 572 375 c 0
 619 349 644 306 644 252 c 0
 644 235 641 217 636 198 c 0
 616 122 566 64 491 31 c 0
 447 11 382 0 313 0 c 2
 -37 0 l 1
 -25 47 l 1
 -7 47 l 2
 74 47 84 52 96 94 c 1
 103 123 l 1
 215 548 l 1
 121 548 l 1
 132 599 l 1
 228 599 l 1
 235 628 l 2
 238 638 239 645 239 651 c 0
 239 672 220 675 158 675 c 2
 140 675 l 1
 152 722 l 1
 488 722 l 1
 476 675 l 1
 450 675 l 2
 369 675 359 670 347 628 c 1
 340 599 l 1
 433 599 l 1
 422 548 l 1
 327 548 l 1
EndSplineSet
EndChar

StartChar: uni048D
Encoding: 1165 1165 526
Width: 486
Flags: MW
LayerCount: 2
Fore
SplineSet
105 102 m 0
 104 97 103 93 103 89 c 0
 103 54 143 30 199 30 c 0
 292 30 335 100 335 154 c 0
 335 184 314 218 231 218 c 0
 190 218 123 182 105 102 c 0
78 310 m 1
 4 310 l 1
 14 361 l 1
 92 361 l 1
 95 372 96 381 96 387 c 0
 96 410 80 419 40 419 c 2
 16 419 l 1
 19 455 l 1
 208 470 l 1
 191 392 l 1
 182 361 l 1
 276 361 l 1
 266 310 l 1
 167 310 l 1
 145 238 l 1
 163 258 201 271 235 271 c 0
 403 271 426 205 426 154 c 0
 426 47 320 -14 170 -14 c 0
 53 -14 14 16 14 70 c 0
 14 84 16 99 21 116 c 2
 78 310 l 1
EndSplineSet
EndChar

StartChar: uni048E
Encoding: 1166 1166 527
Width: 667
Flags: MW
LayerCount: 2
Fore
SplineSet
514 430 m 1
 537 463 551 507 551 552 c 0
 551 641 511 675 406 675 c 2
 394 675 l 2
 353 675 340 665 330 627 c 2
 260 365 l 1
 279 365 l 2
 377 365 377 365 391 367 c 0
 427 370 454 379 476 393 c 1
 417 496 l 1
 467 512 l 1
 514 430 l 1
554 359 m 1
 617 251 l 1
 568 235 l 1
 508 338 l 1
 461 321 406 318 265 318 c 2
 247 318 l 1
 195 123 l 2
 185 82 185 82 185 74 c 0
 185 52 199 47 264 47 c 2
 290 47 l 1
 285 0 l 1
 -33 0 l 1
 -28 47 l 1
 -23 47 l 2
 26 47 49 51 60 61 c 0
 68 69 69 69 83 123 c 2
 211 599 l 2
 216 619 220 640 220 648 c 0
 220 670 206 675 141 675 c 2
 115 675 l 1
 121 722 l 1
 416 722 l 2
 499 722 552 711 589 686 c 0
 637 653 663 603 663 541 c 0
 663 462 624 397 554 359 c 1
EndSplineSet
EndChar

StartChar: uni048F
Encoding: 1167 1167 528
Width: 574
Flags: MW
LayerCount: 2
Fore
SplineSet
335 92 m 1
 270 206 l 1
 319 222 l 1
 365 144 l 1
 395 206 412 274 412 329 c 0
 412 382 382 417 337 417 c 0
 297 417 255 389 222 339 c 0
 184 281 153 185 153 127 c 0
 153 74 188 35 237 35 c 0
 276 35 308 53 335 92 c 1
373 26 m 1
 336 -1 293 -15 246 -15 c 0
 180 -15 154 4 127 73 c 1
 78 -90 l 2
 71 -115 67 -132 67 -140 c 0
 67 -160 83 -166 131 -166 c 2
 143 -166 l 1
 139 -202 l 1
 -101 -202 l 1
 -97 -166 l 1
 -29 -163 -28 -162 -8 -90 c 1
 120 344 l 2
 126 363 129 378 129 388 c 0
 129 410 113 419 72 419 c 2
 48 419 l 1
 52 455 l 1
 234 470 l 1
 219 385 l 1
 264 440 317 470 368 470 c 0
 407 470 447 450 473 418 c 0
 496 389 506 356 506 307 c 0
 506 225 477 142 426 78 c 1
 412 61 l 1
 470 -39 l 1
 420 -55 l 1
 373 26 l 1
EndSplineSet
EndChar

StartChar: afii10050
Encoding: 1168 1168 529
Width: 710
Flags: MW
LayerCount: 2
Fore
SplineSet
712 675 m 1
 398 675 l 2
 344 675 333 668 321 625 c 2
 187 123 l 1
 179 94 l 2
 177 85 175 77 175 71 c 0
 175 50 194 47 257 47 c 2
 290 47 l 1
 277 0 l 1
 -66 0 l 1
 -53 47 l 1
 -35 47 l 2
 46 47 56 52 67 94 c 2
 75 123 l 1
 203 599 l 1
 210 628 l 2
 213 638 214 645 214 651 c 0
 214 672 195 675 133 675 c 2
 115 675 l 1
 127 722 l 1
 446 722 l 2
 638 722 680 778 722 932 c 1
 766 931 l 1
 712 675 l 1
EndSplineSet
EndChar

StartChar: afii10098
Encoding: 1169 1169 530
Width: 611
Flags: MW
LayerCount: 2
Fore
SplineSet
423 466 m 2
 487 466 511 516 536 592 c 1
 576 592 l 1
 539 422 l 1
 342 422 l 2
 300 422 293 394 285 367 c 2
 209 83 l 2
 207 74 206 67 206 61 c 0
 206 40 222 36 273 36 c 2
 277 36 l 1
 267 0 l 1
 14 0 l 1
 24 36 l 1
 28 36 l 2
 92 36 105 43 115 83 c 2
 196 383 l 2
 198 392 199 399 199 405 c 0
 199 426 183 430 133 430 c 2
 126 430 l 1
 136 466 l 1
 423 466 l 2
EndSplineSet
EndChar

StartChar: uni0492
Encoding: 1170 1170 531
Width: 667
Flags: MW
LayerCount: 2
Fore
SplineSet
156 434 m 1
 59 434 l 1
 70 485 l 1
 170 485 l 1
 200 599 l 1
 207 628 l 2
 210 638 211 645 211 651 c 0
 211 672 192 675 130 675 c 2
 112 675 l 1
 124 722 l 1
 719 722 l 1
 666 466 l 1
 622 466 l 1
 625 492 626 515 626 535 c 0
 626 648 581 675 441 675 c 2
 395 675 l 2
 341 675 330 668 319 625 c 2
 282 485 l 1
 371 485 l 1
 360 434 l 1
 268 434 l 1
 186 123 l 1
 179 94 l 2
 176 84 175 77 175 71 c 0
 175 50 194 47 256 47 c 2
 289 47 l 1
 277 0 l 1
 -66 0 l 1
 -54 47 l 1
 -36 47 l 2
 45 47 55 52 67 94 c 1
 74 123 l 1
 156 434 l 1
EndSplineSet
EndChar

StartChar: uni0493
Encoding: 1171 1171 532
Width: 458
Flags: MW
LayerCount: 2
Fore
SplineSet
108 248 m 1
 36 248 l 1
 47 299 l 1
 122 299 l 1
 144 383 l 2
 147 392 148 400 148 406 c 0
 148 426 131 430 82 430 c 2
 75 430 l 1
 84 466 l 1
 499 466 l 1
 463 296 l 1
 423 296 l 1
 426 312 427 326 427 339 c 0
 427 398 397 422 330 422 c 2
 291 422 l 2
 249 422 241 394 234 367 c 2
 216 299 l 1
 348 299 l 1
 337 248 l 1
 202 248 l 1
 158 83 l 2
 155 74 154 66 154 60 c 0
 154 40 171 36 221 36 c 2
 225 36 l 1
 216 0 l 1
 -37 0 l 1
 -28 36 l 1
 -24 36 l 2
 40 36 53 43 64 83 c 2
 108 248 l 1
EndSplineSet
EndChar

StartChar: uni049E
Encoding: 1182 1182 543
Width: 748
Flags: MW
LayerCount: 2
Fore
SplineSet
327 549 m 1
 285 389 l 1
 290 389 l 2
 446 389 518 436 558 578 c 1
 587 690 647 736 726 736 c 0
 770 736 817 730 817 652 c 0
 817 617 791 581 752 570 c 0
 745 568 739 567 732 567 c 0
 705 567 681 583 681 608 c 0
 681 612 682 616 683 620 c 0
 695 663 723 658 723 671 c 0
 723 681 706 684 704 684 c 0
 690 684 633 638 616 575 c 0
 582 453 542 388 472 364 c 1
 546 354 581 302 581 226 c 0
 581 202 577 175 570 147 c 0
 564 124 562 107 562 94 c 0
 562 62 579 61 595 61 c 2
 597 61 l 2
 624 61 644 91 666 160 c 1
 708 160 l 1
 673 40 620 -15 538 -15 c 0
 475 -15 446 14 446 83 c 0
 446 101 448 121 452 144 c 1
 460 174 464 199 464 221 c 0
 464 305 405 333 270 334 c 1
 214 123 l 1
 207 94 l 2
 205 85 203 77 203 71 c 0
 203 50 221 47 284 47 c 2
 303 47 l 1
 291 0 l 1
 -38 0 l 1
 -26 47 l 1
 -8 47 l 2
 73 47 84 52 95 94 c 2
 102 123 l 1
 215 549 l 1
 126 549 l 1
 137 600 l 1
 228 600 l 1
 236 628 l 2
 238 637 240 645 240 651 c 0
 240 672 221 675 158 675 c 2
 140 675 l 1
 152 722 l 1
 481 722 l 1
 469 675 l 1
 450 675 l 2
 369 675 359 670 348 628 c 2
 340 600 l 1
 438 600 l 1
 427 549 l 1
 327 549 l 1
EndSplineSet
EndChar

StartChar: uni049F
Encoding: 1183 1183 544
Width: 613
Flags: MW
LayerCount: 2
Fore
SplineSet
98 318 m 1
 8 318 l 1
 17 369 l 1
 111 369 l 1
 113 377 114 383 114 388 c 0
 114 410 98 419 57 419 c 2
 33 419 l 1
 37 455 l 1
 230 470 l 1
 204 369 l 1
 277 369 l 1
 268 318 l 1
 190 318 l 1
 180 278 l 1
 254 278 312 280 338 373 c 1
 356 445 412 475 491 475 c 0
 557 475 570 451 570 423 c 0
 570 388 544 368 517 368 c 0
 496 368 475 371 475 400 c 0
 475 427 494 424 494 431 c 0
 494 437 485 441 474 441 c 2
 473 441 l 2
 458 441 407 411 396 371 c 0
 374 292 345 271 277 256 c 1
 360 248 401 229 401 140 c 0
 401 117 391 89 391 69 c 0
 391 52 398 39 425 39 c 0
 452 39 469 59 485 103 c 1
 527 103 l 1
 504 26 455 -10 373 -10 c 0
 278 -10 272 37 272 76 c 2
 272 93 l 2
 272 127 290 160 290 186 c 0
 290 215 267 234 168 234 c 1
 107 0 l 1
 14 0 l 1
 98 318 l 1
EndSplineSet
EndChar

StartChar: uni04B0
Encoding: 1200 1200 561
Width: 685
Flags: MW
LayerCount: 2
Fore
SplineSet
256 256 m 1
 161 256 l 1
 172 307 l 1
 270 307 l 1
 270 308 l 1
 150 606 l 2
 127 662 108 675 49 675 c 2
 32 675 l 1
 37 722 l 1
 345 722 l 1
 340 675 l 1
 312 675 l 2
 268 675 251 668 251 651 c 0
 251 643 255 630 262 613 c 2
 362 364 l 1
 532 582 l 2
 548 601 558 623 558 636 c 0
 558 660 534 675 494 675 c 2
 471 675 l 1
 476 722 l 1
 758 722 l 1
 753 675 l 1
 681 671 652 652 582 564 c 2
 382 308 l 1
 382 307 l 1
 473 307 l 1
 462 256 l 1
 368 256 l 1
 332 123 l 1
 322 82 322 82 322 74 c 0
 322 52 336 47 402 47 c 2
 438 47 l 1
 433 0 l 1
 86 0 l 1
 92 47 l 1
 114 47 l 2
 163 47 187 51 197 61 c 0
 206 69 206 70 220 123 c 2
 256 256 l 1
EndSplineSet
EndChar

StartChar: uni04B8
Encoding: 1208 1208 569
Width: 821
Flags: MW
LayerCount: 2
Fore
SplineSet
351 311 m 1
 350 311 l 1
 381 426 l 1
 433 426 l 1
 403 313 l 1
 457 319 498 338 541 369 c 1
 602 599 l 1
 609 628 l 2
 612 638 613 645 613 651 c 0
 613 672 594 675 532 675 c 2
 518 675 l 1
 530 722 l 1
 854 722 l 1
 842 675 l 1
 824 675 l 2
 743 675 733 670 721 628 c 1
 714 599 l 1
 588 123 l 1
 581 94 l 2
 578 84 577 77 577 71 c 0
 577 50 596 47 658 47 c 2
 676 47 l 1
 664 0 l 1
 336 0 l 1
 348 47 l 1
 366 47 l 2
 447 47 457 52 469 94 c 1
 476 123 l 1
 527 315 l 1
 480 284 441 267 389 260 c 1
 362 159 l 1
 310 159 l 1
 337 258 l 1
 241 260 141 292 141 356 c 0
 141 362 142 368 144 375 c 2
 203 599 l 1
 210 628 l 2
 213 638 214 645 214 651 c 0
 214 672 195 675 133 675 c 2
 115 675 l 1
 127 722 l 1
 456 722 l 1
 444 675 l 1
 425 675 l 2
 344 675 334 670 322 628 c 1
 315 599 l 1
 259 387 l 2
 258 383 257 379 257 375 c 0
 257 341 300 315 351 311 c 1
EndSplineSet
EndChar

StartChar: uni04B9
Encoding: 1209 1209 570
Width: 611
Flags: MW
LayerCount: 2
Fore
SplineSet
201 155 m 1
 237 289 l 1
 290 289 l 1
 259 175 l 1
 317 213 377 303 408 408 c 2
 422 455 l 1
 509 455 l 1
 410 123 l 2
 402 94 398 75 398 64 c 0
 398 51 407 40 417 40 c 0
 437 40 477 81 526 153 c 1
 556 135 l 1
 485 25 436 -15 375 -15 c 0
 338 -15 311 13 311 51 c 0
 311 70 346 197 356 232 c 1
 319 174 283 137 244 117 c 1
 218 22 l 1
 166 22 l 1
 187 100 l 1
 181 99 176 99 170 99 c 0
 114 99 75 136 75 191 c 0
 75 222 75 222 106 322 c 2
 113 344 l 2
 118 362 121 378 121 387 c 0
 121 410 106 419 65 419 c 2
 41 419 l 1
 44 455 l 1
 237 470 l 1
 172 255 l 2
 164 228 161 210 161 198 c 0
 161 175 179 156 201 155 c 1
EndSplineSet
EndChar

StartChar: uni04BA
Encoding: 1210 1210 571
Width: 821
Flags: MW
LayerCount: 2
Fore
SplineSet
442 407 m 1
 502 446 548 464 625 464 c 0
 723 464 829 432 829 366 c 0
 829 360 828 354 826 347 c 2
 767 123 l 1
 760 94 l 2
 757 84 756 77 756 71 c 0
 756 50 775 47 837 47 c 2
 855 47 l 1
 843 0 l 1
 514 0 l 1
 526 47 l 1
 545 47 l 2
 626 47 636 52 648 94 c 1
 655 123 l 1
 711 335 l 2
 712 339 713 343 713 347 c 0
 713 382 666 410 612 411 c 1
 607 411 l 2
 532 411 481 391 428 353 c 1
 367 123 l 1
 360 94 l 2
 357 84 356 77 356 71 c 0
 356 50 375 47 437 47 c 2
 451 47 l 1
 439 0 l 1
 115 0 l 1
 127 47 l 1
 145 47 l 2
 226 47 236 52 248 94 c 1
 255 123 l 1
 381 599 l 1
 388 628 l 2
 391 638 392 645 392 651 c 0
 392 672 373 675 311 675 c 2
 293 675 l 1
 305 722 l 1
 633 722 l 1
 621 675 l 1
 603 675 l 2
 522 675 512 670 500 628 c 1
 493 599 l 1
 442 407 l 1
EndSplineSet
EndChar

StartChar: uni04E8
Encoding: 1256 1256 610
Width: 778
Flags: MW
LayerCount: 2
Fore
SplineSet
457 737 m 0
 533 737 604 708 655 658 c 0
 709 605 735 537 735 450 c 0
 735 322 682 196 590 104 c 0
 510 25 417 -15 312 -15 c 0
 146 -15 40 98 40 275 c 0
 40 397 86 514 169 602 c 0
 253 692 349 737 457 737 c 0
595 346 m 1
 176 346 l 1
 165 297 158 248 158 207 c 0
 158 97 218 28 314 28 c 0
 392 28 465 71 510 144 c 0
 545 201 576 274 595 346 c 1
607 397 m 1
 614 432 618 466 618 496 c 0
 618 543 603 603 584 634 c 0
 563 670 512 694 460 694 c 0
 391 694 334 662 281 594 c 0
 246 549 213 475 190 397 c 1
 607 397 l 1
EndSplineSet
EndChar

StartChar: uni04E9
Encoding: 1257 1257 611
Width: 500
Flags: MW
LayerCount: 2
Fore
SplineSet
273 470 m 0
 370 470 450 385 450 281 c 0
 450 207 418 127 365 67 c 0
 317 13 255 -15 183 -15 c 0
 74 -15 5 58 5 172 c 0
 5 255 34 327 89 384 c 0
 143 440 208 470 273 470 c 0
337 198 m 1
 102 198 l 1
 97 174 95 150 95 128 c 0
 95 60 126 23 184 23 c 0
 237 23 274 53 308 122 c 0
 319 144 329 171 337 198 c 1
349 249 m 1
 353 271 355 291 355 309 c 0
 355 386 323 432 268 432 c 0
 230 432 198 414 170 378 c 0
 147 348 127 300 113 249 c 1
 349 249 l 1
EndSplineSet
EndChar

StartChar: uni1D5B
Encoding: 7515 7515 626
Width: 311
Flags: MW
LayerCount: 2
Fore
SplineSet
133 462 m 1
 92 323 l 2
 82 287 78 268 78 249 c 0
 78 223 95 202 118 202 c 0
 149 202 182 232 206 281 c 0
 221 313 232 350 232 370 c 0
 232 383 230 388 215 404 c 0
 206 415 203 422 203 432 c 0
 203 448 215 462 230 462 c 0
 251 462 267 441 267 415 c 0
 267 368 245 297 215 248 c 1
 182 197 145 170 103 170 c 0
 60 170 27 205 27 249 c 0
 27 268 31 293 38 317 c 2
 59 386 l 2
 62 397 65 410 65 414 c 0
 65 426 54 431 31 431 c 2
 20 431 l 1
 22 453 l 1
 133 462 l 1
EndSplineSet
EndChar

StartChar: uni1E0E
Encoding: 7694 7694 629
Width: 778
Flags: MW
LayerCount: 2
Fore
SplineSet
42 -82 m 1
 664 -82 l 1
 664 -134 l 1
 42 -134 l 1
 42 -82 l 1
EndSplineSet
Refer: 37 68 S 1 0 0 1 0 0 2
Ligature2: "CCMP" D uni0331
EndChar

StartChar: uni1E0F
Encoding: 7695 7695 630
Width: 611
Flags: MW
LayerCount: 2
Fore
SplineSet
25 -82 m 1
 514 -82 l 1
 514 -134 l 1
 25 -134 l 1
 25 -82 l 1
EndSplineSet
Refer: 69 100 S 1 0 0 1 0 0 2
Ligature2: "CCMP" d uni0331
EndChar

StartChar: uni1E34
Encoding: 7732 7732 637
Width: 741
Flags: MW
LayerCount: 2
Fore
SplineSet
38 -82 m 1
 631 -82 l 1
 631 -134 l 1
 38 -134 l 1
 38 -82 l 1
EndSplineSet
Refer: 44 75 S 1 0 0 1 0 0 2
Ligature2: "CCMP" K uni0331
EndChar

StartChar: uni1E35
Encoding: 7733 7733 638
Width: 556
Flags: MW
LayerCount: 2
Fore
SplineSet
20 -82 m 1
 465 -82 l 1
 465 -134 l 1
 20 -134 l 1
 20 -82 l 1
EndSplineSet
Refer: 76 107 S 1 0 0 1 0 0 2
Ligature2: "CCMP" k uni0331
EndChar

StartChar: uni1E3A
Encoding: 7738 7738 643
Width: 667
Flags: MW
LayerCount: 2
Fore
SplineSet
31 -82 m 1
 565 -82 l 1
 565 -134 l 1
 31 -134 l 1
 31 -82 l 1
EndSplineSet
Refer: 45 76 S 1 0 0 1 0 0 2
Ligature2: "CCMP" L uni0331
EndChar

StartChar: uni1E3B
Encoding: 7739 7739 644
Width: 333
Flags: MW
LayerCount: 2
Fore
SplineSet
-3 -82 m 1
 263 -82 l 1
 263 -134 l 1
 -3 -134 l 1
 -3 -82 l 1
EndSplineSet
Refer: 77 108 S 1 0 0 1 0 0 2
Ligature2: "CCMP" l uni0331
EndChar

StartChar: uni1E48
Encoding: 7752 7752 653
Width: 815
Flags: MW
LayerCount: 2
Fore
SplineSet
46 -82 m 1
 698 -82 l 1
 698 -134 l 1
 46 -134 l 1
 46 -82 l 1
EndSplineSet
Refer: 47 78 S 1 0 0 1 0 0 2
Ligature2: "CCMP" N uni0331
EndChar

StartChar: uni1E49
Encoding: 7753 7753 654
Width: 611
Flags: MW
LayerCount: 2
Fore
SplineSet
25 -82 m 1
 514 -82 l 1
 514 -134 l 1
 25 -134 l 1
 25 -82 l 1
EndSplineSet
Refer: 79 110 S 1 0 0 1 0 0 2
Ligature2: "CCMP" n uni0331
EndChar

StartChar: uni1E5E
Encoding: 7774 7774 663
Width: 741
Flags: MW
LayerCount: 2
Fore
SplineSet
38 -82 m 1
 631 -82 l 1
 631 -134 l 1
 38 -134 l 1
 38 -82 l 1
EndSplineSet
Refer: 51 82 S 1 0 0 1 0 0 2
Ligature2: "CCMP" R uni0331
EndChar

StartChar: uni1E5F
Encoding: 7775 7775 664
Width: 444
Flags: MW
LayerCount: 2
Fore
SplineSet
-32 -82 m 1
 118 -82 l 1
 118 -134 l 1
 -32 -134 l 1
 -32 -82 l 1
EndSplineSet
Refer: 83 114 S 1 0 0 1 0 0 2
Ligature2: "CCMP" r uni0331
EndChar

StartChar: uni1E6E
Encoding: 7790 7790 669
Width: 685
Flags: MW
LayerCount: 2
Fore
SplineSet
33 -82 m 1
 581 -82 l 1
 581 -134 l 1
 33 -134 l 1
 33 -82 l 1
EndSplineSet
Refer: 53 84 S 1 0 0 1 0 0 2
Ligature2: "CCMP" T uni0331
EndChar

StartChar: uni1E6F
Encoding: 7791 7791 670
Width: 352
Flags: MW
LayerCount: 2
Fore
SplineSet
-1 -82 m 1
 281 -82 l 1
 281 -134 l 1
 -1 -134 l 1
 -1 -82 l 1
EndSplineSet
Refer: 85 116 S 1 0 0 1 0 0 2
Ligature2: "CCMP" t uni0331
EndChar

StartChar: uni1E94
Encoding: 7828 7828 679
Width: 667
Flags: MW
LayerCount: 2
Fore
SplineSet
31 -82 m 1
 565 -82 l 1
 565 -134 l 1
 31 -134 l 1
 31 -82 l 1
EndSplineSet
Refer: 59 90 S 1 0 0 1 0 0 2
Ligature2: "CCMP" Z uni0331
EndChar

StartChar: uni1E95
Encoding: 7829 7829 680
Width: 463
Flags: MW
LayerCount: 2
Fore
SplineSet
10 -82 m 1
 380 -82 l 1
 380 -134 l 1
 10 -134 l 1
 10 -82 l 1
EndSplineSet
Refer: 91 122 S 1 0 0 1 0 0 2
Ligature2: "CCMP" z uni0331
EndChar

StartChar: uni1E96
Encoding: 7830 7830 681
Width: 611
Flags: MW
LayerCount: 2
Fore
SplineSet
25 -82 m 1
 514 -82 l 1
 514 -134 l 1
 25 -134 l 1
 25 -82 l 1
EndSplineSet
Refer: 73 104 S 1 0 0 1 0 0 2
Ligature2: "CCMP" h uni0331
EndChar

StartChar: endash
Encoding: 8211 8211 684
Width: 500
Flags: MW
LayerCount: 2
Fore
SplineSet
-2 267 m 1
 518 267 l 1
 502 206 l 1
 -18 206 l 1
 -2 267 l 1
EndSplineSet
EndChar

StartChar: emdash
Encoding: 8212 8212 685
Width: 1000
Flags: MW
LayerCount: 2
Fore
SplineSet
-2 267 m 1
 1018 267 l 1
 1002 206 l 1
 -18 206 l 1
 -2 267 l 1
EndSplineSet
EndChar

StartChar: quoteleft
Encoding: 8216 8216 686
Width: 204
Flags: MW
LayerCount: 2
Fore
SplineSet
239 737 m 1
 252 706 l 1
 178 672 134 626 125 576 c 1
 142 576 l 2
 176 576 198 555 198 523 c 0
 198 488 168 461 131 461 c 0
 91 461 61 495 61 541 c 0
 61 618 131 695 239 737 c 1
EndSplineSet
EndChar

StartChar: quoteright
Encoding: 8217 8217 687
Width: 204
Flags: MW
LayerCount: 2
Fore
SplineSet
52 433 m 1
 39 464 l 1
 113 498 157 544 166 595 c 1
 159 594 153 594 149 594 c 0
 115 594 93 615 93 647 c 0
 93 682 123 709 160 709 c 0
 200 709 230 675 230 629 c 0
 230 552 160 475 52 433 c 1
EndSplineSet
EndChar

StartChar: quotedblleft
Encoding: 8220 8220 689
Width: 389
Flags: MW
LayerCount: 2
Fore
SplineSet
419 737 m 1
 432 706 l 1
 358 672 314 627 305 576 c 1
 322 576 l 2
 356 576 378 555 378 523 c 0
 378 488 348 461 311 461 c 0
 271 461 241 495 241 541 c 0
 241 618 311 695 419 737 c 1
EndSplineSet
Refer: 686 8216 S 1 0 0 1 2 0 2
EndChar

StartChar: quotedblright
Encoding: 8221 8221 690
Width: 389
Flags: MW
LayerCount: 2
Fore
SplineSet
51 461 m 1
 38 492 l 1
 113 527 156 571 165 623 c 1
 158 622 152 622 148 622 c 0
 114 622 92 643 92 675 c 0
 92 710 122 737 159 737 c 0
 199 737 229 703 229 657 c 0
 229 580 160 504 51 461 c 1
229 461 m 1
 216 492 l 1
 291 527 333 571 343 623 c 1
 336 622 330 622 326 622 c 0
 292 622 270 643 270 675 c 0
 270 710 299 737 337 737 c 0
 377 737 407 703 407 657 c 0
 407 580 337 503 229 461 c 1
EndSplineSet
EndChar

StartChar: dagger
Encoding: 8224 8224 692
Width: 500
Flags: MW
LayerCount: 2
Fore
SplineSet
105 -144 m 1
 129 -56 l 2
 161 59 177 153 177 221 c 0
 177 238 176 263 173 296 c 1
 217 347 253 414 271 476 c 1
 236 476 207 468 158 447 c 0
 138 438 132 436 119 436 c 0
 86 436 64 458 64 490 c 0
 64 521 86 543 119 543 c 0
 132 543 138 541 158 532 c 0
 197 514 243 501 269 501 c 2
 272 501 l 2
 273 501 275 501 278 502 c 1
 289 544 294 577 294 600 c 0
 294 608 294 608 288 648 c 0
 287 657 286 665 286 673 c 0
 286 711 308 737 342 737 c 0
 372 737 396 715 396 686 c 0
 396 663 392 655 365 620 c 0
 340 589 322 554 307 502 c 1
 353 504 369 508 424 532 c 0
 445 541 450 543 463 543 c 0
 496 543 518 521 518 490 c 0
 518 458 496 436 463 436 c 0
 450 436 444 438 424 447 c 0
 368 470 348 475 299 476 c 1
 292 447 288 415 288 387 c 0
 288 359 291 335 300 296 c 1
 251 224 201 97 158 -65 c 1
 135 -144 l 1
 105 -144 l 1
EndSplineSet
EndChar

